<?xml version='1.0' encoding='utf-8'?>
<svg xmlns="http://www.w3.org/2000/svg" viewBox="0 0 512 512" width="100" height="100" fill="currentColor">
  <g transform="scale(1, -1) translate(0, -448)">
    <path d="M461 415C470 414 478 406 480 397C489 352 494 283 460 216C439 176 405 139 352 108V27C352 10 343 -5 329 -14L241 -67C219 -80 192 -64 192 -40V64C192 99 163 128 128 128H25C0 128 -16 155 -3 176L50 265C59 279 74 288 91 288H172C203 341 240 375 280 396C347 430 416 424 461 415ZM240 63V-11L304 27V85C285 77 263 70 240 63ZM417 238C441 284 441 333 435 371C397 377 348 377 302 353C254 328 205 276 174 166C199 155 219 135 230 110C340 141 393 190 417 238ZM149 240H91L53 176H127C134 199 141 221 149 240ZM336 312C358 312 376 294 376 272C376 250 358 232 336 232C314 232 296 250 296 272C296 294 314 312 336 312Z" />
  </g>
</svg>