<?xml version='1.0' encoding='utf-8'?>
<svg xmlns="http://www.w3.org/2000/svg" viewBox="0 0 512 512" width="100" height="100" fill="currentColor">
  <g transform="scale(1, -1) translate(0, -448)">
    <path d="M64 416C29 416 0 387 0 352V96C0 61 29 32 64 32H208L192 -16H120C107 -16 96 -27 96 -40C96 -53 107 -64 120 -64H392C405 -64 416 -53 416 -40C416 -27 405 -16 392 -16H320L304 32H448C483 32 512 61 512 96V352C512 387 483 416 448 416H64ZM96 352H416C434 352 448 338 448 320V160C448 142 434 128 416 128H96C78 128 64 142 64 160V320C64 338 78 352 96 352Z" />
  </g>
</svg>