<?xml version='1.0' encoding='utf-8'?>
<svg xmlns="http://www.w3.org/2000/svg" viewBox="0 0 512 512" width="100" height="100" fill="currentColor">
  <g transform="scale(1, -1) translate(0, -448)">
    <path d="M448 368C457 368 464 361 464 352V176H48V352C48 361 55 368 64 368H448ZM464 128V96C464 87 457 80 448 80H64C55 80 48 87 48 96V128H464ZM64 416C29 416 0 387 0 352V96C0 61 29 32 64 32H180L172 -16H120C107 -16 96 -27 96 -40C96 -53 107 -64 120 -64H392C405 -64 416 -53 416 -40C416 -27 405 -16 392 -16H340L332 32H448C483 32 512 61 512 96V352C512 387 483 416 448 416H64ZM220 -16 228 32H284L292 -16H220Z" />
  </g>
</svg>