<?xml version='1.0' encoding='utf-8'?>
<svg xmlns="http://www.w3.org/2000/svg" viewBox="0 0 448 512" width="100" height="100" fill="currentColor">
  <g transform="scale(1, -1) translate(0, -448)">
    <path d="M128 320C128 373 171 416 224 416C277 416 320 373 320 320C320 267 277 224 224 224C171 224 128 267 128 320ZM352 320C352 391 295 448 224 448C153 448 96 391 96 320C96 249 153 192 224 192C295 192 352 249 352 320ZM32 -32C32 47 97 112 176 112H272C352 112 416 47 416 -32V-48C416 -57 423 -64 432 -64C441 -64 448 -57 448 -48V-32C448 65 369 144 272 144H176C79 144 0 65 0 -32V-48C0 -57 7 -64 16 -64C25 -64 32 -57 32 -48V-32Z" />
  </g>
</svg>