<?xml version='1.0' encoding='utf-8'?>
<svg xmlns="http://www.w3.org/2000/svg" viewBox="0 0 448 512" width="100" height="100" fill="currentColor">
  <g transform="scale(1, -1) translate(0, -448)">
    <path d="M64 416C29 416 0 387 0 352V32C0 -3 29 -32 64 -32H384C419 -32 448 -3 448 32V352C448 387 419 416 384 416H64ZM224 272C206 272 192 258 192 240C192 227 181 216 168 216C155 216 144 227 144 240C144 284 180 320 224 320C268 320 304 284 304 240C304 193 268 173 248 165V162C248 148 237 138 224 138C211 138 200 148 200 162V170C200 190 215 205 230 210C237 212 243 215 248 220C253 224 256 230 256 240C256 258 242 272 224 272ZM192 80C192 98 206 112 224 112C242 112 256 98 256 80C256 62 242 48 224 48C206 48 192 62 192 80Z" />
  </g>
</svg>