<?xml version='1.0' encoding='utf-8'?>
<svg xmlns="http://www.w3.org/2000/svg" viewBox="0 0 576 512" width="100" height="100" fill="currentColor">
  <g transform="scale(1, -1) translate(0, -448)">
    <path d="M224 200C290 200 344 254 344 320C344 386 290 440 224 440C158 440 104 386 104 320C104 254 158 200 224 200ZM194 144C96 144 16 64 16 -34C16 -51 29 -64 46 -64H305C304 -59 304 -53 304 -48V48C304 77 316 102 336 120V124C311 137 283 144 254 144H194ZM496 144H544C544 188 508 224 464 224C420 224 384 188 384 144V93C365 87 352 69 352 48V-48C352 -75 374 -96 400 -96H528C555 -96 576 -75 576 -48V48C576 74 555 96 528 96H432V144C432 162 446 176 464 176C482 176 496 162 496 144Z" />
  </g>
</svg>