<?xml version='1.0' encoding='utf-8'?>
<svg xmlns="http://www.w3.org/2000/svg" viewBox="0 0 512 512" width="100" height="100" fill="currentColor">
  <g transform="scale(1, -1) translate(0, -448)">
    <path d="M480 405 379 304H480V405ZM512 296C512 283 502 272 488 272H360C350 272 342 278 338 287C334 296 336 306 343 313L397 366C309 437 179 432 98 350C58 310 36 259 33 207C32 198 24 191 16 192C7 193 0 200 1 209C5 269 30 327 75 373C169 467 319 473 419 389L471 441C478 448 488 450 497 446C506 442 512 434 512 424V296ZM480 177C480 186 488 193 497 192C505 191 512 184 512 175C508 115 483 57 437 11C343 -83 193 -89 93 -5L41 -57C34 -64 24 -66 15 -62C6 -59 0 -50 0 -40V88C0 101 11 112 24 112H152C162 112 171 106 174 97C178 88 176 78 169 71L116 17C204 -54 333 -48 415 34C454 73 476 125 480 177ZM32 80V-21L133 80H32Z" />
  </g>
</svg>