<?xml version='1.0' encoding='utf-8'?>
<svg xmlns="http://www.w3.org/2000/svg" viewBox="0 0 720 720" width="100" height="100" fill="currentColor">
  <defs>
    <mask id="house-cutout-mask" maskUnits="userSpaceOnUse" maskContentUnits="userSpaceOnUse">
      <rect x="0" y="0" width="720" height="720" fill="white" />
      <circle cx="504" cy="504" r="240" fill="black" />
    </mask>
    <mask id="circle-user-mask" maskUnits="userSpaceOnUse" maskContentUnits="userSpaceOnUse">
      <circle cx="504" cy="504" r="216" fill="white" />
      <g transform="translate(361, 361) scale(0.64) scale(1, -1) translate(0, -448)" fill="black">
        <path d="M224 200C290 200 344 254 344 320C344 386 290 440 224 440C158 440 104 386 104 320C104 254 158 200 224 200ZM194 144C96 144 16 64 16 -34C16 -51 29 -64 46 -64H402C419 -64 432 -51 432 -34C432 64 352 144 254 144H194Z" />
      </g>
    </mask>
  </defs>
  <g mask="url(#house-cutout-mask)" transform="scale(1, -1) translate(0, -448)">
    <path d="M240 442C249 450 263 450 272 442L504 234C514 225 515 210 506 200C497 190 482 189 472 198L464 205V0C464 -35 435 -64 400 -64H112C77 -64 48 -35 48 0V205L40 198C30 189 15 190 6 200C-3 210 -2 225 8 234L240 442ZM256 392 96 248V0C96 -9 103 -16 112 -16H160V88C160 128 192 160 232 160H280C320 160 352 128 352 88V-16H400C409 -16 416 -9 416 0V248L256 392ZM208 -16H304V88C304 101 293 112 280 112H232C219 112 208 101 208 88V-16Z" />
  </g>
  <circle cx="504" cy="504" r="216" fill="currentColor" mask="url(#circle-user-mask)" />
</svg>