<?xml version='1.0' encoding='utf-8'?>
<svg xmlns="http://www.w3.org/2000/svg" viewBox="0 0 487 512" width="100" height="100" fill="currentColor">
  <g transform="scale(1, -1) translate(0, -448)">
    <path d="M363 2Q357 2 354 -1Q350 -5 350 -11V-36H107V184H350V168Q350 163 354 159Q357 156 363 156Q368 156 372 159Q375 163 376 168V197Q375 202 372 206Q368 209 363 209H293V265Q292 290 282 311Q272 331 254 343Q237 355 216 355Q194 355 177 343Q159 331 149 311Q139 291 139 265V209H94Q88 209 85 206Q81 202 81 197V-49Q81 -54 85 -58Q88 -62 94 -62H363Q369 -62 372 -58Q376 -54 376 -49V-11Q376 -5 372 -1Q369 2 363 2ZM164 265Q164 283 171 298Q178 312 189 321Q201 330 215 330Q230 330 241 321Q253 312 260 298Q267 283 267 265V209H164V265ZM444 136H224Q218 136 215 132Q211 129 211 123V43Q211 37 215 34Q218 30 224 30H272V9Q272 5 274 2Q275 -1 278 -3Q281 -4 285 -4Q288 -4 292 -2L340 30H444Q450 30 453 34Q457 37 457 43V123Q457 129 453 132Q450 136 444 136ZM431 56H336Q332 56 329 54L297 32V43Q297 49 294 52Q290 56 285 56H237V111H431V56ZM303 84 295 73 300 70 305 82H306L311 70L316 73L308 84L321 82V88L308 87L316 98L311 101L306 89L300 101L295 98L303 87L290 88V82L303 84ZM340 84 331 73 336 70 342 82 347 70 353 73 344 84 358 82V88L344 87L353 98L347 101L342 89L336 101L331 98L339 87L327 88V82L340 84ZM376 84 368 73 373 70 378 82H379L384 70L389 73L381 84L394 82V88L381 87L389 98L384 101L379 89H378L373 101L368 98L376 87L363 88V82L376 84ZM475 338Q470 341 465 339Q460 338 457 333L426 278Q418 316 398 347Q379 378 351 401Q322 423 288 436Q254 448 215 448Q171 448 132 432Q93 415 63 385Q33 356 17 317Q0 278 0 233Q0 227 4 224Q7 220 13 220Q18 220 22 224Q25 227 25 233Q26 272 40 307Q55 341 81 367Q107 393 142 408Q176 423 215 423Q248 423 278 412Q308 402 333 382Q357 363 374 336Q392 310 400 278L353 305Q348 308 343 306Q339 305 336 300Q333 295 334 290Q336 285 341 283L418 238Q421 237 424 236Q431 237 435 243L480 320Q482 325 481 330Q479 335 475 338Z" />
  </g>
</svg>