<?xml version='1.0' encoding='utf-8'?>
<svg xmlns="http://www.w3.org/2000/svg" viewBox="0 0 384 512" width="100" height="100" fill="currentColor">
  <g transform="scale(1, -1) translate(0, -448)">
    <path d="M32 259C32 345 103 416 192 416C281 416 352 345 352 259C352 209 326 150 291 94C257 40 217 -7 192 -34C167 -7 127 40 93 94C58 150 32 209 32 259ZM192 448C86 448 0 364 0 259C0 140 120 -3 170 -57C182 -70 202 -70 214 -57C264 -3 384 140 384 259C384 364 298 448 192 448ZM240 256C240 229 219 208 192 208C165 208 144 229 144 256C144 283 165 304 192 304C219 304 240 283 240 256ZM192 336C148 336 112 300 112 256C112 212 148 176 192 176C236 176 272 212 272 256C272 300 236 336 192 336Z" />
  </g>
</svg>