<?xml version='1.0' encoding='utf-8'?>
<svg xmlns="http://www.w3.org/2000/svg" viewBox="0 0 512 512" width="100" height="100" fill="currentColor">
  <g transform="scale(1, -1) translate(0, -448)">
    <path d="M36 95C41 109 48 123 59 133L240 315L274 349C291 332 325 297 378 245L412 211L378 177L197 -4C186 -15 173 -23 158 -27L30 -63C22 -65 13 -63 7 -56C1 -50 -1 -41 1 -33L36 95ZM92 98C88 94 84 88 83 82L59 -5L146 19C152 21 158 24 163 29L92 98ZM446 245C429 261 395 296 342 349L308 382C335 409 349 424 353 427C366 441 385 449 404 449C423 449 442 441 455 427L491 392C504 378 512 360 512 341C512 321 504 303 491 289C487 286 472 271 446 245Z" />
  </g>
</svg>