<?xml version='1.0' encoding='utf-8'?>
<svg xmlns="http://www.w3.org/2000/svg" viewBox="0 0 384 512" width="100" height="100" fill="currentColor">
  <g transform="scale(1, -1) translate(0, -448)">
    <path d="M48 259C48 336 112 400 192 400C272 400 336 336 336 259C336 214 312 158 277 102C249 57 216 17 192 -10C168 17 135 57 107 102C72 158 48 214 48 259ZM192 448C86 448 0 364 0 259C0 140 120 -3 170 -57C182 -70 202 -70 214 -57C264 -3 384 140 384 259C384 364 298 448 192 448ZM160 256C160 274 174 288 192 288C210 288 224 274 224 256C224 238 210 224 192 224C174 224 160 238 160 256ZM272 256C272 300 236 336 192 336C148 336 112 300 112 256C112 212 148 176 192 176C236 176 272 212 272 256Z" />
  </g>
</svg>