<?xml version='1.0' encoding='utf-8'?>
<svg xmlns="http://www.w3.org/2000/svg" viewBox="0 0 486 512" width="100" height="100" fill="currentColor">
  <g transform="scale(1, -1) translate(0, -448)">
    <path d="M21 230Q12 231 6 237Q0 243 0 252V427Q0 436 6 442Q12 448 21 448H197Q206 448 212 442Q218 436 218 427V252Q218 243 212 237Q206 231 197 230H21ZM175 273V406H43V273H175ZM21 -39Q12 -39 6 -33Q0 -26 0 -17V158Q0 167 6 173Q12 179 21 179H197Q206 179 212 173Q218 167 218 158V-17Q218 -26 212 -33Q206 -39 197 -39H21ZM175 4V136H43V4H175ZM288 230Q279 231 273 237Q267 243 267 252V427Q267 436 273 442Q279 448 288 448H463Q472 448 479 442Q485 436 485 427V252Q485 243 479 237Q472 231 463 230H288ZM442 273V406H310V273H442ZM397 -18V49H464Q473 49 479 55Q485 61 485 70Q485 79 479 85Q473 91 464 91H397V158Q397 167 391 173Q385 179 376 179Q367 179 361 173Q355 167 355 158V91H288Q279 91 273 85Q267 79 267 70Q267 61 273 55Q279 49 288 49H355V-18Q355 -27 361 -33Q367 -39 376 -39Q385 -39 391 -33Q397 -27 397 -18Z" />
  </g>
</svg>