<?xml version='1.0' encoding='utf-8'?>
<svg xmlns="http://www.w3.org/2000/svg" viewBox="0 0 448 512" width="100" height="100" fill="currentColor">
  <g transform="scale(1, -1) translate(0, -448)">
    <path d="M16 416C7 416 0 409 0 400V-16C0 -25 7 -32 16 -32C25 -32 32 -25 32 -16V400C32 409 25 416 16 416ZM80 416C71 416 64 409 64 400V-16C64 -25 71 -32 80 -32C89 -32 96 -25 96 -16V400C96 409 89 416 80 416ZM160 400V-16C160 -25 167 -32 176 -32C185 -32 192 -25 192 -16V400C192 409 185 416 176 416C167 416 160 409 160 400ZM240 416C231 416 224 409 224 400V-16C224 -25 231 -32 240 -32C249 -32 256 -25 256 -16V400C256 409 249 416 240 416ZM320 400V-16C320 -25 327 -32 336 -32C345 -32 352 -25 352 -16V400C352 409 345 416 336 416C327 416 320 409 320 400ZM432 416C423 416 416 409 416 400V-16C416 -25 423 -32 432 -32C441 -32 448 -25 448 -16V400C448 409 441 416 432 416Z" />
  </g>
</svg>