<?xml version='1.0' encoding='utf-8'?>
<svg xmlns="http://www.w3.org/2000/svg" viewBox="0 0 512 512" width="100" height="100" fill="currentColor">
  <g transform="scale(1, -1) translate(0, -448)">
    <path d="M22 52Q12 53 6 59Q0 65 0 75V426Q0 436 6 442Q12 448 22 448H373Q383 448 389 442Q395 436 396 426V276Q395 266 389 260Q383 254 373 253Q364 254 357 260Q351 266 351 276V404H260V318Q260 308 253 302Q247 296 237 295H158Q148 296 142 302Q135 308 135 318V404H44V97H173Q182 97 189 91Q195 84 195 75Q195 65 189 59Q182 53 173 52H22ZM215 340V404H180V340H215ZM360 240Q392 240 419 228Q446 216 467 196Q488 175 500 148Q511 120 512 89Q511 57 500 30Q488 2 467 -18Q446 -39 419 -51Q392 -62 360 -63Q329 -62 301 -51Q274 -39 253 -18Q232 2 221 30Q209 57 209 89Q209 120 221 148Q232 175 253 196Q274 216 301 228Q329 240 360 240ZM360 195Q330 195 306 181Q282 166 268 142Q254 118 254 89Q254 59 268 35Q282 11 306 -3Q330 -17 360 -18Q390 -17 414 -3Q438 11 452 35Q466 59 467 89Q466 118 452 142Q438 166 414 181Q390 195 360 195ZM149 119V134Q155 135 160 137Q171 141 177 150Q184 158 184 170Q184 176 182 182Q180 189 176 194Q168 205 151 209L132 213Q127 215 124 216Q122 217 121 218Q120 219 120 222Q120 224 120 224Q120 225 121 225Q121 227 123 228Q125 230 128 230Q131 231 135 231Q142 231 145 228Q148 225 149 219V215H181V220Q182 231 176 240Q170 249 159 254Q155 256 150 257V274H120V258Q115 256 110 255Q99 250 92 241Q85 232 85 220Q85 205 95 195Q104 187 118 184L136 180Q145 178 147 176Q149 175 149 170Q149 168 149 167Q148 166 148 165Q146 163 143 162Q139 161 135 161Q126 161 122 164Q117 167 115 173V177L82 176V171Q84 151 99 142Q108 136 120 134V119H149H150ZM377 27V87L381 83Q388 77 397 77Q406 77 413 83Q419 90 420 99Q419 108 413 115L370 158Q363 164 354 165Q345 164 338 158L297 117Q290 111 290 101Q290 92 297 85Q304 79 313 79Q322 79 329 85L333 89V27Q333 18 339 11Q345 5 355 5Q365 5 371 11Q377 18 378 27H377Z" />
  </g>
</svg>