<?xml version='1.0' encoding='utf-8'?>
<svg xmlns="http://www.w3.org/2000/svg" viewBox="0 0 640 512" width="100" height="100" fill="currentColor">
  <g transform="scale(1, -1) translate(0, -448)">
    <path d="M171 469C181 489 204 499 226 493L250 487C272 481 287 461 286 438L285 420C287 417 290 415 292 412L310 413C333 414 353 400 359 378L366 353C372 332 361 308 341 298L325 290C324 287 323 283 322 279L332 265C344 246 342 220 326 204L308 187C292 171 267 168 248 180L233 190C229 189 226 188 222 187L214 171C204 151 181 141 159 147L135 153C113 159 98 179 99 202L100 220C98 222 95 225 92 228L75 227C52 225 32 240 26 262L19 286C13 308 24 331 44 342L60 350C61 353 62 357 63 360L53 375C40 394 43 419 59 436L77 453C93 469 118 472 137 460L152 450C155 451 159 452 163 453L171 469ZM238 440 213 447 200 420C196 413 189 408 182 407C173 406 166 404 158 401C151 398 142 399 136 403L111 419L93 402L109 377C114 370 114 361 111 354C110 350 108 347 107 343C106 339 106 335 105 331C104 323 99 316 92 312L66 299L72 275L102 276C110 277 117 273 122 267C127 260 133 255 139 250C146 245 149 237 149 229L147 200L172 193L185 220C189 227 196 232 203 233C212 234 219 236 227 239C234 242 243 241 249 237L274 221L292 238L276 263C271 270 271 278 274 286C275 289 277 293 278 297C279 301 279 305 280 309C281 317 286 324 293 328L319 341L313 365L283 364C275 363 268 367 263 373C258 380 252 385 246 390C239 395 236 403 236 411L238 440ZM162 328C164 340 173 348 184 351C195 354 207 351 215 343C223 335 226 323 223 312C220 300 212 292 201 289C190 286 178 289 169 297C161 305 158 317 162 328ZM355 182C354 204 369 225 391 231L415 237C437 243 460 233 470 213L478 197C482 196 485 195 489 194L504 203C523 216 548 213 564 197L582 179C598 163 600 138 588 119L578 104C579 101 580 97 581 94L597 86C617 75 628 52 622 30L615 6C609 -16 589 -31 566 -29L549 -28C546 -31 543 -34 541 -36L542 -54C543 -77 528 -97 506 -103L482 -109C460 -115 437 -105 427 -85L419 -69C415 -68 412 -67 408 -66L393 -76C374 -88 349 -85 333 -69L315 -52C299 -36 296 -11 309 9L319 23C317 27 316 31 316 34L300 42C280 53 269 76 275 97L282 122C287 144 308 158 331 157L348 156C351 159 353 161 356 164L355 182ZM427 191 403 184 405 155C405 147 402 139 395 134C389 129 383 124 378 117C373 111 366 107 358 108L328 109L321 85L348 72C355 68 360 61 361 53C361 49 362 45 363 41C364 37 366 33 367 30C370 22 369 14 365 7L349 -18L367 -35L392 -19C398 -15 407 -14 414 -17C421 -20 429 -22 437 -23C445 -24 452 -29 456 -36L469 -63L493 -56L492 -27C491 -19 495 -11 501 -6C508 -1 514 4 518 11C523 17 531 21 539 20L569 19L575 43L549 56C542 60 537 67 536 75C535 79 534 83 533 87C532 91 531 94 529 98C526 105 527 114 531 121L548 146L530 163L505 147C498 143 490 142 483 145C475 148 467 150 459 151C451 152 444 157 441 164L427 191ZM417 56C414 67 417 79 425 87C434 95 445 98 457 95C468 92 476 84 479 72C482 61 479 49 471 41C463 33 451 30 440 33C429 36 420 44 417 56Z" />
  </g>
</svg>