<?xml version='1.0' encoding='utf-8'?>
<svg xmlns="http://www.w3.org/2000/svg" viewBox="0 0 640 512" width="100" height="100" fill="currentColor">
  <g transform="scale(1, -1) translate(0, -448)">
    <path d="M384 416H512C530 416 544 402 544 384C544 366 530 352 512 352H398C393 326 376 305 352 295V0H512C530 0 544 -14 544 -32C544 -50 530 -64 512 -64H128C110 -64 96 -50 96 -32C96 -14 110 0 128 0H288V295C265 305 247 326 242 352H128C110 352 96 366 96 384C96 402 110 416 128 416H256C271 435 294 448 320 448C346 448 369 435 384 416ZM440 128H584L512 252L440 128ZM512 32C449 32 397 66 386 111C383 122 387 133 393 143L488 306C493 315 502 320 512 320C522 320 531 315 536 306L631 143C637 133 641 122 638 111C627 66 575 32 512 32ZM127 252 54 128H199L127 252ZM1 111C-2 122 2 133 8 143L103 306C108 315 117 320 127 320C137 320 146 315 151 306L246 143C252 133 256 122 253 111C242 66 190 32 127 32C64 32 12 66 1 111Z" />
  </g>
</svg>