<?xml version='1.0' encoding='utf-8'?>
<svg xmlns="http://www.w3.org/2000/svg" viewBox="0 0 384 512" width="100" height="100" fill="currentColor">
  <g transform="scale(1, -1) translate(0, -448)">
    <path d="M64 400H176V312C176 272 208 240 248 240H336V0C336 -9 329 -16 320 -16H64C55 -16 48 -9 48 0V384C48 393 55 400 64 400ZM224 380 316 288H248C235 288 224 299 224 312V380ZM64 448C29 448 0 419 0 384V0C0 -35 29 -64 64 -64H320C355 -64 384 -35 384 0V261C384 278 377 295 365 307L243 429C231 441 215 448 198 448H64ZM120 192C107 192 96 181 96 168C96 155 107 144 120 144H264C277 144 288 155 288 168C288 181 277 192 264 192H120ZM120 96C107 96 96 85 96 72C96 59 107 48 120 48H264C277 48 288 59 288 72C288 85 277 96 264 96H120Z" />
  </g>
</svg>