<?xml version='1.0' encoding='utf-8'?>
<svg xmlns="http://www.w3.org/2000/svg" viewBox="0 0 512 512" width="100" height="100" fill="currentColor">
  <g transform="scale(1, -1) translate(0, -448)">
    <path d="M253 418Q189 417 138 387Q87 357 57 305Q26 254 26 191Q26 128 57 77Q87 25 138 -5Q189 -35 253 -36Q316 -35 367 -5Q418 25 448 77Q479 128 479 191Q479 254 448 305Q418 357 367 387Q316 417 253 418ZM446 211Q368 231 330 266Q292 302 280 336Q268 370 269 385Q340 378 389 330Q438 282 446 211ZM253 -4Q170 -1 115 54Q60 109 58 191Q59 270 110 324Q160 378 237 385Q236 366 250 325Q264 284 309 242Q354 200 446 178Q440 100 386 49Q332 -2 253 -4ZM267 65Q262 55 253 55Q250 55 247 56Q184 82 153 118Q121 154 110 186Q106 200 119 206Q134 210 140 197Q149 170 177 140Q204 109 259 86Q272 79 267 65Z" />
  </g>
</svg>
