<?xml version='1.0' encoding='utf-8'?>
<svg xmlns="http://www.w3.org/2000/svg" viewBox="0 0 448 512" width="100" height="100" fill="currentColor">
  <g transform="scale(1, -1) translate(0, -448)">
    <path d="M0 352C0 370 14 384 32 384H416C434 384 448 370 448 352C448 334 434 320 416 320H32C14 320 0 334 0 352ZM0 192C0 210 14 224 32 224H416C434 224 448 210 448 192C448 174 434 160 416 160H32C14 160 0 174 0 192ZM448 32C448 14 434 0 416 0H32C14 0 0 14 0 32C0 50 14 64 32 64H416C434 64 448 50 448 32Z" />
  </g>
</svg>