<?xml version='1.0' encoding='utf-8'?>
<svg xmlns="http://www.w3.org/2000/svg" viewBox="0 0 512 512" width="100" height="100" fill="currentColor">
  <g transform="scale(1, -1) translate(0, -448)">
    <path d="M224 448V384C224 375 231 368 240 368H272C281 368 288 375 288 384V448H320C355 448 384 419 384 384V256C384 250 383 245 382 240H130C129 245 128 250 128 256V384C128 419 157 448 192 448H224ZM320 -64C309 -64 298 -61 289 -56C299 -40 304 -20 304 0V128C304 148 299 167 289 184C298 189 309 192 320 192H352V128C352 119 359 112 368 112H400C409 112 416 119 416 128V192H448C483 192 512 163 512 128V0C512 -35 483 -64 448 -64H320ZM0 128C0 163 29 192 64 192H96V128C96 119 103 112 112 112H144C153 112 160 119 160 128V192H192C227 192 256 163 256 128V0C256 -35 227 -64 192 -64H64C29 -64 0 -35 0 0V128Z" />
  </g>
</svg>