<?xml version='1.0' encoding='utf-8'?>
<svg xmlns="http://www.w3.org/2000/svg" viewBox="0 0 512 512" width="100" height="100" fill="currentColor">
  <g transform="scale(1, -1) translate(0, -448)">
    <path d="M420 280V34V280V34Q419 6 400 -13Q381 -32 352 -33H157Q128 -32 109 -13Q90 6 89 34V280Q91 294 105 296Q120 294 121 280V34Q122 19 132 9Q142 -1 157 -1H352Q367 -1 377 9Q387 19 388 34V280Q389 294 404 296Q419 294 420 280ZM449 343Q448 328 433 327H76Q61 328 60 343Q61 358 76 359H170V402Q171 417 186 418H325Q340 417 341 402V359H433Q448 358 449 343ZM203 359H309H203H309V386H203V359ZM231 88V245V88V245Q230 260 215 261Q201 260 199 245V88Q201 74 215 72Q230 74 231 88ZM310 88V245V88V245Q309 260 294 261Q279 260 278 245V88Q279 74 294 72Q309 74 310 88Z" />
  </g>
</svg>
