<?xml version='1.0' encoding='utf-8'?>
<svg xmlns="http://www.w3.org/2000/svg" viewBox="0 0 512 512" width="100" height="100" fill="currentColor">
  <g transform="scale(1, -1) translate(0, -448)">
    <path d="M256 400C371 400 464 307 464 192C464 77 371 -16 256 -16C141 -16 48 77 48 192C48 307 141 400 256 400ZM256 -64C397 -64 512 51 512 192C512 333 397 448 256 448C115 448 0 333 0 192C0 51 115 -64 256 -64ZM167 281C158 272 158 256 167 247L222 192L167 137C158 128 158 112 167 103C176 94 192 94 201 103L256 158L311 103C320 94 336 94 345 103C354 113 354 128 345 137L290 192L345 247C354 256 354 272 345 281C335 290 320 290 311 281L256 226L201 281C192 290 176 290 167 281Z" />
  </g>
</svg>