<?xml version='1.0' encoding='utf-8'?>
<svg xmlns="http://www.w3.org/2000/svg" viewBox="0 0 448 512" width="100" height="100" fill="currentColor">
  <g transform="scale(1, -1) translate(0, -448)">
    <path d="M248 368V216H400V352C400 361 393 368 384 368H248ZM200 368H64C55 368 48 361 48 352V216H200V368ZM0 168V352C0 387 29 416 64 416H384C419 416 448 387 448 352V32C448 -3 419 -32 384 -32H64C29 -32 0 -3 0 32V168ZM400 168H248V16H384C393 16 400 23 400 32V168ZM200 16V168H48V32C48 23 55 16 64 16H200Z" />
  </g>
</svg>