<?xml version='1.0' encoding='utf-8'?>
<svg xmlns="http://www.w3.org/2000/svg" viewBox="0 0 512 512" width="100" height="100" fill="currentColor">
  <g transform="scale(1, -1) translate(0, -448)">
    <path d="M407 146Q371 156 338 139Q337 139 337 138Q337 138 336 138L273 225L403 393Q411 405 400 415Q388 423 378 412L253 252L136 414Q127 425 114 418Q103 408 110 395L233 226L167 141Q150 149 131 149Q92 148 66 122Q40 97 39 58Q40 19 66 -7Q92 -32 131 -33Q169 -32 195 -7Q221 19 222 58Q221 97 194 123L253 199L311 117Q299 103 294 84Q284 48 301 15Q320 -18 355 -29Q368 -33 381 -33Q411 -32 435 -15Q459 3 469 33Q479 70 462 102Q444 134 407 146ZM131 -2Q106 -1 89 16Q72 33 71 58Q72 83 89 99Q106 116 131 117Q156 116 172 99Q189 83 190 58Q189 33 172 16Q156 -1 131 -2ZM438 42Q430 18 410 7Q389 -5 365 2Q341 9 329 30Q318 52 325 75Q332 99 353 110Q367 118 382 118Q390 118 398 115Q422 108 433 87Q445 66 438 42Z" />
  </g>
</svg>
