<?xml version='1.0' encoding='utf-8'?>
<svg xmlns="http://www.w3.org/2000/svg" viewBox="0 0 384 512" width="100" height="100" fill="currentColor">
  <g transform="scale(1, -1) translate(0, -448)">
    <path d="M64 416H192V320C192 285 221 256 256 256H352V0C352 -18 338 -32 320 -32H64C46 -32 32 -18 32 0V384C32 402 46 416 64 416ZM224 403 339 288H256C238 288 224 302 224 320V403ZM64 448C29 448 0 419 0 384V0C0 -35 29 -64 64 -64H320C355 -64 384 -35 384 0V261C384 278 377 295 365 307L243 429C231 441 215 448 198 448H64ZM112 192C103 192 96 185 96 176C96 167 103 160 112 160H272C281 160 288 167 288 176C288 185 281 192 272 192H112ZM112 96C103 96 96 89 96 80C96 71 103 64 112 64H272C281 64 288 71 288 80C288 89 281 96 272 96H112Z" />
  </g>
</svg>