<?xml version='1.0' encoding='utf-8'?>
<svg xmlns="http://www.w3.org/2000/svg" viewBox="0 0 448 512" width="100" height="100" fill="currentColor">
  <g transform="scale(1, -1) translate(0, -448)">
    <path d="M64 416C29 416 0 387 0 352V32C0 -3 29 -32 64 -32H384C419 -32 448 -3 448 32V275C448 292 441 308 429 320L352 397C340 409 324 416 307 416H64ZM96 320C96 338 110 352 128 352H288C306 352 320 338 320 320V256C320 238 306 224 288 224H128C110 224 96 238 96 256V320ZM224 160C259 160 288 131 288 96C288 61 259 32 224 32C189 32 160 61 160 96C160 131 189 160 224 160Z" />
  </g>
</svg>