<?xml version='1.0' encoding='utf-8'?>
<svg xmlns="http://www.w3.org/2000/svg" viewBox="0 0 512 512" width="100" height="100" fill="currentColor">
  <g transform="scale(1, -1) translate(0, -448)">
    <path d="M256 -64C397 -64 512 51 512 192C512 333 397 448 256 448C115 448 0 333 0 192C0 51 115 -64 256 -64ZM167 281C176 290 192 290 201 281L256 226L311 281C320 290 336 290 345 281C354 272 354 256 345 247L290 192L345 137C354 128 354 112 345 103C335 94 320 94 311 103L256 158L201 103C192 94 176 94 167 103C158 113 158 128 167 137L222 192L167 247C158 256 158 272 167 281Z" />
  </g>
</svg>