<?xml version='1.0' encoding='utf-8'?>
<svg xmlns="http://www.w3.org/2000/svg" viewBox="0 0 768 512" width="100" height="100" fill="currentColor">
  <g transform="scale(1, -1) translate(0, -448)">
    <path d="M326 448 265 386Q237 379 215 359L183 331Q174 323 162 318Q151 314 138 314H115V160Q133 160 150 152Q167 145 180 132L223 89L231 81L264 48Q269 43 277 43Q285 43 291 48Q294 52 295 55Q298 62 303 67Q309 72 316 74Q323 75 330 73Q337 71 343 66L356 53Q363 46 372 44Q381 42 390 44Q399 46 406 53Q411 58 414 64Q416 70 416 77Q417 85 421 91Q425 98 433 101Q440 104 448 103Q455 103 462 98Q471 92 481 93Q491 94 499 102Q507 111 507 122Q507 133 499 142L408 233L365 193Q348 178 328 173Q307 168 286 173Q266 178 249 192Q230 210 223 233Q217 256 222 279Q228 302 247 320L331 400Q355 423 387 436Q418 448 452 448Q486 448 516 437Q545 425 569 404L605 372H748Q756 371 762 366Q767 360 767 353V103Q767 92 762 84Q757 75 748 70Q739 65 729 65H690Q680 65 671 70Q662 75 657 84H555Q549 71 539 61Q523 46 504 40Q484 34 464 37Q457 24 446 13Q429 -4 408 -10Q387 -17 366 -13Q344 -10 326 3Q310 -10 292 -13Q273 -17 255 -12Q237 -6 222 8L190 40L181 49L139 91Q128 102 114 103Q114 92 109 83Q104 75 95 70Q87 65 76 64H38Q27 65 18 70Q10 75 4 83Q0 92 0 103V353Q0 361 5 366Q10 371 18 372H138Q142 371 144 374L176 402Q202 425 233 436Q264 448 298 448H310Q318 448 326 448ZM652 141V314H595Q584 314 576 322L531 361Q515 376 495 383Q474 391 452 391Q430 391 408 383Q387 374 370 359L286 279Q280 273 278 266Q276 258 278 250Q280 242 287 236Q295 229 306 229Q317 229 326 237L412 316Q421 325 433 324Q444 324 453 315Q460 305 460 294Q460 282 451 274L450 273L539 184Q548 175 554 164Q559 153 562 142H652ZM76 122Q76 130 71 136Q65 141 57 141Q49 141 44 136Q38 130 38 122Q38 114 44 109Q49 103 57 103Q65 103 71 109Q76 114 76 122ZM710 103Q718 103 723 109Q729 114 729 122Q729 130 723 136Q718 141 710 141Q702 141 696 136Q691 130 691 122Q691 114 696 109Q702 103 710 103Z" />
  </g>
</svg>