<?xml version='1.0' encoding='utf-8'?>
<svg xmlns="http://www.w3.org/2000/svg" viewBox="0 0 448 512" width="100" height="100" fill="currentColor">
  <g transform="scale(1, -1) translate(0, -448)">
    <path d="M64 384C46 384 32 370 32 352V32C32 14 46 0 64 0H384C402 0 416 14 416 32V352C416 370 402 384 384 384H64ZM0 352C0 387 29 416 64 416H384C419 416 448 387 448 352V32C448 -3 419 -32 384 -32H64C29 -32 0 -3 0 32V352ZM208 96V176H128C119 176 112 183 112 192C112 201 119 208 128 208H208V288C208 297 215 304 224 304C233 304 240 297 240 288V208H320C329 208 336 201 336 192C336 183 329 176 320 176H240V96C240 87 233 80 224 80C215 80 208 87 208 96Z" />
  </g>
</svg>