<?xml version='1.0' encoding='utf-8'?>
<svg xmlns="http://www.w3.org/2000/svg" viewBox="0 0 512 512" width="100" height="100" fill="currentColor">
  <g transform="scale(1, -1) translate(0, -448)">
    <path d="M64 400C64 409 71 416 80 416H144C153 416 160 409 160 400C160 391 153 384 144 384H80C71 384 64 391 64 400ZM192 320H64C46 320 32 306 32 288V256H189C208 269 231 277 256 277C281 277 304 269 324 256H480V336C480 354 466 368 448 368H277C270 368 264 366 258 362L211 326C206 322 199 320 192 320ZM32 224V32C32 14 46 0 64 0H448C466 0 480 14 480 32V224H354C366 206 373 184 373 160C373 95 321 43 256 43C191 43 139 95 139 160C139 184 146 206 158 224H32ZM0 32V288C0 323 29 352 64 352H192L239 387C250 395 264 400 277 400H448C483 400 512 371 512 336V32C512 -3 483 -32 448 -32H64C29 -32 0 -3 0 32ZM344 160C344 209 305 248 256 248C207 248 168 209 168 160C168 111 207 72 256 72C305 72 344 111 344 160Z" />
  </g>
</svg>