<?xml version='1.0' encoding='utf-8'?>
<svg xmlns="http://www.w3.org/2000/svg" viewBox="0 0 512 512" width="100" height="100" fill="currentColor">
  <g transform="scale(1, -1) translate(0, -448)">
    <path d="M404 416C393 416 383 412 376 404L317 346L410 253L468 311C476 319 480 329 480 340C480 351 476 361 468 368L433 404C425 412 415 416 404 416ZM93 122 186 29 387 230 294 323 93 122ZM72 97C70 94 68 90 67 86L36 -29L150 3C154 4 158 6 161 8L72 97ZM353 427C366 440 385 448 404 448C423 448 442 440 455 427L491 391C504 378 512 359 512 340C512 321 504 302 491 289L197 -5C186 -16 173 -24 158 -28L30 -63C22 -65 13 -63 7 -57C1 -51 -2 -42 1 -34L36 94C41 109 48 122 59 133L353 427Z" />
  </g>
</svg>