<?xml version='1.0' encoding='utf-8'?>
<svg xmlns="http://www.w3.org/2000/svg" viewBox="0 0 384 512" width="100" height="100" fill="currentColor">
  <g transform="scale(1, -1) translate(0, -448)">
    <path d="M0 384C0 419 29 448 64 448H214C231 448 247 441 259 429L365 323C377 311 384 294 384 277V0C384 -35 355 -64 320 -64H64C29 -64 0 -35 0 0V384ZM208 389V296C208 283 219 272 232 272H326L208 389ZM154 152C163 162 162 178 152 186C142 195 126 194 118 184L70 128C62 119 62 105 70 96L118 40C126 30 142 29 152 38C162 46 163 62 154 72L120 112L154 152ZM266 184C258 194 242 195 232 186C222 178 221 162 230 152L264 112L230 72C221 61 222 46 232 38C243 29 258 30 266 40L314 96C322 105 322 119 314 128L266 184Z" />
  </g>
</svg>