<?xml version='1.0' encoding='utf-8'?>
<svg xmlns="http://www.w3.org/2000/svg" viewBox="0 0 576 512" width="100" height="100" fill="currentColor">
  <g transform="scale(1, -1) translate(0, -448)">
    <path d="M64 384C46 384 32 370 32 352V64C32 46 46 32 64 32C68 77 106 112 152 112C198 112 236 77 240 32H336C339 63 358 89 384 102V352C384 370 370 384 352 384H64ZM416 160V112C419 112 421 112 424 112C470 112 508 77 512 32C530 32 544 46 544 64V160H416ZM544 192V220C544 229 541 237 535 243L499 279C493 285 485 288 476 288H416V192H544ZM67 0H64C29 0 0 29 0 64V352C0 387 29 416 64 416H352C387 416 416 387 416 352V320H476C493 320 509 313 521 301L557 265C569 253 576 237 576 220V64C576 29 547 0 512 0H509C498 -37 464 -64 424 -64C384 -64 350 -37 339 0H237C226 -37 192 -64 152 -64C112 -64 78 -37 67 0ZM152 -32C183 -32 208 -7 208 24C208 55 183 80 152 80C121 80 96 55 96 24C96 -7 121 -32 152 -32ZM424 -32C455 -32 480 -7 480 24C480 55 455 80 424 80C393 80 368 55 368 24C368 -7 393 -32 424 -32Z" />
  </g>
</svg>