<?xml version='1.0' encoding='utf-8'?>
<svg xmlns="http://www.w3.org/2000/svg" viewBox="0 0 512 512" width="100" height="100" fill="currentColor">
  <g transform="scale(1, -1) translate(0, -448)">
    <path d="M413 418H219H413H219Q213 418 208 413L104 309Q99 304 99 297V-19Q100 -33 115 -35H413Q428 -33 429 -19V402Q428 417 413 418ZM210 370V304V370V304H144L210 370ZM397 -2H131H397H131V272H225Q240 274 241 288V386H397V-2ZM178 93Q173 79 187 72Q190 71 193 71Q203 71 208 80L225 120H301L322 79Q330 67 343 72Q355 80 350 94L273 244Q268 253 258 253Q248 252 244 243L178 93ZM260 200 284 152 260 200 284 152H239L260 200Z" />
  </g>
</svg>
