<?xml version='1.0' encoding='utf-8'?>
<svg xmlns="http://www.w3.org/2000/svg" viewBox="0 0 501 512" width="100" height="100" fill="currentColor">
  <g transform="scale(1, -1) translate(0, -448)">
    <path d="M500 187Q500 213 496 239H255V140H393Q388 116 375 96Q362 76 342 63L424 -1Q461 33 480 81Q500 129 500 187ZM255 -62Q307 -62 350 -46Q392 -30 424 -1L342 63Q325 51 303 45Q281 38 255 38Q221 39 193 52Q164 66 143 90Q122 113 111 143L27 78Q49 35 84 4Q119 -28 162 -45Q206 -62 255 -62ZM111 144Q103 168 103 193Q103 218 111 242L27 308Q9 271 3 232Q-2 193 3 154Q9 115 27 78L111 144ZM255 347Q282 348 308 338Q333 328 353 309L426 382Q391 415 347 432Q303 448 255 448Q206 448 162 431Q119 414 84 383Q49 351 27 308L111 242Q122 273 143 296Q164 320 193 333Q221 347 255 347Z" />
  </g>
</svg>