<?xml version='1.0' encoding='utf-8'?>
<svg xmlns="http://www.w3.org/2000/svg" viewBox="0 0 486 512" width="100" height="100" fill="currentColor">
  <g transform="scale(1, -1) translate(0, -448)">
    <path d="M329 -38Q318 -37 309 -30Q301 -23 298 -12L296 2Q296 3 294 4Q294 5 293 5Q292 5 292 5L279 0Q273 -2 268 -2Q259 -2 252 2Q245 6 241 14L220 50Q214 60 216 71Q218 82 227 90L238 98Q239 100 239 101Q239 103 238 104L227 112Q218 120 216 131Q214 142 220 152L241 188Q245 196 252 200Q259 204 268 204Q273 204 275 204Q276 204 277 203Q277 203 279 202L292 197Q292 197 293 197Q294 197 295 198Q296 198 296 200L299 214Q301 225 309 232Q318 240 330 240H371Q383 240 391 232Q400 225 402 214L404 200Q404 199 406 198Q406 197 408 197Q409 197 409 197L422 202Q427 204 433 204Q441 204 448 200Q456 196 460 188L481 152Q486 143 485 132Q483 122 475 114L473 113L463 104Q462 103 462 101Q462 100 463 99L474 90Q482 82 484 71Q486 61 481 50L460 14Q456 7 448 3Q441 -2 433 -2Q427 -2 422 0L409 5Q408 5 408 5Q407 5 406 5Q405 4 405 2L402 -11Q400 -23 392 -30Q383 -37 371 -37H330L329 -38ZM361 5 362 9Q364 19 370 28Q375 36 384 42Q395 48 408 48Q413 48 417 47Q420 46 424 45L427 44L439 63L436 65Q427 72 423 81Q419 91 419 101Q419 112 423 121Q427 130 436 137L439 139L427 158L424 157Q416 154 408 154Q395 154 384 161Q375 166 369 174Q364 183 362 193L361 197H339L338 193Q337 183 331 174Q325 166 316 161Q305 154 293 154Q287 154 284 155Q280 156 277 157L273 158L262 139L265 137Q273 130 277 121Q282 112 282 101Q282 91 277 81Q273 72 265 65L262 63L273 44L277 45Q285 48 293 48Q305 48 316 42Q325 36 331 28Q337 19 338 9L339 5H361ZM350 161Q367 162 381 154Q395 146 404 132Q413 117 413 101Q413 85 404 70Q396 56 381 48Q367 40 350 41Q333 40 319 48Q305 55 296 70Q287 84 287 101Q287 117 296 132Q304 146 319 154Q333 162 350 161ZM350 118Q343 118 338 113Q333 108 332 101Q333 93 338 88Q343 83 350 83Q358 83 363 88Q368 93 368 101Q368 108 363 113Q358 118 350 118ZM21 72Q12 72 6 78Q0 84 0 93V427Q0 436 6 442Q12 448 21 448H355Q364 448 370 442Q376 436 376 427V285Q376 276 370 270Q364 264 355 263Q346 264 340 270Q334 276 334 285V406H248V324Q247 315 241 309Q235 303 226 303H150Q141 303 135 309Q129 315 129 324V406H43V115H180Q189 114 195 108Q201 102 202 93Q201 84 195 78Q189 72 180 72H21ZM205 345V406H172V345H205ZM130 135V150Q135 151 140 152Q150 157 156 165Q162 173 162 184Q162 189 160 196Q158 202 155 207Q147 217 131 221L113 225Q108 227 106 228Q104 229 103 229Q102 230 102 233Q101 235 102 235Q102 236 102 237Q103 238 105 239Q107 241 109 241Q112 242 116 242Q123 242 125 240Q128 236 129 231V227H160V231Q160 242 154 250Q149 259 139 263Q135 265 130 267V283H102V267Q97 266 92 264Q82 260 75 251Q69 242 69 231Q69 216 78 208Q86 199 100 197L118 193Q126 191 127 189Q129 189 129 184Q129 181 129 181Q129 180 128 179Q126 177 123 176Q120 175 116 175Q108 175 103 178Q99 181 97 186L96 190L65 189V185Q67 166 81 157Q89 152 101 150V136H129V135Z" />
  </g>
</svg>