<?xml version='1.0' encoding='utf-8'?>
<svg xmlns="http://www.w3.org/2000/svg" viewBox="0 0 512 512" width="100" height="100" fill="currentColor">
  <g transform="scale(1, -1) translate(0, -448)">
    <path d="M393 324Q398 320 398 314V139Q397 132 393 128Q389 124 383 124Q376 124 372 128Q368 132 367 139V290H286Q272 290 261 296Q251 303 246 314Q240 325 240 339V418H30V-8H150Q156 -8 160 -12Q164 -16 165 -23Q164 -29 160 -33Q156 -38 150 -38H15Q8 -37 4 -33Q0 -29 0 -23V433Q0 440 4 444Q8 448 15 448H268Q275 448 279 444L393 325V324ZM299 92H268L243 47L219 92H188L226 27L187 -39H218L243 7L268 -39H299L260 27L298 92ZM340 92H313V-39H397V-17H340V92ZM463 39Q451 42 444 47Q438 51 438 57Q438 64 444 68Q449 72 459 72Q469 72 475 67Q481 62 481 53H507Q507 65 501 74Q496 83 485 89Q474 94 460 94Q445 94 435 89Q423 84 417 76Q411 68 411 57Q411 37 434 25Q442 20 456 16Q470 11 475 7Q481 3 481 -5Q481 -12 475 -16Q470 -20 460 -20Q434 -20 434 2H407Q407 -11 414 -20Q420 -30 433 -35Q445 -41 460 -41Q482 -41 495 -31Q507 -21 508 -5Q508 11 497 21Q487 31 464 38L463 39Z" />
  </g>
</svg>