<?xml version='1.0' encoding='utf-8'?>
<svg xmlns="http://www.w3.org/2000/svg" viewBox="0 0 512 512" width="100" height="100" fill="currentColor">
  <g transform="scale(1, -1) translate(0, -448)">
    <path d="M32 384C14 384 0 370 0 352C0 334 14 320 32 320H119C131 292 159 272 192 272C225 272 253 292 265 320H480C498 320 512 334 512 352C512 370 498 384 480 384H265C253 412 225 432 192 432C159 432 131 412 119 384H32ZM32 224C14 224 0 210 0 192C0 174 14 160 32 160H279C291 132 319 112 352 112C385 112 413 132 425 160H480C498 160 512 174 512 192C512 210 498 224 480 224H425C413 252 385 272 352 272C319 272 291 252 279 224H32ZM32 64C14 64 0 50 0 32C0 14 14 0 32 0H87C99 -28 127 -48 160 -48C193 -48 221 -28 233 0H480C498 0 512 14 512 32C512 50 498 64 480 64H233C221 92 193 112 160 112C127 112 99 92 87 64H32Z" />
  </g>
</svg>