<?xml version='1.0' encoding='utf-8'?>
<svg xmlns="http://www.w3.org/2000/svg" viewBox="0 0 512 512" width="100" height="100" fill="currentColor">
  <g transform="scale(1, -1) translate(0, -448)">
    <path d="M476 -2 351 123 476 -2 351 123Q391 172 393 239Q391 316 339 367Q288 419 211 421Q134 419 82 368Q31 316 29 239Q31 162 82 110Q134 59 211 57Q279 59 328 100L453 -25Q458 -30 464 -29Q471 -29 476 -25Q485 -14 476 -2ZM211 89Q147 91 105 133Q63 176 61 239Q63 303 105 345Q147 387 211 389Q274 387 317 345Q359 303 361 239Q359 175 317 133Q274 91 211 89ZM310 239Q309 224 294 223H227V156Q226 141 211 140Q196 141 195 156V223H128Q113 224 112 239Q113 254 128 255H195V322Q196 337 211 338Q226 337 227 322V255H294Q309 254 310 239Z" />
  </g>
</svg>
