<?xml version='1.0' encoding='utf-8'?>
<svg xmlns="http://www.w3.org/2000/svg" viewBox="0 0 640 512" width="100" height="100" fill="currentColor">
  <g transform="scale(1, -1) translate(0, -448)">
    <path d="M0 440C0 453 11 464 24 464H69C96 464 120 445 124 418L125 416H525C550 416 569 393 564 368L538 231C530 190 493 160 451 160H171L177 132C179 120 189 112 200 112H456C469 112 480 101 480 88C480 75 469 64 456 64H200C165 64 136 89 129 123L77 409C77 413 73 416 69 416H24C11 416 0 427 0 440ZM163 208H451C470 208 487 222 491 240L515 368H134L163 208ZM208 32C235 32 256 11 256 -16C256 -43 235 -64 208 -64C181 -64 160 -43 160 -16C160 11 181 32 208 32ZM432 32C459 32 480 11 480 -16C480 -43 459 -64 432 -64C405 -64 384 -43 384 -16C384 11 405 32 432 32Z" />
  </g>
</svg>