<?xml version='1.0' encoding='utf-8'?>
<svg xmlns="http://www.w3.org/2000/svg" viewBox="0 0 576 512" width="100" height="100" fill="currentColor">
  <g transform="scale(1, -1) translate(0, -448)">
    <path d="M208 400H96C87 400 80 393 80 384V0C80 -9 87 -16 96 -16H176V-64H96C61 -64 32 -35 32 0V384C32 419 61 448 96 448H230C247 448 263 441 275 429L397 307C409 295 416 278 416 261V112H368V240H280C240 240 208 272 208 312V400ZM348 288 256 380V312C256 299 267 288 280 288H348ZM240 68H272C305 68 332 41 332 8C332 -25 305 -52 272 -52H260V-80C260 -91 251 -100 240 -100C229 -100 220 -91 220 -80V48C220 59 229 68 240 68ZM272 -12C283 -12 292 -3 292 8C292 19 283 28 272 28H260V-12H272ZM368 68H400C429 68 452 45 452 16V-48C452 -77 429 -100 400 -100H368C357 -100 348 -91 348 -80V48C348 59 357 68 368 68ZM400 -60C407 -60 412 -55 412 -48V16C412 23 407 28 400 28H388V-60H400ZM476 48C476 59 485 68 496 68H544C555 68 564 59 564 48C564 37 555 28 544 28H516V4H544C555 4 564 -5 564 -16C564 -27 555 -36 544 -36H516V-80C516 -91 507 -100 496 -100C485 -100 476 -91 476 -80V48Z" />
  </g>
</svg>