<?xml version='1.0' encoding='utf-8'?>
<svg xmlns="http://www.w3.org/2000/svg" viewBox="0 0 512 512" width="100" height="100" fill="currentColor">
  <g transform="scale(1, -1) translate(0, -448)">
    <path d="M455 403 467 391C479 378 479 358 467 345L440 319L383 376L409 403C422 415 442 415 455 403ZM189 182 360 353 417 296 246 125C242 121 237 118 231 116L165 101L181 167C182 173 185 178 189 182ZM387 425 166 205C158 196 152 186 149 174L128 83C127 78 129 72 133 69C137 65 142 63 148 64L238 85C250 88 261 94 269 102L489 323C514 348 514 388 489 413L477 425C452 450 412 450 387 425ZM80 384C36 384 0 348 0 304V16C0 -28 36 -64 80 -64H368C412 -64 448 -28 448 16V144C448 153 441 160 432 160C423 160 416 153 416 144V16C416 -11 395 -32 368 -32H80C54 -32 32 -11 32 16V304C32 330 54 352 80 352H208C217 352 224 359 224 368C224 377 217 384 208 384H80Z" />
  </g>
</svg>