<?xml version='1.0' encoding='utf-8'?>
<svg xmlns="http://www.w3.org/2000/svg" viewBox="0 0 512 512" width="100" height="100" fill="currentColor">
  <g transform="scale(1, -1) translate(0, -448)">
    <path d="M37 282 246 170 37 282 246 170Q250 168 254 168Q258 168 262 170L471 282Q479 286 479 296Q479 305 471 310L261 418Q254 421 247 418L37 310Q29 305 29 296Q29 286 37 282ZM254 386 429 295 254 386 429 295 254 202 79 295 254 386ZM477 206Q483 193 471 185L262 73Q258 71 254 71Q250 71 246 73L37 185Q25 193 31 206Q39 219 52 213L254 105L456 213Q469 219 477 206ZM477 106Q483 92 471 84L262 -28Q258 -30 254 -30Q250 -30 246 -28L37 84Q25 92 31 106Q39 118 52 112L254 4L456 112Q469 118 477 106Z" />
  </g>
</svg>
