<?xml version='1.0' encoding='utf-8'?>
<svg xmlns="http://www.w3.org/2000/svg" viewBox="0 0 576 512" width="100" height="100" fill="currentColor">
  <g transform="scale(1, -1) translate(0, -448)">
    <path d="M0 352C0 387 29 416 64 416H352C387 416 416 387 416 352V320H467C484 320 500 313 512 301L557 256C569 244 576 228 576 211V64C576 29 547 0 512 0H509C498 -37 464 -64 424 -64C384 -64 350 -37 339 0H237C226 -37 192 -64 152 -64C112 -64 78 -37 67 0H64C29 0 0 29 0 64V352ZM512 160V211L467 256H416V160H512ZM192 24C192 46 174 64 152 64C130 64 112 46 112 24C112 2 130 -16 152 -16C174 -16 192 2 192 24ZM424 -16C446 -16 464 2 464 24C464 46 446 64 424 64C402 64 384 46 384 24C384 2 402 -16 424 -16Z" />
  </g>
</svg>