<?xml version='1.0' encoding='utf-8'?>
<svg xmlns="http://www.w3.org/2000/svg" viewBox="0 0 543 512" width="100" height="100" fill="currentColor">
  <g transform="scale(1, -1) translate(0, -448)">
    <path d="M394 324Q398 320 398 314V139Q398 132 394 128Q390 124 383 124Q376 124 372 128Q368 132 368 139V290H286Q272 290 262 296Q252 303 246 314Q241 325 241 339V418H115V385H152V343H115V307H152V265H115V229H152V187H115V151H152V109H115V73H152V31H112V67H75V109H112V145H75V188H112V224H75V267H112V303H75V346H112V382H75V419H30V-7H75V30H115V-7H188Q194 -7 198 -11Q203 -16 203 -22Q203 -29 198 -33Q194 -37 188 -37H15Q9 -37 4 -33Q0 -29 0 -22V433Q0 440 4 444Q9 448 15 448H269Q275 448 279 444L394 325V324ZM328 72V89H219V65H291L219 -38V-56H329V-32H256L328 72ZM350 -56H380V89H350V-56ZM518 41Q518 20 504 8Q489 -5 463 -5H437V-56H407V89H464Q480 89 493 83Q505 77 512 66Q518 55 518 41ZM488 41Q488 52 482 58Q476 65 465 65H437V19H464Q476 19 482 25Q488 30 488 41Z" />
  </g>
</svg>