<?xml version='1.0' encoding='utf-8'?>
<svg xmlns="http://www.w3.org/2000/svg" viewBox="0 0 512 512" width="100" height="100" fill="currentColor">
  <g transform="scale(1, -1) translate(0, -448)">
    <path d="M256 416C380 416 480 316 480 192C480 68 380 -32 256 -32C132 -32 32 68 32 192C32 316 132 416 256 416ZM256 -64C397 -64 512 51 512 192C512 333 397 448 256 448C115 448 0 333 0 192C0 51 115 -64 256 -64ZM280 352C280 365 269 376 256 376C243 376 232 365 232 352C232 339 243 328 256 328C269 328 280 339 280 352ZM224 96C224 114 238 128 256 128C274 128 288 114 288 96C288 78 274 64 256 64C238 64 224 78 224 96ZM320 96C320 115 312 131 300 143L382 296C386 304 383 314 376 318C368 322 358 319 354 312L271 158C266 159 261 160 256 160C221 160 192 131 192 96C192 61 221 32 256 32C291 32 320 61 320 96ZM168 304C168 317 157 328 144 328C131 328 120 317 120 304C120 291 131 280 144 280C157 280 168 291 168 304ZM96 168C109 168 120 179 120 192C120 205 109 216 96 216C83 216 72 205 72 192C72 179 83 168 96 168ZM440 192C440 205 429 216 416 216C403 216 392 205 392 192C392 179 403 168 416 168C429 168 440 179 440 192Z" />
  </g>
</svg>