<?xml version='1.0' encoding='utf-8'?>
<svg xmlns="http://www.w3.org/2000/svg" viewBox="0 0 512 512" width="100" height="100" fill="currentColor">
  <g transform="scale(1, -1) translate(0, -448)">
    <path d="M420 43V402V43V402Q419 417 404 418H45Q30 417 29 402V43Q30 28 45 27H404Q419 28 420 43ZM388 386V238V386V238L258 150L171 233Q161 241 151 234L61 163V386H388ZM61 59V125V59V125L159 203L246 120Q255 113 265 119L388 202V59H61ZM482 282V-20V282V-20Q481 -34 466 -36H107Q92 -34 91 -20Q92 -5 107 -4H450V282Q451 297 466 298Q481 296 482 282ZM301 236Q326 237 343 254Q360 271 361 297Q360 322 343 339Q326 357 301 357Q275 357 258 339Q241 322 241 297Q241 272 258 254Q275 237 301 236ZM301 325Q313 325 321 317Q329 309 329 297Q329 285 321 277Q313 269 301 268Q289 269 281 277Q273 285 273 297Q273 308 281 317Q289 325 301 325Z" />
  </g>
</svg>
