<?xml version='1.0' encoding='utf-8'?>
<svg xmlns="http://www.w3.org/2000/svg" viewBox="0 0 512 512" width="100" height="100" fill="currentColor">
  <g transform="scale(1, -1) translate(0, -448)">
    <path d="M144 405C141 413 132 418 124 415L117 414C64 399 22 349 34 291C68 130 194 4 355 -30C413 -42 463 0 478 53L479 60C482 68 477 77 469 80L376 119C369 122 361 120 356 114L319 70C315 64 307 62 300 65C225 101 165 163 132 239C129 246 131 253 137 258L178 292C184 297 186 305 183 312L144 405ZM115 446C139 453 164 440 174 418L213 324C221 304 215 281 199 267L166 241C195 180 244 131 303 99L331 134C345 151 368 157 388 149L482 110C505 100 517 75 510 51L509 45C491 -20 427 -78 348 -61C175 -25 39 111 3 284C-14 363 44 427 109 444L115 446Z" />
  </g>
</svg>