<?xml version='1.0' encoding='utf-8'?>
<svg xmlns="http://www.w3.org/2000/svg" viewBox="0 0 486 512" width="100" height="100" fill="currentColor">
  <g transform="scale(1, -1) translate(0, -448)">
    <path d="M409 -47Q399 -47 393 -41Q387 -34 387 -25Q387 -17 393 -10L411 7H75Q66 7 60 13Q54 19 53 28V374L37 357Q30 351 21 350Q12 351 6 357Q0 363 0 372Q0 380 6 387L60 442Q67 448 76 448Q85 448 91 442L145 387Q151 380 151 372Q151 363 145 357Q138 351 130 350Q121 351 115 357L96 375V50H411L393 67Q387 74 387 82Q387 91 393 97Q399 104 409 104Q417 104 423 98L478 44Q485 37 485 28Q485 19 478 13L423 -41Q417 -47 409 -47ZM485 114V144Q485 153 479 159Q473 165 464 165Q454 165 448 159Q442 153 442 144V114Q442 105 448 99Q454 93 464 93Q473 93 479 99Q485 105 485 114ZM485 296V347Q485 356 479 362Q473 368 464 368Q454 368 448 362Q442 356 442 347V296Q442 287 448 281Q454 275 464 274Q473 275 479 281Q485 287 485 296ZM485 194V245Q485 254 479 260Q473 266 464 267Q454 266 448 260Q442 254 442 245V194Q442 185 448 179Q454 173 464 173Q473 173 479 179Q485 185 485 194ZM485 397V427Q485 436 479 442Q473 448 464 448H434Q425 448 419 442Q413 436 412 427Q413 418 419 412Q425 406 434 405H442V397Q442 388 448 382Q454 376 464 376Q473 376 479 382Q485 388 485 397ZM386 405Q395 406 401 412Q407 418 407 427Q407 436 401 442Q395 448 386 448H338Q329 448 323 442Q317 436 316 427Q317 418 323 412Q329 406 338 405H386ZM290 405Q299 406 305 412Q311 418 311 427Q311 436 305 442Q299 448 290 448H242Q233 448 227 442Q221 436 220 427Q221 418 227 412Q233 406 242 405H290ZM194 405Q203 406 209 412Q215 418 215 427Q215 436 209 442Q203 448 194 448H164Q155 448 149 442Q143 436 143 427Q143 418 149 412Q155 406 164 405H194ZM390 183 392 186 380 199 376 195Q369 186 365 183Q362 181 361 181Q361 181 359 184Q357 188 354 198L345 227Q352 237 359 246Q364 252 367 253Q369 254 369 254Q371 254 372 253Q374 251 376 250Q378 248 381 248Q387 248 392 254Q397 259 398 267Q398 275 393 281Q388 286 381 286Q371 286 361 278Q352 270 338 249L336 254Q332 267 327 276Q322 286 313 286Q306 286 298 280Q291 274 284 267Q277 259 272 252L270 249L283 236L286 240Q292 247 295 250Q298 253 298 253Q299 252 300 249Q302 246 304 239L311 215Q301 200 295 193Q289 186 286 184Q283 182 283 182Q280 182 280 183Q278 185 276 186Q274 187 271 187Q265 187 260 182Q254 176 254 167Q254 159 259 153Q265 148 273 148Q284 148 294 158Q305 169 319 191L322 178Q324 172 327 165Q330 158 335 153Q340 148 347 148Q354 148 360 151Q367 153 374 161Q381 168 390 182V183ZM188 103Q202 116 212 136Q221 156 228 187Q232 207 235 222Q238 238 241 254L242 259L268 261L279 281H246Q249 302 252 313Q255 323 258 327Q260 330 262 330Q265 330 268 328Q271 326 276 320Q279 316 284 316Q286 316 287 317Q288 318 290 319Q294 321 297 326Q300 331 301 336Q301 342 296 347Q289 354 277 354Q267 354 254 348Q242 341 232 331Q223 322 217 310Q212 298 208 281H193L181 268L183 259H204Q201 246 199 232Q197 221 195 207Q193 194 190 178Q182 127 176 118Q174 114 170 114Q167 114 163 116Q158 119 154 121Q154 122 154 122Q152 123 149 124Q146 124 143 122V121Q140 120 137 115Q133 110 133 104Q132 98 137 93Q140 90 145 88Q150 86 155 86Q162 86 171 91Q180 95 189 104L188 103Z" />
  </g>
</svg>