<?xml version='1.0' encoding='utf-8'?>
<svg xmlns="http://www.w3.org/2000/svg" viewBox="0 0 576 512" width="100" height="100" fill="currentColor">
  <g transform="scale(1, -1) translate(0, -448)">
    <path d="M145 409C136 418 120 418 111 409L7 305C-2 296 -2 280 7 271C16 262 32 262 41 271L104 334V-8C104 -21 115 -32 128 -32C141 -32 152 -21 152 -8V334L215 271C224 262 240 262 249 271C258 280 258 296 249 305L145 409ZM312 400C299 400 288 389 288 376C288 363 299 352 312 352H360C373 352 384 363 384 376C384 389 373 400 360 400H312ZM312 272C299 272 288 261 288 248C288 235 299 224 312 224H424C437 224 448 235 448 248C448 261 437 272 424 272H312ZM312 144C299 144 288 133 288 120C288 107 299 96 312 96H488C501 96 512 107 512 120C512 133 501 144 488 144H312ZM312 16C299 16 288 5 288 -8C288 -21 299 -32 312 -32H552C565 -32 576 -21 576 -8C576 5 565 16 552 16H312Z" />
  </g>
</svg>