<?xml version='1.0' encoding='utf-8'?>
<svg xmlns="http://www.w3.org/2000/svg" viewBox="0 0 512 512" width="100" height="100" fill="currentColor">
  <g transform="scale(1, -1) translate(0, -448)">
    <path d="M459 408C466 406 471 401 472 395C481 351 486 284 453 220C434 182 402 147 352 117V27C352 10 343 -5 329 -14L241 -67C219 -80 192 -64 192 -40V64C192 99 163 128 128 128H25C0 128 -16 155 -3 176L50 265C59 279 74 288 91 288H182C211 338 246 369 284 389C348 422 415 416 459 408ZM224 67C224 66 224 65 224 64V-40L312 13C317 16 320 21 320 27V101C293 88 261 76 224 67ZM424 234C450 285 449 338 442 378C402 385 349 386 299 360C246 333 194 275 163 153C188 144 208 124 218 99C339 129 397 182 425 234ZM424 234ZM165 256H91C86 256 80 253 78 248L25 160H128C129 160 130 160 131 160C141 197 152 228 165 256ZM312 272C312 259 323 248 336 248C349 248 360 259 360 272C360 285 349 296 336 296C323 296 312 285 312 272ZM336 216C305 216 280 241 280 272C280 303 305 328 336 328C367 328 392 303 392 272C392 241 367 216 336 216Z" />
  </g>
</svg>