<?xml version='1.0' encoding='utf-8'?>
<svg xmlns="http://www.w3.org/2000/svg" viewBox="0 0 576 512" width="100" height="100" fill="currentColor">
  <g transform="scale(1, -1) translate(0, -448)">
    <path d="M144 320C144 364 180 400 224 400C268 400 304 364 304 320C304 276 268 240 224 240C180 240 144 276 144 320ZM352 320C352 391 295 448 224 448C153 448 96 391 96 320C96 249 153 192 224 192C295 192 352 249 352 320ZM48 -32C48 39 105 96 176 96H272C286 96 300 94 313 89C319 101 327 111 336 120V132C316 140 295 144 272 144H176C79 144 0 65 0 -32V-40C0 -53 11 -64 24 -64C37 -64 48 -53 48 -40V-32ZM496 144H544C544 188 508 224 464 224C420 224 384 188 384 144V93C365 87 352 69 352 48V-48C352 -75 374 -96 400 -96H528C555 -96 576 -75 576 -48V48C576 74 555 96 528 96H432V144C432 162 446 176 464 176C482 176 496 162 496 144Z" />
  </g>
</svg>