<?xml version='1.0' encoding='utf-8'?>
<svg xmlns="http://www.w3.org/2000/svg" viewBox="0 0 543 512" width="100" height="100" fill="currentColor">
  <g transform="scale(1, -1) translate(0, -448)">
    <path d="M23 -48Q13 -47 7 -41Q0 -34 0 -24V256Q0 266 7 272Q13 279 23 279H80L123 431Q126 441 134 446Q139 448 145 448Q148 448 149 448Q150 448 152 448L525 343Q534 340 539 332Q544 323 541 314L465 44Q463 37 457 32Q451 28 443 27Q438 27 437 28Q436 28 437 28Q437 28 437 28L434 29V-24Q434 -34 428 -40Q421 -47 411 -47H23ZM388 -1V126H47V-1H388ZM411 279Q421 279 428 272Q434 266 434 256V106L490 304L161 397L128 279H411ZM388 173V232H47V173H388ZM88 100H135Q142 100 146 95Q151 91 151 84V37Q151 30 146 25Q142 21 135 21H88Q81 21 76 25Q72 30 71 37V84Q72 91 76 95Q81 100 88 100ZM270 37Q260 37 254 44Q247 51 247 60Q247 70 254 77Q260 83 270 84H341Q350 83 357 77Q364 70 364 60Q364 51 357 44Q350 37 341 37H270Z" />
  </g>
</svg>