<?xml version='1.0' encoding='utf-8'?>
<svg xmlns="http://www.w3.org/2000/svg" viewBox="0 0 516 512" width="100" height="100" fill="currentColor">
  <g transform="scale(1, -1) translate(0, -448)">
    <path d="M353 347H405Q416 347 424 340Q431 332 432 321V247Q457 233 475 211Q494 189 505 161Q515 134 515 103Q515 68 502 38Q489 8 466 -15Q444 -38 414 -51Q384 -63 349 -64Q318 -63 291 -53Q264 -43 242 -25Q220 -7 206 18H105Q94 18 86 26Q79 33 79 44V67H26Q15 68 8 75Q0 83 0 94V321Q0 332 8 340Q15 347 26 347H79V422Q79 433 86 441Q94 448 105 448H326Q338 448 345 441Q352 433 353 422V347ZM186 71Q183 86 183 103Q183 122 187 141H131V71H186ZM208 191Q223 214 244 232Q266 249 292 259Q319 269 349 269Q364 269 379 266V295H52V120H79V167Q79 178 86 186Q94 193 105 193H196Q202 193 208 191ZM300 396H131V347H300V396ZM466 103Q466 124 460 144Q453 164 440 180Q427 196 408 207Q390 218 369 222Q349 225 328 222Q308 218 289 207Q271 196 258 180Q245 164 238 144Q231 124 232 103Q231 81 238 62Q245 42 258 26Q271 10 289 -1Q308 -12 328 -16Q349 -20 369 -16Q390 -12 408 -1Q427 10 440 26Q453 42 460 62Q466 81 466 103ZM349 188Q360 188 367 180Q375 173 375 162V130H407Q419 129 426 122Q433 114 434 103Q433 92 426 85Q419 77 407 77H375V45Q375 34 367 26Q360 19 349 18Q338 19 330 26Q323 34 323 45V77H290Q279 77 272 85Q264 92 264 103Q264 114 272 122Q279 129 290 130H323V162Q323 173 330 180Q338 188 349 188Z" />
  </g>
</svg>