<?xml version='1.0' encoding='utf-8'?>
<svg xmlns="http://www.w3.org/2000/svg" viewBox="0 0 512 512" width="100" height="100" fill="currentColor">
  <g transform="scale(1, -1) translate(0, -448)">
    <path d="M240 368H272V336H240V368ZM224 416C206 416 192 402 192 384V320C192 302 206 288 224 288H232V224H112C72 224 40 192 40 152V96H32C14 96 0 82 0 64V0C0 -18 14 -32 32 -32H96C114 -32 128 -18 128 0V64C128 82 114 96 96 96H88V152C88 165 99 176 112 176H232V96H224C206 96 192 82 192 64V0C192 -18 206 -32 224 -32H288C306 -32 320 -18 320 0V64C320 82 306 96 288 96H280V176H400C413 176 424 165 424 152V96H416C398 96 384 82 384 64V0C384 -18 398 -32 416 -32H480C498 -32 512 -18 512 0V64C512 82 498 96 480 96H472V152C472 192 440 224 400 224H280V288H288C306 288 320 302 320 320V384C320 402 306 416 288 416H224ZM48 16V48H80V16H48ZM240 16V48H272V16H240ZM432 16V48H464V16H432Z" />
  </g>
</svg>