<?xml version='1.0' encoding='utf-8'?>
<svg xmlns="http://www.w3.org/2000/svg" viewBox="0 0 512 512" width="100" height="100" fill="currentColor">
  <g transform="scale(1, -1) translate(0, -448)">
    <path d="M192 272C192 351 257 416 336 416C416 416 480 351 480 272C480 192 416 128 336 128C325 128 314 129 304 132C298 133 293 131 289 127L257 96H208C199 96 192 89 192 80V32H144C135 32 128 25 128 16V-32H32V49L195 212C199 216 201 223 199 228C194 242 192 257 192 272ZM336 448C239 448 160 369 160 272C160 257 162 242 166 228L5 67C2 64 0 60 0 56V-48C0 -57 7 -64 16 -64H144C153 -64 160 -57 160 -48V0H208C217 0 224 7 224 16V64H264C268 64 272 66 275 69L305 99C315 97 326 96 336 96C433 96 512 175 512 272C512 369 433 448 336 448ZM368 280C381 280 392 291 392 304C392 317 381 328 368 328C355 328 344 317 344 304C344 291 355 280 368 280Z" />
  </g>
</svg>