<?xml version='1.0' encoding='utf-8'?>
<svg xmlns="http://www.w3.org/2000/svg" viewBox="0 0 576 512" width="100" height="100" fill="currentColor">
  <g transform="scale(1, -1) translate(0, -448)">
    <path d="M384 304C384 207 298 128 192 128C165 128 140 133 117 142L35 99C26 94 15 96 7 103C-1 110 -2 122 3 131L38 198C14 228 0 264 0 304C0 401 86 480 192 480C298 480 384 401 384 304ZM384 -64C290 -64 212 -2 195 80C315 81 420 167 431 283C514 263 576 194 576 112C576 72 562 36 538 6L573 -61C578 -70 576 -82 569 -89C562 -97 550 -98 541 -93L459 -50C436 -59 411 -64 384 -64Z" />
  </g>
</svg>