<?xml version='1.0' encoding='utf-8'?>
<svg xmlns="http://www.w3.org/2000/svg" viewBox="0 0 448 512" width="100" height="100" fill="currentColor">
  <g transform="scale(1, -1) translate(0, -448)">
    <path d="M120 448C133 448 144 437 144 424V384H304V424C304 437 315 448 328 448C341 448 352 437 352 424V384H384C419 384 448 355 448 320V32C448 -3 419 -32 384 -32H64C29 -32 0 -3 0 32V320C0 355 29 384 64 384H96V424C96 437 107 448 120 448ZM120 336H64C55 336 48 329 48 320V272H400V320C400 329 393 336 384 336H120ZM48 224V32C48 23 55 16 64 16H384C393 16 400 23 400 32V224H48Z" />
  </g>
</svg>