<?xml version='1.0' encoding='utf-8'?>
<svg xmlns="http://www.w3.org/2000/svg" viewBox="0 0 576 512" width="100" height="100" fill="currentColor">
  <g transform="scale(1, -1) translate(0, -448)">
    <path d="M63 194C66 204 65 216 59 225C42 248 32 275 32 304C32 381 101 448 192 448C283 448 352 381 352 304C352 227 283 160 192 160C174 160 157 163 141 167C134 170 127 169 120 167L41 136L63 194ZM0 304C0 268 12 234 33 206L1 123C0 121 0 119 0 116C0 105 9 96 20 96C23 96 25 96 28 97L132 137C151 131 171 128 192 128C298 128 384 207 384 304C384 401 298 480 192 480C86 480 0 401 0 304ZM384 -64C405 -64 426 -61 445 -55L549 -95C551 -96 553 -96 556 -96C567 -96 576 -87 576 -76C576 -73 576 -71 575 -69L544 14C564 42 576 76 576 112C576 194 515 263 431 283C430 272 428 261 426 251C495 234 544 177 544 112C544 83 535 56 518 33C511 24 510 12 514 2L536 -55L456 -25C450 -23 442 -22 435 -24C419 -29 402 -32 384 -32C305 -32 243 19 228 83C217 81 206 80 195 80C212 -2 290 -64 384 -64Z" />
  </g>
</svg>