<?xml version='1.0' encoding='utf-8'?>
<svg xmlns="http://www.w3.org/2000/svg" viewBox="0 0 448 512" width="100" height="100" fill="currentColor">
  <g transform="scale(1, -1) translate(0, -448)">
    <path d="M32 416C14 416 0 402 0 384V288C0 270 14 256 32 256C50 256 64 270 64 288V352H128C146 352 160 366 160 384C160 402 146 416 128 416H32ZM64 96C64 114 50 128 32 128C14 128 0 114 0 96V0C0 -18 14 -32 32 -32H128C146 -32 160 -18 160 0C160 18 146 32 128 32H64V96ZM320 416C302 416 288 402 288 384C288 366 302 352 320 352H384V288C384 270 398 256 416 256C434 256 448 270 448 288V384C448 402 434 416 416 416H320ZM448 96C448 114 434 128 416 128C398 128 384 114 384 96V32H320C302 32 288 18 288 0C288 -18 302 -32 320 -32H416C434 -32 448 -18 448 0V96Z" />
  </g>
</svg>