<?xml version='1.0' encoding='utf-8'?>
<svg xmlns="http://www.w3.org/2000/svg" viewBox="0 0 512 512" width="100" height="100" fill="currentColor">
  <g transform="scale(1, -1) translate(0, -448)">
    <path d="M352 168H161C164 103 178 44 199 1C210 -24 222 -41 234 -52C245 -62 253 -64 257 -64C261 -64 268 -62 279 -52C291 -41 303 -24 315 1C335 44 349 103 352 168ZM161 216H352C349 280 335 340 314 383C303 408 291 425 279 436C268 446 260 448 256 448C252 448 245 446 234 436C222 425 210 408 198 383C178 340 164 280 161 216ZM113 216C116 302 139 381 171 433C79 401 11 317 2 216H113ZM2 168C11 67 79 -17 171 -49C139 3 116 82 113 168H2ZM400 168C396 82 374 3 342 -49C434 -17 502 67 511 168H400ZM511 216C502 317 434 401 342 433C374 381 396 302 400 216H511Z" />
  </g>
</svg>