<?xml version='1.0' encoding='utf-8'?>
<svg xmlns="http://www.w3.org/2000/svg" viewBox="0 0 576 512" width="100" height="100" fill="currentColor">
  <g transform="scale(1, -1) translate(0, -448)">
    <path d="M383 323 310 467C305 475 297 480 288 480C279 480 271 475 267 467L193 323L33 297C24 296 17 290 14 281C11 272 14 263 20 257L134 142L109 -18C108 -27 111 -36 119 -41C126 -46 136 -47 144 -43L288 30L432 -43C440 -47 450 -46 457 -41C465 -36 468 -27 467 -18L442 142L556 257C563 263 565 272 562 281C559 290 552 296 543 297L383 323ZM378 291 522 268 419 165C412 157 409 147 410 137L433 -7L303 59C294 64 283 64 274 59L143 -7L166 137C168 147 164 157 157 165L54 268L198 291C208 293 217 299 222 308L288 438L355 308C359 299 368 293 378 291Z" />
  </g>
</svg>