<?xml version='1.0' encoding='utf-8'?>
<svg xmlns="http://www.w3.org/2000/svg" viewBox="0 0 448 512" width="100" height="100" fill="currentColor">
  <g transform="scale(1, -1) translate(0, -448)">
    <path d="M240 16H64C55 16 48 23 48 32V352C48 361 55 368 64 368H384C393 368 400 361 400 352V176H312C272 176 240 144 240 104V16ZM380 128 288 36V104C288 117 299 128 312 128H380ZM0 32C0 -3 29 -32 64 -32H262C279 -32 295 -25 307 -13L429 109C441 121 448 138 448 155V352C448 387 419 416 384 416H64C29 416 0 387 0 352V32Z" />
  </g>
</svg>