<?xml version='1.0' encoding='utf-8'?>
<svg xmlns="http://www.w3.org/2000/svg" viewBox="0 0 512 512" width="100" height="100" fill="currentColor">
  <g transform="scale(1, -1) translate(0, -448)">
    <path d="M244 12H26V422H377V202Q377 196 381 192Q385 188 391 188Q396 188 400 192Q404 196 404 202V435Q404 441 400 445Q396 448 391 448H13Q7 448 3 445Q0 441 0 435V-2Q0 -7 3 -11Q7 -15 13 -15H244Q249 -15 253 -11Q257 -7 257 -2Q257 4 253 8Q249 12 244 12ZM169 368Q165 372 160 373Q154 374 150 371L105 337L92 355Q88 359 83 360Q78 361 73 358Q68 355 67 349Q67 344 70 339L91 310Q95 305 100 304H102Q106 304 110 307L166 349Q170 353 171 358Q171 364 168 368H169ZM329 344H208Q202 344 198 340Q194 337 194 331Q194 325 198 321Q202 317 208 317H329Q335 317 338 321Q342 325 342 331Q342 337 338 340Q335 344 329 344ZM169 260Q165 265 160 266Q154 266 150 263L105 229L92 247Q88 252 83 253Q78 254 73 250Q68 247 67 242Q67 236 70 232L91 202Q95 198 100 197H102Q106 197 110 199L166 242Q170 245 171 251Q171 256 168 261H169V260ZM329 237H208Q202 237 198 233Q194 229 194 223Q194 217 198 214Q202 210 208 210H329Q335 210 338 214Q342 217 342 223Q342 229 338 233Q335 237 329 237ZM150 155 105 121 92 139Q88 144 83 145Q78 146 73 142Q68 139 67 134Q67 128 70 123L91 94Q95 90 100 89H102Q106 89 110 91L166 134Q170 137 171 143Q171 148 168 153Q165 157 159 158Q154 159 149 155H150ZM244 129H208Q202 129 198 125Q194 121 194 115Q194 110 198 106Q202 102 208 102H244Q249 102 253 106Q257 110 257 115Q257 121 253 125Q249 129 244 129ZM490 168H291Q285 168 282 164Q278 160 278 154V-44Q278 -50 282 -54Q285 -58 291 -58H490Q495 -58 499 -54Q503 -50 503 -44V154Q503 160 499 164Q496 168 490 168ZM404 141V106H376V141H404ZM476 -31H305V141H349V92Q349 87 352 83Q356 79 362 79H417Q422 79 426 83Q430 87 430 92V141H476V-31ZM403 23Q397 23 393 19Q390 15 390 9Q390 4 393 0Q397 -4 403 -4H438Q444 -4 448 0Q451 4 452 9Q451 15 448 19Q444 23 438 23H403Z" />
  </g>
</svg>