<?xml version='1.0' encoding='utf-8'?>
<svg xmlns="http://www.w3.org/2000/svg" viewBox="0 0 576 512" width="100" height="100" fill="currentColor">
  <g transform="scale(1, -1) translate(0, -448)">
    <path d="M76 189C82 204 80 222 71 235C56 255 48 279 48 304C48 371 109 432 192 432C276 432 336 371 336 304C336 237 276 176 192 176C176 176 161 178 147 182C136 186 125 185 115 181L65 161L76 189ZM0 304C0 268 12 235 32 207L2 133C1 130 0 126 0 123C0 108 12 96 27 96C30 96 34 97 37 98L133 136C152 131 172 128 192 128C298 128 384 207 384 304C384 401 298 480 192 480C86 480 0 401 0 304ZM384 -64C405 -64 424 -61 443 -56L539 -94C542 -95 546 -96 549 -96C564 -96 576 -84 576 -69C576 -66 575 -62 574 -59L544 15C564 43 576 76 576 112C576 194 514 263 431 283C430 266 426 251 421 236C485 221 528 168 528 112C528 87 520 63 506 43C496 30 494 12 500 -3L511 -31L461 -11C451 -7 440 -7 430 -10C415 -14 400 -16 384 -16C312 -16 257 30 244 85C228 82 212 80 196 80C212 -2 290 -64 384 -64Z" />
  </g>
</svg>