<?xml version='1.0' encoding='utf-8'?>
<svg xmlns="http://www.w3.org/2000/svg" viewBox="0 0 512 512" width="100" height="100" fill="currentColor">
  <g transform="scale(1, -1) translate(0, -448)">
    <path d="M123 176V57V176V57H166Q180 56 182 41Q180 26 166 25H123V-18Q121 -32 107 -34Q92 -32 91 -18V25H48Q34 26 32 41Q34 56 48 57H91V176H48Q34 177 32 192Q34 207 48 208H91V326H48Q34 328 32 342Q34 357 48 358H91V402Q92 416 107 418Q121 416 123 402V358H240V402Q241 416 256 418Q270 416 272 402V358H391V402Q392 416 407 418Q422 416 423 402V358H467Q482 357 483 342Q482 328 467 326H423V240Q422 225 407 224Q392 225 391 240V326H272V240Q270 225 256 224Q241 225 240 240V326H123V208H208Q223 207 224 192Q223 177 208 176H123ZM467 208H450H467H450Q435 207 434 192Q435 177 450 176H467Q482 177 483 192Q482 207 467 208ZM333 208Q281 207 247 173Q213 138 211 87V-18Q212 -33 227 -34Q242 -33 243 -18V87Q244 125 269 150Q295 175 333 176Q370 175 396 150Q421 125 422 87V-18Q423 -33 438 -34Q453 -33 454 -18V87Q452 138 418 173Q384 207 333 208Z" />
  </g>
</svg>
