<?xml version='1.0' encoding='utf-8'?>
<svg xmlns="http://www.w3.org/2000/svg" viewBox="0 0 512 512" width="100" height="100" fill="currentColor">
  <g transform="scale(1, -1) translate(0, -448)">
    <path d="M384 240C384 337 305 416 208 416C111 416 32 337 32 240C32 143 111 64 208 64C305 64 384 143 384 240ZM343 82C307 51 260 32 208 32C93 32 0 125 0 240C0 355 93 448 208 448C323 448 416 355 416 240C416 188 397 141 366 105L507 -37C514 -43 514 -53 507 -59C501 -66 491 -66 485 -59L343 82Z" />
  </g>
</svg>