<?xml version='1.0' encoding='utf-8'?>
<svg xmlns="http://www.w3.org/2000/svg" viewBox="0 0 539 512" width="100" height="100" fill="currentColor">
  <g transform="scale(1, -1) translate(0, -448)">
    <path d="M263 448Q208 448 160 432Q113 415 77 386Q41 357 20 319Q0 280 0 236Q0 187 24 145Q49 103 95 72L47 -18Q45 -21 45 -25Q45 -29 48 -33Q52 -37 59 -37Q61 -38 62 -37L264 23Q319 24 366 40Q413 57 449 86Q485 115 505 154Q525 192 526 236Q525 280 505 318Q484 357 448 386Q412 415 365 432Q317 448 263 448ZM263 50Q262 50 261 50Q260 50 259 50L86 -2L125 70Q127 75 126 80Q125 85 120 88Q75 115 51 154Q27 192 27 236Q27 275 45 308Q63 342 96 367Q128 393 171 407Q213 421 263 422Q312 421 354 407Q397 393 429 367Q462 342 480 308Q498 275 499 236Q498 197 480 164Q462 130 429 105Q397 79 354 65Q312 50 263 50ZM204 298Q190 298 179 292Q168 286 161 275Q154 265 153 251Q154 239 159 229Q164 219 173 213Q182 206 194 204Q193 203 190 198Q186 193 179 187Q171 180 159 175Q151 172 156 170Q162 167 169 168Q177 168 184 170Q191 173 197 175Q212 182 224 196Q236 209 242 225Q247 238 246 251Q246 263 241 273Q236 284 227 290Q217 297 204 298ZM329 298Q316 298 304 292Q293 286 286 275Q279 265 279 251Q279 239 284 229Q289 219 298 213Q307 206 319 204Q318 203 315 198Q311 193 304 187Q296 180 284 175Q277 172 281 170Q287 167 294 168Q302 168 309 170Q317 173 322 175Q338 182 350 196Q362 209 368 225Q372 238 372 251Q371 263 366 273Q361 284 352 290Q343 297 329 298Z" />
  </g>
</svg>