<?xml version='1.0' encoding='utf-8'?>
<svg xmlns="http://www.w3.org/2000/svg" viewBox="0 0 576 512" width="100" height="100" fill="currentColor">
  <g transform="scale(1, -1) translate(0, -448)">
    <path d="M27 475C21 481 11 481 5 475C-2 469 -2 459 5 453L549 -91C555 -98 565 -98 571 -91C578 -85 578 -75 571 -69L466 36C471 40 476 44 481 49C527 92 559 144 574 180C577 188 577 196 574 204C559 240 527 292 481 335C433 379 369 416 288 416C228 416 177 396 135 367L27 475ZM158 344C195 368 238 384 288 384C429 384 517 256 544 192C531 160 502 112 459 72C454 67 449 63 444 59L389 113C406 135 416 162 416 192C416 263 359 320 288 320C258 320 231 310 210 293L158 344ZM366 136 232 270C248 281 267 288 288 288C341 288 384 245 384 192C384 171 377 152 366 136ZM75 315C39 276 15 234 3 204C-1 196 -1 188 3 180C17 144 49 92 96 49C143 5 207 -32 288 -32C329 -32 365 -23 398 -8L373 16C347 6 319 0 288 0C147 0 59 128 32 192C43 219 65 257 97 292L75 315Z" />
  </g>
</svg>