<?xml version='1.0' encoding='utf-8'?>
<svg xmlns="http://www.w3.org/2000/svg" viewBox="0 0 448 512" width="100" height="100" fill="currentColor">
  <g transform="scale(1, -1) translate(0, -448)">
    <path d="M82 15 242 175C251 184 251 200 242 209L82 369C72 378 57 378 48 369C38 360 38 344 48 335L191 192L48 49C38 40 38 24 48 15C57 6 72 6 82 15ZM274 15 434 175C443 184 443 200 434 209L274 369C264 378 249 378 240 369C230 360 230 344 240 335L383 192L240 49C230 40 230 24 240 15C249 6 264 6 274 15Z" />
  </g>
</svg>