<?xml version='1.0' encoding='utf-8'?>
<svg xmlns="http://www.w3.org/2000/svg" viewBox="0 0 512 512" width="100" height="100" fill="currentColor">
  <g transform="scale(1, -1) translate(0, -448)">
    <path d="M113 437C140 446 170 433 182 407L221 320C232 296 225 269 205 253L181 233C207 183 247 142 296 115L317 141C333 161 361 168 384 157L471 117C497 106 510 76 501 49C481 -14 418 -68 340 -54C167 -23 41 102 10 276C-4 353 51 416 113 437ZM138 387C136 391 132 393 128 392C83 376 49 333 58 285C85 131 195 20 349 -7C397 -15 441 19 456 64C457 68 455 72 451 74L364 114C361 115 357 114 354 111L321 69C314 61 302 58 292 63C219 97 161 157 129 231C125 241 128 252 136 259L175 290C178 292 179 296 178 300L138 387Z" />
  </g>
</svg>