<?xml version='1.0' encoding='utf-8'?>
<svg xmlns="http://www.w3.org/2000/svg" viewBox="0 0 512 512" width="100" height="100" fill="currentColor">
  <g transform="scale(1, -1) translate(0, -448)">
    <path d="M476 -22Q471 -29 463 -29H423Q416 -29 412 -24Q407 -20 407 -13Q407 -6 412 -2Q416 3 423 3H439L433 17Q430 24 432 30Q435 36 441 39Q447 41 453 39Q459 36 462 30L478 -7Q481 -14 476 -22ZM323 3H299V27Q299 34 294 38Q290 43 283 43Q276 43 271 38Q267 34 267 27V-13Q267 -20 271 -24Q276 -29 283 -29H323Q330 -29 334 -24Q339 -20 339 -13Q339 -6 334 -2Q330 3 323 3ZM283 79Q290 79 294 84Q299 88 299 95V163Q299 170 294 174Q290 179 283 179Q276 179 271 174Q267 170 267 163V95Q267 88 271 84Q276 79 283 79ZM283 215Q290 215 294 220Q299 224 299 231V299Q299 306 294 311Q290 315 283 315Q276 315 271 311Q267 306 267 299V231Q267 225 271 220Q276 215 283 215ZM283 352Q289 352 293 356Q299 354 305 356Q311 359 313 365Q316 371 313 377L297 414Q295 419 290 422Q285 424 280 423Q274 422 270 418Q267 413 267 407V367Q267 361 271 356Q276 352 283 351ZM373 238 343 308Q340 314 334 316Q328 319 322 316Q316 313 313 307Q311 301 313 295L343 225Q345 221 349 218Q353 216 358 216Q361 216 364 217Q370 220 373 226Q375 232 373 238ZM417 77Q421 77 424 79Q430 81 432 87Q435 93 432 100L402 169Q399 175 394 178Q388 180 381 177Q375 175 373 169Q370 163 373 156L403 87Q405 82 409 80Q413 77 417 77ZM239 407V-13Q238 -20 234 -24Q229 -29 223 -29H42Q38 -29 35 -27Q31 -25 29 -22Q27 -19 26 -15Q26 -11 28 -7L208 414Q210 419 215 421Q220 424 226 423Q232 422 235 417Q238 413 239 407ZM207 329 67 3H207V329Z" />
  </g>
</svg>