<?xml version='1.0' encoding='utf-8'?>
<svg xmlns="http://www.w3.org/2000/svg" viewBox="0 0 512 512" width="100" height="100" fill="currentColor">
  <g transform="scale(1, -1) translate(0, -448)">
    <path d="M66 219C79 312 159 384 256 384C309 384 357 362 392 328C392 328 392 327 392 327L400 320H352C334 320 320 306 320 288C320 270 334 256 352 256H480C498 256 512 270 512 288V416C512 434 498 448 480 448C462 448 448 434 448 416V363L437 373C391 419 327 448 256 448C127 448 20 353 3 228C0 211 12 195 30 192C47 190 63 202 66 219ZM509 155C512 173 500 189 482 192C465 194 449 182 446 165C433 72 353 0 256 0C203 0 155 22 120 56C120 56 120 57 120 57L112 64H160C178 64 192 78 192 96C192 114 178 128 160 128H32C24 128 15 125 9 118C3 112 0 104 0 96L1 -31C1 -49 16 -63 33 -63C51 -63 65 -48 65 -31V21L75 11C122 -35 186 -64 256 -64C385 -64 492 31 509 155Z" />
  </g>
</svg>