<?xml version='1.0' encoding='utf-8'?>
<svg xmlns="http://www.w3.org/2000/svg" viewBox="0 0 512 512" width="100" height="100" fill="currentColor">
  <g transform="scale(1, -1) translate(0, -448)">
    <path d="M256 416C380 416 480 316 480 192C480 68 380 -32 256 -32C132 -32 32 68 32 192C32 316 132 416 256 416ZM256 -64C397 -64 512 51 512 192C512 333 397 448 256 448C115 448 0 333 0 192C0 51 115 -64 256 -64ZM240 96C240 87 247 80 256 80C265 80 272 87 272 96V176H352C361 176 368 183 368 192C368 201 361 208 352 208H272V288C272 297 265 304 256 304C247 304 240 297 240 288V208H160C151 208 144 201 144 192C144 183 151 176 160 176H240V96Z" />
  </g>
</svg>