<?xml version='1.0' encoding='utf-8'?>
<svg xmlns="http://www.w3.org/2000/svg" viewBox="0 0 576 512" width="100" height="100" fill="currentColor">
  <g transform="scale(1, -1) translate(0, -448)">
    <path d="M367 409C358 400 358 385 367 375L515 225C525 215 525 200 515 191L359 33C350 23 350 8 359 -1C368 -10 384 -10 393 -1L549 157C577 185 577 230 549 259L401 409C392 418 377 418 367 409ZM80 352C80 361 87 368 96 368H230C234 368 238 366 241 363L385 219C391 213 391 203 385 197L251 63C245 57 235 57 229 63L85 207C82 210 80 214 80 218V352ZM32 352V218C32 201 39 185 51 173L195 29C220 4 260 4 285 29L419 163C444 188 444 228 419 253L275 397C263 409 247 416 230 416H96C61 416 32 387 32 352ZM144 272C162 272 176 286 176 304C176 322 162 336 144 336C126 336 112 322 112 304C112 286 126 272 144 272Z" />
  </g>
</svg>