<?xml version='1.0' encoding='utf-8'?>
<svg xmlns="http://www.w3.org/2000/svg" viewBox="0 0 384 512" width="100" height="100" fill="currentColor">
  <g transform="scale(1, -1) translate(0, -448)">
    <path d="M203 395C197 401 187 401 181 395L21 235C15 229 15 219 21 213C27 206 37 206 43 213L192 361L341 213C347 206 357 206 363 213C370 219 370 229 363 235L203 395ZM363 43 203 203C197 209 187 209 181 203L21 43C15 37 15 27 21 21C27 14 37 14 43 21L192 169L341 21C347 14 357 14 363 21C370 27 370 37 363 43Z" />
  </g>
</svg>