<?xml version='1.0' encoding='utf-8'?>
<svg xmlns="http://www.w3.org/2000/svg" viewBox="0 0 576 512" width="100" height="100" fill="currentColor">
  <g transform="scale(1, -1) translate(0, -448)">
    <path d="M235 69 139 -27C133 -34 123 -34 117 -27L21 69C15 75 15 85 21 91C27 97 37 97 43 91L112 23V400C112 409 119 416 128 416C137 416 144 409 144 400V23L213 91C219 97 229 97 235 91C242 85 242 75 235 69ZM304 416H368C377 416 384 409 384 400C384 391 377 384 368 384H304C295 384 288 391 288 400C288 409 295 416 304 416ZM304 280H432C441 280 448 273 448 264C448 255 441 248 432 248H304C295 248 288 255 288 264C288 273 295 280 304 280ZM304 136H496C505 136 512 129 512 120C512 111 505 104 496 104H304C295 104 288 111 288 120C288 129 295 136 304 136ZM304 0H560C569 0 576 -7 576 -16C576 -25 569 -32 560 -32H304C295 -32 288 -25 288 -16C288 -7 295 0 304 0Z" />
  </g>
</svg>