<?xml version='1.0' encoding='utf-8'?>
<svg xmlns="http://www.w3.org/2000/svg" viewBox="0 0 512 512" width="100" height="100" fill="currentColor">
  <g transform="scale(1, -1) translate(0, -448)">
    <path d="M32 416C50 416 64 402 64 384V48C64 39 71 32 80 32H480C498 32 512 18 512 0C512 -18 498 -32 480 -32H80C36 -32 0 4 0 48V384C0 402 14 416 32 416ZM128 352C128 370 142 384 160 384H352C370 384 384 370 384 352C384 334 370 320 352 320H160C142 320 128 334 128 352ZM160 272H288C306 272 320 258 320 240C320 222 306 208 288 208H160C142 208 128 222 128 240C128 258 142 272 160 272ZM160 160H416C434 160 448 146 448 128C448 110 434 96 416 96H160C142 96 128 110 128 128C128 146 142 160 160 160Z" />
  </g>
</svg>