<?xml version='1.0' encoding='utf-8'?>
<svg xmlns="http://www.w3.org/2000/svg" viewBox="0 0 401 512" width="100" height="100" fill="currentColor">
  <g transform="scale(1, -1) translate(0, -448)">
    <path d="M21 -49Q12 -48 6 -42Q0 -36 0 -27V392Q0 402 6 408Q12 414 21 414H148Q155 430 169 439Q183 448 200 448Q217 448 231 439Q245 430 252 414H378Q388 414 394 408Q400 402 400 392V-27Q400 -36 394 -42Q388 -48 378 -49H21ZM357 -5V370H321V327Q321 318 315 312Q309 305 300 305H104Q95 305 89 312Q83 318 82 327V370H43V-5H357ZM278 349V370H235Q226 371 220 377Q213 383 213 392Q213 401 209 403Q206 405 201 405Q195 405 192 401Q188 397 188 392Q188 383 181 377Q175 371 166 370H126V349H278ZM314 216Q324 217 330 223Q336 229 336 238Q336 247 330 253Q324 259 314 260H229Q220 259 214 253Q208 247 208 238Q208 229 214 223Q220 217 229 216H314ZM276 166Q286 166 292 172Q298 178 298 188Q298 197 292 203Q286 209 276 209H229Q220 209 214 203Q208 197 208 188Q208 178 214 172Q220 166 229 166H276ZM83 16Q74 16 68 22Q62 28 61 38V110Q62 119 68 125Q74 132 83 132H168Q177 132 183 125Q189 119 189 110V38Q189 28 183 22Q177 16 168 16H83ZM146 60V88H105V60H146ZM314 78Q324 78 330 84Q336 90 336 99Q336 109 330 115Q324 121 314 121H229Q220 121 214 115Q208 109 208 99Q208 90 214 84Q220 78 229 78H314ZM276 28Q286 28 292 34Q298 40 298 49Q298 59 292 65Q286 71 276 71H229Q220 71 214 65Q208 59 208 49Q208 40 214 34Q220 28 229 28H276ZM115 159Q119 159 123 161Q127 163 130 167L184 226Q190 233 189 242Q189 251 182 257Q176 263 168 263Q164 263 159 261Q155 259 151 256L113 213L99 228Q92 234 83 234Q74 234 68 228Q61 221 61 213Q61 204 68 197L99 166Q105 160 114 160H115V159Z" />
  </g>
</svg>