<?xml version='1.0' encoding='utf-8'?>
<svg xmlns="http://www.w3.org/2000/svg" viewBox="0 0 510 512" width="100" height="100" fill="currentColor">
  <g transform="scale(1, -1) translate(0, -448)">
    <path d="M244 57Q249 55 253 55Q258 55 263 57L379 113Q385 115 388 121Q392 126 392 132V255Q392 262 388 267Q385 272 379 275L262 327Q253 331 244 327L128 275Q122 273 118 267Q115 262 115 255V131Q115 125 118 120Q122 114 127 112L244 57ZM158 222 235 196V109L158 145V222ZM278 113V193L348 218V146L278 113ZM253 284 320 254 262 233 191 256 253 284ZM131 356H134Q143 355 149 350Q155 344 156 335Q156 325 150 319Q144 313 134 312H66Q56 313 50 319Q44 325 44 334V413Q44 422 50 429Q56 435 65 436Q74 436 81 430Q87 423 87 414V387L92 392Q93 392 94 393Q128 420 169 434Q210 448 253 448Q283 448 315 440Q348 431 379 414Q410 398 434 373Q470 337 490 291Q509 245 509 193Q509 141 490 94Q471 48 434 11Q397 -25 351 -44Q305 -63 253 -64Q202 -63 155 -44Q109 -25 72 11Q48 36 34 59Q19 82 11 106Q3 130 0 157Q0 166 2 172Q5 179 12 183Q18 187 26 187Q36 186 43 180Q49 174 51 164Q55 127 73 95Q90 63 118 39Q145 15 180 2Q214 -11 253 -12Q292 -11 328 5Q365 20 394 48Q423 76 440 113Q457 150 457 192Q457 235 441 272Q425 309 397 337Q369 365 333 380Q296 396 253 396Q253 397 244 397Q234 397 217 394Q201 391 178 382Q156 374 131 356Z" />
  </g>
</svg>