<?xml version='1.0' encoding='utf-8'?>
<svg xmlns="http://www.w3.org/2000/svg" viewBox="0 0 512 512" width="100" height="100" fill="currentColor">
  <g transform="scale(1, -1) translate(0, -448)">
    <path d="M59 133C48 122 40 109 36 94L1 -34C-1 -42 1 -51 7 -57C13 -63 22 -66 31 -63L158 -28C173 -24 186 -16 197 -5L491 289C504 302 512 321 512 340C512 359 504 378 491 391L455 427C442 440 423 448 404 448C385 448 366 440 353 427L59 133ZM404 400C410 400 417 397 421 393L457 357C462 353 464 346 464 340C464 333 461 327 457 323L404 270L334 340L387 393C391 397 398 400 404 400ZM110 116 300 306 370 236 180 46 110 116ZM81 77 141 17 59 -6 81 77Z" />
  </g>
</svg>