<?xml version='1.0' encoding='utf-8'?>
<svg xmlns="http://www.w3.org/2000/svg" viewBox="0 0 512 512" width="100" height="100" fill="currentColor">
  <g transform="scale(1, -1) translate(0, -448)">
    <path d="M472 426C450 448 414 448 392 426L368 402L466 304L490 328C512 350 512 386 490 408L472 426ZM172 206C166 200 162 193 159 184L129 96C126 87 129 77 135 71C142 64 151 62 160 65L249 95C257 97 264 102 270 108L432 270L334 368L172 206ZM96 384C43 384 0 341 0 288V32C0 -21 43 -64 96 -64H352C405 -64 448 -21 448 32V128C448 146 434 160 416 160C398 160 384 146 384 128V32C384 14 370 0 352 0H96C78 0 64 14 64 32V288C64 306 78 320 96 320H192C210 320 224 334 224 352C224 370 210 384 192 384H96Z" />
  </g>
</svg>