<?xml version='1.0' encoding='utf-8'?>
<svg xmlns="http://www.w3.org/2000/svg" viewBox="0 0 320 512" width="100" height="100" fill="currentColor">
  <g transform="scale(1, -1) translate(0, -448)">
    <path d="M136 424C136 437 147 448 160 448C173 448 184 437 184 424V384H248C261 384 272 373 272 360C272 347 261 336 248 336H118C88 336 64 312 64 282C64 256 83 233 109 229L215 211C267 203 304 158 304 106C304 48 256 0 198 0H184V-40C184 -53 173 -64 160 -64C147 -64 136 -53 136 -40V0H56C43 0 32 11 32 24C32 37 43 48 56 48H198C230 48 256 74 256 106C256 135 235 159 207 164L101 181C52 190 16 232 16 282C16 338 62 384 118 384H136V424Z" />
  </g>
</svg>