<?xml version='1.0' encoding='utf-8'?>
<svg xmlns="http://www.w3.org/2000/svg" viewBox="0 0 603 512" width="100" height="100" fill="currentColor">
  <g transform="scale(1, -1) translate(0, -448)">
    <path d="M368 124V290H286Q272 290 262 297Q252 303 246 314Q240 325 240 339V418H30V-8H150Q157 -8 161 -12Q165 -16 165 -23Q165 -29 161 -33Q157 -38 150 -38H15Q8 -37 4 -33Q0 -29 0 -23V433Q0 440 4 444Q8 448 15 448H269Q275 448 279 444L394 325Q398 320 398 314V125Q398 118 394 114Q389 110 383 110Q376 110 372 114Q368 118 368 125V124ZM192 -47H219V81H192V-47ZM321 -3 269 81H243V-47H269V37L321 -47H347V81H321V-3ZM461 52Q468 38 468 20V14Q468 -4 461 -18Q454 -32 440 -39Q427 -47 410 -47H370V81H410Q427 81 440 73Q453 66 461 52ZM441 20Q441 40 433 50Q425 60 409 60H397V-26H409Q425 -26 433 -16Q441 -6 441 13V20ZM585 20V14Q585 -4 578 -17Q571 -31 557 -39Q544 -47 527 -47H487V81H527Q544 81 557 74Q570 66 578 52Q585 38 585 20ZM559 20Q559 40 550 50Q542 60 527 60H514V-26H526Q542 -26 550 -16Q558 -6 558 13V20Z" />
  </g>
</svg>