<?xml version='1.0' encoding='utf-8'?>
<svg xmlns="http://www.w3.org/2000/svg" viewBox="0 0 576 512" width="100" height="100" fill="currentColor">
  <g transform="scale(1, -1) translate(0, -448)">
    <path d="M310 467C305 475 297 480 288 480C279 480 271 475 267 467L193 323L33 297C24 296 17 290 14 281C11 272 14 263 20 257L134 142L109 -18C108 -27 111 -36 119 -41C126 -46 136 -47 144 -43L288 30L432 -43C440 -47 450 -46 457 -41C465 -36 468 -27 467 -18L442 142L556 257C563 263 565 272 562 281C559 290 552 296 543 297L383 323L310 467Z" />
  </g>
</svg>