<?xml version='1.0' encoding='utf-8'?>
<svg xmlns="http://www.w3.org/2000/svg" viewBox="0 0 569 512" width="100" height="100" fill="currentColor">
  <g transform="scale(1, -1) translate(0, -448)">
    <path d="M512 379H422Q416 379 412 375Q408 371 408 365Q408 359 412 355Q416 351 422 351H512Q518 351 523 347Q527 342 527 336V285H349Q343 285 339 281Q335 277 335 271Q335 265 339 261Q343 257 349 257H527V-15Q527 -21 523 -25Q518 -30 512 -30H43Q37 -30 33 -26Q28 -21 28 -15V257H160Q166 257 170 261Q174 265 174 271Q174 277 170 281Q166 285 160 285H28V336Q28 342 32 347Q37 351 43 351H220Q226 351 230 355Q234 359 234 365Q234 372 230 376Q226 380 220 380H43Q31 380 21 374Q11 368 6 358Q0 348 0 336V-14Q0 -27 6 -36Q11 -46 21 -52Q31 -58 43 -58H512Q524 -58 534 -52Q544 -46 550 -36Q556 -27 556 -14V336Q556 348 550 358Q544 368 534 373Q524 379 512 379ZM287 109Q281 109 277 105Q273 101 273 95V42H247Q241 42 237 38Q233 34 233 28Q233 22 237 18Q241 14 247 14H478Q484 14 488 18Q492 22 493 28Q492 34 488 38Q484 42 478 42H452V198Q452 204 448 208Q444 212 438 212Q432 212 428 208Q424 204 424 198V42H373V140Q373 147 369 150Q365 154 359 155Q353 154 349 150Q345 146 345 140V42H301V95Q301 101 297 105Q293 109 287 109H288ZM111 208Q88 188 87 151Q86 130 84 120Q82 109 80 106Q76 106 73 104Q70 102 68 99Q65 94 67 89Q68 83 73 80Q74 79 77 78Q82 76 95 73Q108 70 124 70Q136 70 149 73Q161 75 173 83Q214 108 220 176V177L390 363Q397 371 401 381Q404 391 403 402Q402 413 397 423Q391 432 382 438Q374 445 364 447Q354 449 343 448Q333 446 324 441Q316 435 310 427L170 226Q166 226 156 226Q146 225 134 221Q122 217 111 208ZM159 107Q146 100 133 99Q119 97 108 100Q114 117 115 150Q116 175 130 186Q139 194 149 196Q159 198 165 198L191 172Q185 124 159 107ZM333 410Q339 418 348 420Q358 421 366 415Q374 409 375 399Q376 389 369 382L206 203L196 213L333 410Z" />
  </g>
</svg>