<?xml version='1.0' encoding='utf-8'?>
<svg xmlns="http://www.w3.org/2000/svg" viewBox="0 0 448 512" width="100" height="100" fill="currentColor">
  <g transform="scale(1, -1) translate(0, -448)">
    <path d="M64 368C55 368 48 361 48 352V32C48 23 55 16 64 16H384C393 16 400 23 400 32V352C400 361 393 368 384 368H64ZM0 352C0 387 29 416 64 416H384C419 416 448 387 448 352V32C448 -3 419 -32 384 -32H64C29 -32 0 -3 0 32V352ZM224 264C208 264 195 251 195 235C195 221 184 211 171 211C158 211 147 221 147 235C147 277 181 312 224 312C267 312 301 277 301 235C301 189 267 170 248 163C245 152 236 144 224 144C211 144 200 155 200 168C200 188 215 203 230 207C236 209 242 213 246 217C250 221 253 226 253 235C253 251 240 264 224 264ZM196 96C196 111 209 124 224 124C239 124 252 111 252 96C252 81 239 68 224 68C209 68 196 81 196 96Z" />
  </g>
</svg>