<?xml version='1.0' encoding='utf-8'?>
<svg xmlns="http://www.w3.org/2000/svg" viewBox="0 0 512 512" width="100" height="100" fill="currentColor">
  <g transform="scale(1, -1) translate(0, -448)">
    <path d="M425 388H367Q361 387 357 384Q353 380 353 374Q353 368 357 364Q361 361 367 361H392L269 237V269Q269 275 265 279Q262 283 256 283Q250 283 246 279Q243 275 243 270V205Q243 199 246 195Q250 191 256 191H314Q320 191 323 195Q327 199 327 205Q327 211 324 214Q320 218 314 218H288L411 341V309Q411 303 415 300Q419 296 425 296Q430 296 434 299Q438 303 438 309V374Q438 380 434 384Q430 387 425 388ZM184 101H142V143Q142 149 138 152Q134 156 128 156Q122 156 119 152Q115 149 115 143V101H73Q67 101 64 97Q60 93 60 88Q60 82 64 78Q67 74 73 74H115V32Q115 27 119 23Q123 19 128 19Q134 19 138 23Q142 26 142 32V74H184Q189 74 193 78Q197 82 197 88Q197 94 193 97Q190 101 184 101ZM128 211Q101 210 78 200Q55 191 37 173Q20 155 10 132Q0 109 0 82Q0 55 10 32Q20 8 37 -9Q55 -27 78 -37Q101 -47 128 -47Q155 -47 178 -37Q202 -27 219 -9Q237 8 247 32Q257 55 257 82Q257 109 247 132Q237 155 219 173Q202 191 178 200Q155 210 128 211ZM128 184Q157 184 181 171Q205 158 219 134Q233 109 233 82Q233 54 219 30Q205 6 181 -7Q157 -21 128 -20Q100 -21 76 -7Q52 6 37 30Q23 54 23 82Q23 109 37 134Q52 158 76 171Q100 184 128 184ZM485 448H128Q123 448 119 445Q115 441 115 435V258Q115 253 119 249Q122 245 128 245Q134 245 138 249Q142 253 142 258V422H471V95H296Q290 95 287 91Q283 88 283 82Q283 76 287 72Q290 68 296 68H485Q491 68 494 72Q498 76 498 82V435Q498 441 494 445Q491 448 485 448Z" />
  </g>
</svg>