<?xml version='1.0' encoding='utf-8'?>
<svg xmlns="http://www.w3.org/2000/svg" viewBox="0 0 512 512" width="100" height="100" fill="currentColor">
  <g transform="scale(1, -1) translate(0, -448)">
    <path d="M368 240C368 328 296 400 208 400C120 400 48 328 48 240C48 152 120 80 208 80C296 80 368 152 368 240ZM337 77C302 49 257 32 208 32C93 32 0 125 0 240C0 355 93 448 208 448C323 448 416 355 416 240C416 191 399 146 371 111L505 -23C514 -32 514 -48 505 -57C496 -66 480 -66 471 -57L337 77Z" />
  </g>
</svg>