<?xml version='1.0' encoding='utf-8'?>
<svg xmlns="http://www.w3.org/2000/svg" viewBox="0 0 512 512" width="100" height="100" fill="currentColor">
  <g transform="scale(1, -1) translate(0, -448)">
    <path d="M61 384C28 384 0 356 0 323C0 322 0 321 0 320V64C0 29 29 0 64 0H448C483 0 512 29 512 64V320C512 321 512 322 512 323C512 356 485 384 451 384H61ZM464 256V64C464 55 457 48 448 48H64C55 48 48 55 48 64V256L203 138C234 114 278 114 309 138L464 256ZM48 323C48 330 54 336 61 336H451C458 336 464 330 464 323C464 318 462 314 459 312L280 176C266 166 246 166 232 176L53 312C50 314 48 318 48 323Z" />
  </g>
</svg>