<?xml version='1.0' encoding='utf-8'?>
<svg xmlns="http://www.w3.org/2000/svg" viewBox="0 0 512 512" width="100" height="100" fill="currentColor">
  <g transform="scale(1, -1) translate(0, -448)">
    <path d="M189 246Q218 246 241 260Q263 273 277 296Q290 319 291 347Q290 375 277 398Q263 421 241 435Q218 448 189 448Q161 448 138 435Q115 421 102 398Q88 375 88 347Q88 319 102 296Q115 273 138 260Q161 246 189 246ZM189 291Q174 291 161 299Q148 306 141 319Q133 332 133 347Q133 363 141 376Q148 388 161 396Q174 403 189 403Q205 403 218 396Q230 388 238 376Q245 363 246 347Q245 332 238 319Q230 306 218 299Q205 291 189 291ZM191 118Q185 119 181 121Q176 123 173 128L125 193Q101 186 83 171Q65 156 55 135Q45 115 45 91V-19H82V74Q82 84 89 90Q95 97 105 97Q114 97 121 90Q127 84 127 74V-19H138Q148 -19 154 -25Q160 -32 161 -41Q160 -51 154 -57Q148 -64 138 -64H22Q12 -63 6 -57Q0 -51 0 -41V91Q0 119 9 144Q19 169 37 189Q55 209 79 222Q102 236 131 240Q132 240 134 240Q139 240 144 238Q149 235 152 231L190 180L224 230Q227 235 232 237Q237 240 243 240Q246 240 246 240Q247 240 246 240Q245 240 245 240Q271 237 294 225Q317 214 336 196Q342 189 342 180Q342 171 336 164Q329 157 320 157Q310 157 304 164Q293 174 280 181Q267 189 253 192L209 128Q206 123 201 121Q197 118 191 118Q191 118 190 118H191ZM475 -41Q474 -51 468 -57Q462 -64 452 -64H197Q188 -64 182 -57Q175 -51 175 -41Q175 -32 182 -25Q188 -19 197 -19H452Q462 -19 468 -25Q474 -32 475 -41ZM508 140Q502 147 493 147H244Q238 147 233 143Q228 140 226 134L192 17Q191 13 192 9Q192 4 195 1Q200 -7 210 -7H459Q465 -7 470 -3Q475 0 477 6L511 123Q512 127 511 132Q510 136 508 140ZM351 81Q356 80 359 78Q362 75 362 70Q362 66 359 63Q356 60 351 60Q347 60 344 63Q341 66 341 70Q341 75 344 78Q347 80 351 81Z" />
  </g>
</svg>