<?xml version='1.0' encoding='utf-8'?>
<svg xmlns="http://www.w3.org/2000/svg" viewBox="0 0 448 512" width="100" height="100" fill="currentColor">
  <g transform="scale(1, -1) translate(0, -448)">
    <path d="M448 192C448 165 427 144 400 144C373 144 352 165 352 192C352 219 373 240 400 240C427 240 448 219 448 192ZM272 192C272 165 251 144 224 144C197 144 176 165 176 192C176 219 197 240 224 240C251 240 272 219 272 192ZM48 144C21 144 0 165 0 192C0 219 21 240 48 240C75 240 96 219 96 192C96 165 75 144 48 144Z" />
  </g>
</svg>