<?xml version='1.0' encoding='utf-8'?>
<svg xmlns="http://www.w3.org/2000/svg" viewBox="0 0 512 512" width="100" height="100" fill="currentColor">
  <g transform="scale(1, -1) translate(0, -448)">
    <path d="M206 355 219 416H293L307 355C308 348 313 342 320 339C331 334 341 328 351 321C357 316 365 315 372 317L432 336L468 272L423 230C417 225 414 217 415 210C416 198 416 186 415 174C414 167 417 159 423 154L468 112L432 48L372 67C365 69 357 67 351 63C341 56 331 50 320 45C313 42 308 36 307 29L293 -32H219L206 29C204 36 199 42 192 45C181 50 171 56 161 63C155 67 147 69 140 67L80 48L44 112L89 154C95 159 98 167 97 174C96 186 96 198 97 210C98 217 95 225 89 230L44 272L80 336L140 317C147 315 155 316 161 321C171 328 181 334 192 339C199 342 204 348 206 355ZM213 464C194 464 178 451 174 433L161 377C155 374 149 370 143 367L89 384C71 389 51 382 42 365L-1 291C-10 274 -7 254 6 241L48 202C48 196 48 188 48 181L6 143C-7 130 -11 110 -1 93L42 19C51 2 71 -5 89 0L143 17C149 13 155 10 161 7L174 -49C178 -67 194 -80 213 -80H299C318 -80 334 -67 338 -49L351 7C357 10 363 13 369 17L424 0C442 -5 461 2 470 19L513 93C523 110 520 130 506 143L464 181C464 188 464 195 464 202L506 241C520 254 523 274 513 291L470 365C461 382 441 389 424 384L369 367C363 370 357 374 351 377L338 433C334 451 318 464 299 464H213ZM304 192C304 165 283 144 256 144C229 144 208 165 208 192C208 219 229 240 256 240C283 240 304 219 304 192ZM256 288C203 288 160 245 160 192C160 139 203 96 256 96C309 96 352 139 352 192C352 245 309 288 256 288Z" />
  </g>
</svg>