<?xml version='1.0' encoding='utf-8'?>
<svg xmlns="http://www.w3.org/2000/svg" viewBox="0 0 512 512" width="100" height="100" fill="currentColor">
  <g transform="scale(1, -1) translate(0, -448)">
    <path d="M353 -47Q342 -47 333 -40Q324 -32 322 -21L320 -7Q320 -6 319 -5Q318 -5 318 -4Q317 -4 316 -4Q315 -4 315 -4L302 -9Q297 -11 291 -11Q282 -11 275 -7Q268 -2 264 5L242 42Q237 52 239 63Q240 74 250 82L260 91Q262 93 262 94Q262 95 260 96L250 105Q240 113 238 124Q236 135 242 146L263 182Q268 190 275 194Q282 198 291 198Q296 198 298 198Q300 198 300 197Q301 197 302 196L315 191Q316 191 316 191Q317 191 318 192Q319 192 320 194L322 208Q324 220 333 227Q342 235 354 235H396Q408 235 416 227Q425 220 427 208L430 195Q430 193 430 193Q431 192 431 192Q432 192 433 192Q434 192 434 192L447 197Q453 199 459 199Q467 199 474 194Q481 190 486 183L507 146Q513 136 511 124Q509 113 500 106L489 97Q487 95 488 94Q487 93 489 91L500 82Q509 75 511 64Q513 53 507 42L486 5Q482 -2 474 -6Q467 -11 459 -11Q453 -11 451 -10Q450 -10 449 -10Q449 -9 447 -9L434 -4Q433 -4 433 -4Q432 -4 431 -4Q430 -5 430 -7L427 -21Q425 -32 416 -40Q408 -47 396 -47H354H353ZM386 -4 387 0Q389 11 395 19Q400 28 410 33Q420 40 433 40Q439 40 442 39Q446 38 450 37L454 35L465 55L462 58Q453 64 449 74Q444 83 444 94Q444 105 449 114Q453 124 462 130L465 133L453 153L449 151Q442 148 433 148Q420 149 410 155Q400 160 394 169Q389 177 387 188L386 192H363V188Q361 177 355 169Q349 160 340 155Q329 148 316 148Q310 148 307 149Q304 150 300 151L296 153L285 133L288 130Q296 124 300 114Q305 105 305 94Q305 83 301 74Q296 64 288 57L285 55L296 35L300 37Q308 40 316 40Q329 39 340 33Q349 28 355 19Q361 11 363 0V-4H386ZM29 -17Q18 -16 10 -9Q3 -1 3 10V47Q3 57 9 65Q16 72 26 73V352Q14 353 7 361Q0 369 0 380V420Q0 432 8 440Q16 448 28 448H68Q79 448 87 441Q95 434 96 422H368Q369 434 376 441Q384 448 396 448H436Q448 448 456 440Q463 432 464 420V380Q463 369 456 361Q449 353 438 352V282Q437 272 431 266Q425 260 416 260Q406 260 400 266Q394 273 394 282V352Q383 353 376 361Q369 368 368 379H96Q95 368 88 361Q80 353 70 352V74Q79 72 85 66Q91 60 93 51H190Q200 50 206 44Q212 38 212 29V24Q210 17 204 12Q198 7 190 7H92Q91 -3 84 -10Q76 -16 66 -16H29V-17ZM375 155Q392 155 406 147Q419 139 428 125Q436 111 436 94Q436 77 428 63Q420 49 406 41Q392 33 375 32Q358 33 344 41Q330 49 322 63Q313 77 313 94Q313 111 322 125Q330 139 344 147Q357 155 375 155ZM375 112Q370 112 365 110Q361 108 358 103Q355 99 355 94Q355 89 358 84Q361 80 365 78Q370 76 375 76Q380 76 384 78Q389 80 392 84Q394 89 394 94Q394 99 392 103Q389 108 384 110Q380 112 375 112ZM168 285Q189 286 208 276Q226 266 237 247Q247 229 247 208Q247 188 237 169Q226 151 208 141Q189 131 168 132Q147 131 128 141Q110 151 99 169Q89 188 89 208Q89 229 99 247Q110 266 128 276Q147 286 168 285ZM168 245Q157 245 149 240Q141 235 136 227Q131 219 131 208Q131 198 136 190Q141 181 149 176Q157 171 168 171Q178 171 187 176Q195 181 200 190Q205 198 205 208Q205 219 200 227Q195 235 187 240Q178 245 168 245ZM263 232Q258 232 254 235Q250 237 248 242Q241 261 225 274Q210 287 190 292Q184 293 181 297Q178 302 178 307V339Q178 346 182 350Q187 355 193 355H285Q292 355 296 350Q300 346 301 339V247Q300 241 296 236Q292 232 285 232H263Z" />
  </g>
</svg>