<?xml version='1.0' encoding='utf-8'?>
<svg xmlns="http://www.w3.org/2000/svg" viewBox="0 0 512 512" width="100" height="100" fill="currentColor">
  <g transform="scale(1, -1) translate(0, -448)">
    <path d="M256 -64C397 -64 512 51 512 192C512 333 397 448 256 448C115 448 0 333 0 192C0 51 115 -64 256 -64ZM232 104V168H168C155 168 144 179 144 192C144 205 155 216 168 216H232V280C232 293 243 304 256 304C269 304 280 293 280 280V216H344C357 216 368 205 368 192C368 179 357 168 344 168H280V104C280 91 269 80 256 80C243 80 232 91 232 104Z" />
  </g>
</svg>