<?xml version='1.0' encoding='utf-8'?>
<svg xmlns="http://www.w3.org/2000/svg" viewBox="0 0 512 512" width="100" height="100" fill="currentColor">
  <g transform="scale(1, -1) translate(0, -448)">
    <path d="M410 144Q404 146 398 143Q392 139 391 133L360 20Q358 14 353 10Q347 7 341 9L90 75Q83 77 80 83Q76 89 78 95L86 124Q88 131 84 137Q81 142 75 144Q68 146 62 142Q57 139 55 133L48 103Q44 90 48 78Q51 66 60 57Q69 48 81 45L333 -23Q339 -24 345 -24Q362 -24 374 -14Q387 -5 391 11L422 124Q424 131 420 137Q417 143 410 144ZM101 240Q103 240 105 240Q111 240 115 244Q119 247 121 252L151 365Q153 372 158 375Q164 378 170 377L421 309Q428 308 431 302Q434 296 433 290L425 261Q423 254 426 248Q430 243 436 241Q443 239 448 243Q454 246 456 252L464 282Q467 295 464 307Q460 319 451 328Q443 337 430 340L179 408Q166 411 153 408Q141 404 132 395Q123 387 120 374L89 261Q87 254 91 248Q94 242 101 240ZM80 176Q86 177 91 181Q95 186 96 192Q95 199 91 204Q86 208 80 208H48Q41 208 36 204Q32 199 32 192Q32 186 36 181Q41 177 48 176ZM144 208Q137 208 132 204Q128 199 128 192Q128 186 132 181Q137 177 144 176H176Q182 177 187 181Q191 186 192 192Q191 199 187 204Q182 208 176 208ZM240 208Q233 208 228 204Q224 199 224 192Q224 186 228 181Q233 177 240 176H272Q278 177 283 181Q287 186 288 192Q287 199 283 204Q278 208 272 208ZM336 208Q329 208 324 204Q320 199 320 192Q320 186 324 181Q329 177 336 176H368Q374 177 379 181Q383 186 384 192Q383 199 379 204Q374 208 368 208ZM464 208H432Q425 208 420 204Q416 199 416 192Q416 186 420 181Q425 177 432 176H464Q470 177 475 181Q479 186 480 192Q479 199 475 204Q470 208 464 208Z" />
  </g>
</svg>