<?xml version='1.0' encoding='utf-8'?>
<svg xmlns="http://www.w3.org/2000/svg" viewBox="0 0 448 512" width="100" height="100" fill="currentColor">
  <g transform="scale(1, -1) translate(0, -448)">
    <path d="M64 384C46 384 32 370 32 352V32C32 14 46 0 64 0H384C402 0 416 14 416 32V352C416 370 402 384 384 384H64ZM0 352C0 387 29 416 64 416H384C419 416 448 387 448 352V32C448 -3 419 -32 384 -32H64C29 -32 0 -3 0 32V352ZM224 288C198 288 176 266 176 240C176 231 169 224 160 224C151 224 144 231 144 240C144 284 180 320 224 320C268 320 304 284 304 240C304 200 278 180 258 170C246 164 240 155 240 148V142C240 133 233 126 224 126C215 126 208 133 208 142V148C208 172 226 190 244 199C259 206 272 217 272 240C272 266 251 288 224 288ZM200 72C200 85 211 96 224 96C237 96 248 85 248 72C248 59 237 48 224 48C211 48 200 59 200 72Z" />
  </g>
</svg>