<?xml version='1.0' encoding='utf-8'?>
<svg xmlns="http://www.w3.org/2000/svg" viewBox="0 0 512 512" width="100" height="100" fill="currentColor">
  <g transform="scale(1, -1) translate(0, -448)">
    <path d="M186 336C179 332 173 329 167 325C159 319 149 318 139 321L67 345L30 279L86 229C93 222 97 213 97 203C96 196 96 188 97 181C97 171 93 161 86 155L30 105L67 39L139 63C149 66 159 64 167 59C173 55 179 51 186 48C195 44 201 35 203 26L218 -48H294L309 26C311 35 318 44 327 48C333 51 339 55 345 59C354 64 364 66 373 63L445 39L483 105L426 155C419 161 415 171 416 181C416 185 416 188 416 192C416 196 416 199 416 203C415 213 419 222 426 229L483 279L445 345L373 321C364 318 354 319 345 325C339 329 333 332 327 336C318 340 311 348 309 358L294 432H218L203 358C201 348 195 340 186 336ZM294 464C309 464 323 453 326 438L341 364C349 361 356 356 363 351L435 375C449 380 465 374 473 361L511 295C518 282 516 265 504 255L448 205C449 196 449 187 448 179L504 129C516 119 518 102 511 89L473 23C465 10 450 4 435 9L364 33C356 28 349 23 341 19L326 -55C323 -69 310 -80 294 -80H219C203 -80 190 -69 187 -55L172 19C164 23 157 28 150 33L78 9C63 4 47 10 40 23L2 89C-6 102 -3 119 8 129L65 179C64 188 64 196 65 205L8 255C-3 265 -6 282 2 295L40 361C47 374 63 380 78 375L149 351C156 356 164 361 172 364L187 438C190 453 203 464 218 464H294ZM200 192C200 161 225 136 256 136C287 136 312 161 312 192C312 223 287 248 256 248C225 248 200 223 200 192ZM256 104C207 104 168 144 168 192C168 241 208 280 256 280C305 280 344 240 344 192C344 143 304 104 256 104Z" />
  </g>
</svg>