<?xml version='1.0' encoding='utf-8'?>
<svg xmlns="http://www.w3.org/2000/svg" viewBox="0 0 576 512" width="100" height="100" fill="currentColor">
  <g transform="scale(1, -1) translate(0, -448)">
    <path d="M561 387C569 392 570 402 565 409C560 417 550 418 543 413L464 356L449 365C431 377 409 384 387 384H184C157 384 131 374 111 357L33 413C26 418 16 416 11 409C6 402 7 392 15 387L103 323C109 318 118 319 123 325L127 329C142 344 163 352 184 352H249L144 247C132 234 132 214 144 201L145 200C189 157 260 157 303 200L336 233L439 130C458 111 458 81 439 62L420 43L387 75C381 81 371 81 365 75C359 69 359 59 365 53L396 21C377 7 355 0 331 0H319L275 43C269 49 259 49 253 43C246 37 246 27 253 21L273 0H245C215 0 187 12 166 33L27 171C21 177 11 177 5 171C-2 165 -2 155 5 149L143 10C170 -17 207 -32 245 -32H331C369 -32 406 -17 433 10L462 39C463 41 465 42 466 43C466 44 467 44 467 45L571 149C578 155 578 165 571 171C565 178 555 178 549 171L485 107C482 124 475 140 462 153L347 267C341 273 331 273 325 267L281 223C249 192 199 192 168 223L167 224L295 352H387C403 352 418 347 431 339L455 323C461 319 468 319 474 323L562 387ZM561 387Z" />
  </g>
</svg>