<?xml version='1.0' encoding='utf-8'?>
<svg xmlns="http://www.w3.org/2000/svg" viewBox="0 0 512 512" width="100" height="100" fill="currentColor">
  <g transform="scale(1, -1) translate(0, -448)">
    <path d="M279 444Q275 448 268 448H15Q8 448 4 444Q0 440 0 433V-23Q0 -29 4 -33Q8 -37 15 -38H150Q156 -37 161 -33Q165 -29 165 -23Q165 -16 161 -12Q156 -8 150 -7H30V418H240V339Q240 325 246 314Q251 303 261 297Q272 290 286 290H368V124Q368 118 372 114Q376 109 383 109Q389 109 393 114Q398 118 398 124V314Q398 320 394 324L279 444ZM217 9H267V29H217V60H276V81H190V-47H276V-26H217V9ZM367 76Q356 81 342 81H292V-47H318V-2H341Q364 -2 377 9Q390 20 390 39Q390 51 384 61Q378 71 367 76ZM358 25Q352 20 342 20H318V60H342Q352 60 358 54Q363 48 363 39Q363 29 358 24V25ZM458 29Q445 32 439 36Q433 41 433 47Q433 54 438 58Q443 62 453 62Q463 62 469 57Q474 52 474 44H501Q501 55 495 64Q489 73 478 78Q467 83 454 83Q440 83 429 79Q418 74 412 66Q406 58 406 48Q406 28 428 16Q436 12 450 7Q463 3 469 -1Q474 -5 474 -13Q474 -19 469 -23Q464 -27 454 -27Q429 -27 429 -6H402Q402 -18 409 -28Q415 -37 427 -42Q440 -48 454 -48Q475 -48 488 -38Q500 -29 500 -12Q500 3 490 13Q480 23 457 30L458 29Z" />
  </g>
</svg>