<?xml version='1.0' encoding='utf-8'?>
<svg xmlns="http://www.w3.org/2000/svg" viewBox="0 0 576 512" width="100" height="100" fill="currentColor">
  <g transform="scale(1, -1) translate(0, -448)">
    <path d="M16 -50Q9 -50 4 -45Q0 -41 0 -35Q0 -30 2 -25L74 97Q39 126 21 162Q3 198 3 237Q3 281 25 319Q47 358 86 387Q125 416 177 432Q229 448 288 448Q347 448 399 432Q450 416 489 387Q528 358 550 319Q573 281 573 237Q573 193 550 155Q528 117 489 88Q450 59 399 43Q347 26 288 26Q239 26 192 38L23 -48Q20 -50 16 -50ZM288 416Q235 416 189 402Q144 389 109 364Q74 339 55 307Q35 275 35 237Q35 202 53 171Q71 139 105 113Q110 110 111 104Q112 98 109 92L58 5L184 69Q189 72 195 70Q239 58 288 58Q340 58 386 72Q432 86 467 110Q501 135 521 167Q541 200 541 237Q541 274 521 307Q501 339 467 364Q432 388 386 402Q340 416 288 416Z" />
  </g>
</svg>