<?xml version='1.0' encoding='utf-8'?>
<svg xmlns="http://www.w3.org/2000/svg" viewBox="0 0 512 512" width="100" height="100" fill="currentColor">
  <g transform="scale(1, -1) translate(0, -448)">
    <path d="M110 176Q101 175 96 168L70 132Q65 126 66 119Q68 112 74 107Q79 103 84 104Q90 104 95 107V48Q95 40 100 35Q105 30 113 30H187Q183 25 183 19Q183 12 188 7Q193 1 201 1Q205 1 208 2Q211 3 213 6L249 37Q256 43 256 51Q255 60 248 65L212 92Q206 96 199 95Q192 94 187 88Q183 83 183 77Q184 71 187 66H131V107Q137 103 143 104Q149 104 154 108Q160 113 160 120Q161 128 156 134L130 163Q130 164 127 166Q125 169 121 172Q116 175 110 176ZM426 40 372 159Q370 164 365 167Q361 170 356 170Q350 170 346 167Q342 164 339 159L282 40Q279 33 281 26Q283 19 290 16H291Q298 13 304 15Q311 18 315 24L327 50Q328 50 330 50H382L393 25Q396 20 400 17Q405 14 410 14Q415 14 415 15Q416 15 417 16Q424 19 427 26Q429 33 426 40ZM344 86 355 109 365 86H344ZM149 302Q157 314 162 325Q166 336 168 344H136Q138 334 141 324Q145 313 149 302ZM83 178Q94 191 109 192H110H111Q121 191 128 186Q135 182 139 178Q143 173 144 172L172 138H182H217Q219 137 221 138V111Q221 103 226 98Q231 93 239 93Q246 93 252 98Q257 103 257 111V206H475V-27H257V-16Q257 -8 251 -3Q246 2 239 3Q231 2 226 -3Q221 -8 220 -16V-45Q221 -53 226 -58Q231 -63 239 -63H493Q501 -63 506 -58Q511 -53 512 -45V225Q511 232 506 238Q501 243 493 243H310V430Q310 438 305 443Q300 448 292 448H18Q10 448 5 443Q0 438 0 430V156Q0 148 5 143Q10 138 18 138H54L83 178ZM219 344H205Q203 328 194 308Q185 288 169 269Q177 260 186 257Q194 255 197 249Q201 242 199 235Q197 228 193 225Q188 221 182 221Q178 221 177 221Q177 221 177 221Q177 222 177 222Q166 225 158 231Q149 237 142 245Q130 237 116 232Q103 227 86 224H84Q77 224 72 229Q67 233 66 240Q65 247 69 253Q74 259 81 260Q105 264 122 275Q115 289 110 303Q105 316 102 327Q100 338 99 344H84Q76 344 71 349Q66 355 66 362Q66 370 71 375Q76 380 84 380H219Q227 380 232 375Q237 370 237 362Q237 355 232 349Q227 344 219 344Z" />
  </g>
</svg>