<?xml version='1.0' encoding='utf-8'?>
<svg xmlns="http://www.w3.org/2000/svg" viewBox="0 0 512 512" width="100" height="100" fill="currentColor">
  <g transform="scale(1, -1) translate(0, -448)">
    <path d="M288 416C288 434 274 448 256 448C238 448 224 434 224 416C224 398 238 384 256 384C274 384 288 398 288 416ZM288 -32C288 -14 274 0 256 0C238 0 224 -14 224 -32C224 -50 238 -64 256 -64C274 -64 288 -50 288 -32ZM448 192C448 174 462 160 480 160C498 160 512 174 512 192C512 210 498 224 480 224C462 224 448 210 448 192ZM32 160C50 160 64 174 64 192C64 210 50 224 32 224C14 224 0 210 0 192C0 174 14 160 32 160ZM75 11C83 2 95 -1 106 1C118 4 127 13 130 25C133 36 129 48 120 56C112 65 100 69 89 66C77 63 68 54 65 42C63 31 66 19 75 11ZM392 11C400 2 412 -1 423 1C435 4 444 13 447 25C449 36 446 48 437 56C429 65 417 69 406 66C394 63 385 54 382 42C379 31 383 19 392 11ZM75 373C66 365 63 353 65 342C68 330 77 321 89 318C100 315 112 319 120 328C129 336 133 348 130 359C127 371 118 380 106 383C95 385 83 382 75 373Z" />
  </g>
</svg>