<?xml version='1.0' encoding='utf-8'?>
<svg xmlns="http://www.w3.org/2000/svg" viewBox="0 0 512 512" width="100" height="100" fill="currentColor">
  <g transform="scale(1, -1) translate(0, -448)">
    <path d="M288 384V320H224V384H288ZM224 288H240V224H112C77 224 48 195 48 160V96H32C14 96 0 82 0 64V0C0 -18 14 -32 32 -32H96C114 -32 128 -18 128 0V64C128 82 114 96 96 96H80V160C80 178 94 192 112 192H240V96H224C206 96 192 82 192 64V0C192 -18 206 -32 224 -32H288C306 -32 320 -18 320 0V64C320 82 306 96 288 96H272V192H400C418 192 432 178 432 160V96H416C398 96 384 82 384 64V0C384 -18 398 -32 416 -32H480C498 -32 512 -18 512 0V64C512 82 498 96 480 96H464V160C464 195 435 224 400 224H272V288H288C306 288 320 302 320 320V384C320 402 306 416 288 416H224C206 416 192 402 192 384V320C192 302 206 288 224 288ZM32 64H96V0H32V64ZM224 64H288V0H224V64ZM416 64H480V0H416V64Z" />
  </g>
</svg>