<?xml version='1.0' encoding='utf-8'?>
<svg xmlns="http://www.w3.org/2000/svg" viewBox="0 0 448 512" width="100" height="100" fill="currentColor">
  <g transform="scale(1, -1) translate(0, -448)">
    <path d="M64 384C46 384 32 370 32 352V32C32 14 46 0 64 0H384C402 0 416 14 416 32V275C416 283 413 291 407 297L329 375C327 377 324 379 320 381V272C320 254 306 240 288 240H128C110 240 96 254 96 272V384H64ZM128 384V272H288V384H128ZM0 352C0 387 29 416 64 416H307C324 416 340 409 352 397L429 320C441 308 448 292 448 275V32C448 -3 419 -32 384 -32H64C29 -32 0 -3 0 32V352ZM256 128C256 146 242 160 224 160C206 160 192 146 192 128C192 110 206 96 224 96C242 96 256 110 256 128ZM160 128C160 163 189 192 224 192C259 192 288 163 288 128C288 93 259 64 224 64C189 64 160 93 160 128Z" />
  </g>
</svg>