<?xml version='1.0' encoding='utf-8'?>
<svg xmlns="http://www.w3.org/2000/svg" viewBox="0 0 320 512" width="100" height="100" fill="currentColor">
  <g transform="scale(1, -1) translate(0, -448)">
    <path d="M144 432C144 441 151 448 160 448C169 448 176 441 176 432V384H256C265 384 272 377 272 368C272 359 265 352 256 352H114C78 352 48 322 48 286C48 254 72 226 104 221L218 203C267 195 304 153 304 102C304 46 258 0 202 0H176V-48C176 -57 169 -64 160 -64C151 -64 144 -57 144 -48V0H48C39 0 32 7 32 16C32 25 39 32 48 32H202C241 32 272 63 272 102C272 137 247 166 213 172L99 189C51 197 16 238 16 286C16 340 60 384 114 384H144V432Z" />
  </g>
</svg>