<?xml version='1.0' encoding='utf-8'?>
<svg xmlns="http://www.w3.org/2000/svg" viewBox="0 0 384 512" width="100" height="100" fill="currentColor">
  <g transform="scale(1, -1) translate(0, -448)">
    <path d="M215 407C202 419 182 419 169 407L9 247C-3 234 -3 214 9 201C22 189 42 189 55 201L192 339L329 201C342 189 362 189 375 201C387 214 387 234 375 247L215 407ZM375 55 215 215C202 227 182 227 169 215L9 55C-3 42 -3 22 9 9C22 -3 42 -3 55 9L192 147L329 9C342 -3 362 -3 375 9C387 22 387 42 375 55Z" />
  </g>
</svg>