<?xml version='1.0' encoding='utf-8'?>
<svg xmlns="http://www.w3.org/2000/svg" viewBox="0 0 512 512" width="100" height="100" fill="currentColor">
  <g transform="scale(1, -1) translate(0, -448)">
    <path d="M257 448C271 448 285 440 292 427L508 27C514 15 514 0 507 -13C500 -25 487 -32 473 -32H41C26 -32 13 -25 6 -13C-1 0 -1 15 5 27L221 427C228 440 242 448 257 448ZM257 416C254 416 251 414 250 412L34 12C32 9 32 6 34 4C35 1 38 0 41 0H473C475 0 478 1 480 4C481 6 481 9 480 12L264 412C262 414 260 416 257 416ZM257 48C243 48 233 59 233 72C233 85 243 96 257 96C270 96 281 85 281 72C281 59 270 48 257 48ZM257 272C270 272 281 260 280 247L273 143C272 134 265 128 257 128C248 128 241 134 241 143L233 247C232 260 243 272 257 272Z" />
  </g>
</svg>