<?xml version='1.0' encoding='utf-8'?>
<svg xmlns="http://www.w3.org/2000/svg" viewBox="0 0 512 512" width="100" height="100" fill="currentColor">
  <g transform="scale(1, -1) translate(0, -448)">
    <path d="M336 96C433 96 512 175 512 272C512 369 433 448 336 448C239 448 160 369 160 272C160 253 163 235 168 218L7 57C3 52 0 46 0 40V-40C0 -53 11 -64 24 -64H104C117 -64 128 -53 128 -40V0H168C181 0 192 11 192 24V64H232C238 64 245 66 249 71L282 104C299 99 317 96 336 96ZM376 352C398 352 416 334 416 312C416 290 398 272 376 272C354 272 336 290 336 312C336 334 354 352 376 352Z" />
  </g>
</svg>