<?xml version='1.0' encoding='utf-8'?>
<svg xmlns="http://www.w3.org/2000/svg" viewBox="0 0 512 512" width="100" height="100" fill="currentColor">
  <g transform="scale(1, -1) translate(0, -448)">
    <path d="M32 400C32 409 25 416 16 416C7 416 0 409 0 400V48C0 4 36 -32 80 -32H496C505 -32 512 -25 512 -16C512 -7 505 0 496 0H80C54 0 32 21 32 48V400ZM144 352H368C377 352 384 359 384 368C384 377 377 384 368 384H144C135 384 128 377 128 368C128 359 135 352 144 352ZM144 256C135 256 128 249 128 240C128 231 135 224 144 224H304C313 224 320 231 320 240C320 249 313 256 304 256H144ZM144 128C135 128 128 121 128 112C128 103 135 96 144 96H432C441 96 448 103 448 112C448 121 441 128 432 128H144Z" />
  </g>
</svg>