<?xml version='1.0' encoding='utf-8'?>
<svg xmlns="http://www.w3.org/2000/svg" viewBox="0 0 512 512" width="100" height="100" fill="currentColor">
  <g transform="scale(1, -1) translate(0, -448)">
    <path d="M480 192C480 316 380 416 256 416C132 416 32 316 32 192C32 68 132 -32 256 -32C380 -32 480 68 480 192ZM0 192C0 333 115 448 256 448C397 448 512 333 512 192C512 51 397 -64 256 -64C115 -64 0 51 0 192ZM256 288C230 288 208 266 208 240C208 231 201 224 192 224C183 224 176 231 176 240C176 284 212 320 256 320C300 320 336 284 336 240C336 200 310 180 290 170C278 164 272 155 272 148V142C272 133 265 126 256 126C247 126 240 133 240 142V148C240 172 258 190 276 199C291 206 304 217 304 240C304 266 283 288 256 288ZM232 72C232 85 243 96 256 96C269 96 280 85 280 72C280 59 269 48 256 48C243 48 232 59 232 72Z" />
  </g>
</svg>