<?xml version='1.0' encoding='utf-8'?>
<svg xmlns="http://www.w3.org/2000/svg" viewBox="0 0 576 512" width="100" height="100" fill="currentColor">
  <g transform="scale(1, -1) translate(0, -448)">
    <path d="M128 320C128 373 171 416 224 416C277 416 320 373 320 320C320 267 277 224 224 224C171 224 128 267 128 320ZM352 320C352 391 295 448 224 448C153 448 96 391 96 320C96 249 153 192 224 192C295 192 352 249 352 320ZM32 -32C32 47 97 112 176 112H240V123C240 130 241 137 243 144H176C79 144 0 65 0 -32V-48C0 -57 7 -64 16 -64C25 -64 32 -57 32 -48V-32ZM320 121 416 153V-57L412 -55C356 -29 320 28 320 90V121ZM432 -64C432 -64 431 -64 431 -64H433C433 -64 432 -64 432 -64ZM452 -55 448 -57V153L544 121V90C544 28 508 -29 452 -55ZM417 -93C422 -95 427 -96 432 -96C437 -96 442 -95 447 -93L466 -84C533 -52 576 15 576 90V121C576 135 567 147 554 151L442 189C436 191 428 191 422 189L310 151C297 147 288 135 288 121V90C288 15 331 -52 398 -84L417 -93Z" />
  </g>
</svg>