<?xml version='1.0' encoding='utf-8'?>
<svg xmlns="http://www.w3.org/2000/svg" viewBox="0 0 576 512" width="100" height="100" fill="currentColor">
  <g transform="scale(1, -1) translate(0, -448)">
    <path d="M64 368C55 368 48 361 48 352V64C48 55 55 48 64 48H67C78 85 112 112 152 112C192 112 226 85 237 48H339C344 65 354 81 368 92V352C368 361 361 368 352 368H64ZM67 0H64C29 0 0 29 0 64V352C0 387 29 416 64 416H352C387 416 416 387 416 352V320H471C488 320 505 313 517 301L557 261C569 249 576 232 576 215V64C576 29 547 0 512 0H509C498 -37 464 -64 424 -64C384 -64 350 -37 339 0H237C226 -37 192 -64 152 -64C112 -64 78 -37 67 0ZM416 192H528V215C528 220 526 224 523 227L483 267C480 270 476 272 471 272H416V192ZM416 144V112C419 112 421 112 424 112C464 112 498 85 509 48H512C521 48 528 55 528 64V144H416ZM152 -16C174 -16 192 2 192 24C192 46 174 64 152 64C130 64 112 46 112 24C112 2 130 -16 152 -16ZM424 -16C446 -16 464 2 464 24C464 46 446 64 424 64C402 64 384 46 384 24C384 2 402 -16 424 -16Z" />
  </g>
</svg>