<?xml version='1.0' encoding='utf-8'?>
<svg xmlns="http://www.w3.org/2000/svg" viewBox="0 0 512 512" width="100" height="100" fill="currentColor">
  <g transform="scale(1, -1) translate(0, -448)">
    <path d="M0 325V328C1 359 27 384 59 384H454C485 384 511 359 512 328V64C512 29 483 0 448 0H64C29 0 0 29 0 64V325ZM480 272 303 143C275 122 237 122 209 143L32 272V64C32 46 46 32 64 32H448C466 32 480 46 480 64V272ZM480 325C480 340 468 352 454 352H59C44 352 32 340 32 325C32 317 36 309 43 304L228 169C245 156 268 156 284 169L469 304C476 309 480 317 480 326ZM480 325Z" />
  </g>
</svg>