<?xml version='1.0' encoding='utf-8'?>
<svg xmlns="http://www.w3.org/2000/svg" viewBox="0 0 384 512" width="100" height="100" fill="currentColor">
  <g transform="scale(1, -1) translate(0, -448)">
    <path d="M308 146C335 175 352 213 352 256C352 344 280 416 192 416C104 416 32 344 32 256C32 213 49 175 76 146C96 125 116 97 124 64H260C268 97 288 125 308 146ZM128 16C128 -11 150 -32 176 -32H208C235 -32 256 -11 256 16V32H128V16ZM331 124C308 99 288 69 288 34V16C288 -28 252 -64 208 -64H176C132 -64 96 -28 96 16V34C96 69 76 99 53 124C20 158 0 205 0 256C0 362 86 448 192 448C298 448 384 362 384 256C384 205 364 158 331 124ZM112 272C112 263 105 256 96 256C87 256 80 263 80 272C80 325 123 368 176 368C185 368 192 361 192 352C192 343 185 336 176 336C141 336 112 307 112 272Z" />
  </g>
</svg>