<?xml version='1.0' encoding='utf-8'?>
<svg xmlns="http://www.w3.org/2000/svg" viewBox="0 0 512 512" width="100" height="100" fill="currentColor">
  <g transform="scale(1, -1) translate(0, -448)">
    <path d="M48 392C48 405 37 416 24 416C11 416 0 405 0 392V48C0 4 36 -32 80 -32H488C501 -32 512 -21 512 -8C512 5 501 16 488 16H80C62 16 48 30 48 48V392ZM473 279C482 288 482 304 473 313C464 322 448 322 439 313L320 194L241 273C232 282 217 282 207 273L103 169C94 160 94 144 103 135C112 126 128 126 137 135L224 222L303 143C312 134 328 134 337 143L473 279Z" />
  </g>
</svg>