<?xml version='1.0' encoding='utf-8'?>
<svg xmlns="http://www.w3.org/2000/svg" viewBox="0 0 512 512" width="100" height="100" fill="currentColor">
  <g transform="scale(1, -1) translate(0, -448)">
    <path d="M0 192C0 333 115 448 256 448C397 448 512 333 512 192C512 51 397 -64 256 -64C115 -64 0 51 0 192ZM288 352C288 370 274 384 256 384C238 384 224 370 224 352C224 334 238 320 256 320C274 320 288 334 288 352ZM256 32C291 32 320 61 320 96C320 112 314 127 304 138L374 277C379 289 375 303 363 309C351 315 337 310 331 299L261 160C259 160 258 160 256 160C221 160 192 131 192 96C192 61 221 32 256 32ZM176 304C176 322 162 336 144 336C126 336 112 322 112 304C112 286 126 272 144 272C162 272 176 286 176 304ZM96 160C114 160 128 174 128 192C128 210 114 224 96 224C78 224 64 210 64 192C64 174 78 160 96 160ZM448 192C448 210 434 224 416 224C398 224 384 210 384 192C384 174 398 160 416 160C434 160 448 174 448 192Z" />
  </g>
</svg>