<?xml version='1.0' encoding='utf-8'?>
<svg xmlns="http://www.w3.org/2000/svg" viewBox="0 0 576 512" width="100" height="100" fill="currentColor">
  <g transform="scale(1, -1) translate(0, -448)">
    <path d="M269 363 152 233C148 228 148 220 153 215C183 185 233 185 263 215L295 247C299 251 305 254 310 254C317 255 324 252 329 247L506 72L576 128V416L464 352L440 368C424 378 406 384 387 384H317C315 384 314 384 313 384C296 383 280 375 269 363ZM117 265 223 384H184C158 384 134 374 116 356L112 352L0 416V128L156 -2C179 -22 208 -32 238 -32H254L247 -25C238 -16 238 0 247 9C256 18 272 18 281 9L322 -32H331C350 -32 369 -28 386 -20L359 7C350 16 350 32 359 41C368 50 384 50 393 41L425 9L442 26C451 35 454 48 450 59L312 196L297 181C248 132 168 132 119 181C96 204 95 241 117 265Z" />
  </g>
</svg>