<?xml version='1.0' encoding='utf-8'?>
<svg xmlns="http://www.w3.org/2000/svg" viewBox="0 0 488 512" width="100" height="100" fill="currentColor">
  <g transform="scale(1, -1) translate(0, -448)">
    <path d="M193 53H24V424H341V225Q341 220 345 217Q348 213 354 213Q359 213 362 217Q366 220 366 225V436Q366 442 362 445Q359 448 354 448H12Q7 448 3 445Q0 442 0 436V41Q0 36 3 33Q7 29 12 29H193Q198 29 201 33Q205 36 205 41Q205 47 201 50Q198 53 193 53ZM276 370H74Q69 370 66 366Q62 363 62 357Q62 352 66 349Q69 345 74 345H276Q281 345 285 349Q288 352 288 357Q288 363 285 366Q281 370 276 370ZM74 279H198Q204 279 207 282Q210 286 211 291Q210 296 207 300Q204 303 198 303H74Q69 303 66 300Q62 296 62 291Q62 286 66 282Q69 279 74 279ZM288 224Q288 230 285 233Q281 236 276 237H74Q69 236 66 233Q62 230 62 224Q62 219 66 216Q69 212 74 212H276Q281 212 285 216Q288 219 288 224ZM74 170Q69 170 66 167Q62 163 62 158Q62 153 66 149Q69 146 74 146H229Q234 146 238 149Q241 153 241 158Q241 163 238 167Q234 170 229 170H74ZM364 191Q336 191 312 180Q288 168 270 147Q253 127 246 100Q244 91 244 82L238 88Q234 92 229 92Q224 92 220 88Q217 84 217 80Q217 75 220 71L249 42Q253 39 257 39Q262 39 266 42L295 71Q298 75 298 79Q298 84 295 88Q291 92 286 92Q281 92 277 88L268 79Q268 86 270 94Q276 115 289 132Q303 148 322 158Q342 167 364 167Q391 167 413 154Q435 141 448 119Q461 97 461 70Q461 43 448 21Q435 0 413 -13Q391 -26 364 -27Q346 -26 330 -20Q313 -14 300 -2Q296 1 291 1Q286 1 283 -3Q279 -7 280 -12Q280 -17 284 -20Q300 -35 321 -43Q341 -51 364 -51Q389 -51 411 -41Q433 -32 450 -15Q466 1 476 23Q485 45 485 70Q485 96 476 117Q466 139 450 156Q433 173 411 182Q389 191 364 191ZM354 138Q348 138 345 135Q341 131 341 126V58Q341 53 345 49Q348 46 354 46H420Q425 46 428 49Q432 53 432 58Q432 63 428 67Q425 70 420 70H366V126Q365 131 362 135Q359 138 353 138Z" />
  </g>
</svg>