<?xml version='1.0' encoding='utf-8'?>
<svg xmlns="http://www.w3.org/2000/svg" viewBox="0 0 320 512" width="100" height="100" fill="currentColor">
  <g transform="scale(1, -1) translate(0, -448)">
    <path d="M136 424C136 437 147 448 160 448C173 448 184 437 184 424V384H240C258 384 272 370 272 352C272 334 258 320 240 320H125C100 320 80 300 80 275C80 252 97 233 119 230L210 217C264 209 304 163 304 109C304 49 255 0 195 0H184V-40C184 -53 173 -64 160 -64C147 -64 136 -53 136 -40V0H64C46 0 32 14 32 32C32 50 46 64 64 64H195C220 64 240 84 240 109C240 132 224 151 201 154L110 167C56 174 16 221 16 275C16 335 65 384 125 384H136V424Z" />
  </g>
</svg>