<?xml version='1.0' encoding='utf-8'?>
<svg xmlns="http://www.w3.org/2000/svg" viewBox="0 0 384 512" width="100" height="100" fill="currentColor">
  <g transform="scale(1, -1) translate(0, -448)">
    <path d="M64 416H192V320C192 285 221 256 256 256H352V0C352 -18 338 -32 320 -32H64C46 -32 32 -18 32 0V384C32 402 46 416 64 416ZM224 403 339 288H256C238 288 224 302 224 320V403ZM64 448C29 448 0 419 0 384V0C0 -35 29 -64 64 -64H320C355 -64 384 -35 384 0V261C384 278 377 295 365 307L243 429C231 441 215 448 198 448H64ZM156 158C162 164 161 174 154 180C148 186 138 185 132 178L84 122C79 116 79 108 84 102L132 46C138 39 148 38 154 44C161 50 162 60 156 67L117 112L156 158ZM252 178C246 185 236 186 230 180C223 174 222 164 228 157L267 112L228 66C222 60 223 49 230 44C236 38 246 39 252 45L300 101C305 107 305 116 300 122L252 178Z" />
  </g>
</svg>