<?xml version='1.0' encoding='utf-8'?>
<svg xmlns="http://www.w3.org/2000/svg" viewBox="0 0 448 512" width="100" height="100" fill="currentColor">
  <g transform="scale(1, -1) translate(0, -448)">
    <path d="M161 421C163 427 169 432 176 432H272C279 432 286 427 288 421L299 384H150L161 421ZM116 384H16C7 384 0 377 0 368C0 359 7 352 16 352H432C441 352 448 359 448 368C448 377 441 384 432 384H332L318 430C312 450 293 464 272 464H176C155 464 136 450 130 430L116 384ZM29 304 52 -5C54 -38 82 -64 115 -64H333C366 -64 394 -38 396 -5L419 304H387L364 -2C363 -19 349 -32 333 -32H115C99 -32 85 -19 84 -2L61 304H29Z" />
  </g>
</svg>