<?xml version='1.0' encoding='utf-8'?>
<svg xmlns="http://www.w3.org/2000/svg" viewBox="0 0 512 512" width="100" height="100" fill="currentColor">
  <g transform="scale(1, -1) translate(0, -448)">
    <path d="M248 98Q246 98 245 98Q235 99 230 107Q225 114 226 124Q232 159 252 186Q272 214 302 229Q332 245 368 245Q386 245 398 243Q410 241 420 236Q429 232 440 226V237Q440 247 446 253Q453 259 462 259Q472 259 478 253Q484 247 484 237V173Q484 164 478 157Q472 151 462 151H398Q389 151 382 158Q376 164 376 173Q376 183 382 189Q388 195 397 196Q383 200 368 200Q343 200 322 189Q302 178 288 160Q274 141 270 116Q269 108 263 103Q257 97 248 97V98ZM512 101Q511 111 505 117Q499 123 489 124Q480 123 473 117Q467 111 467 101Q467 74 453 51Q440 29 418 16Q396 3 368 3Q347 3 336 5Q325 8 319 14Q312 19 303 27H320Q329 27 335 34Q342 40 342 49Q342 59 335 65Q329 71 319 72H255Q246 71 240 65Q233 58 233 49V-15Q233 -24 240 -31Q246 -37 256 -37Q265 -37 271 -31Q278 -24 278 -15V-11Q297 -26 320 -34Q343 -43 368 -43Q398 -42 424 -31Q450 -20 469 -1Q489 19 500 45Q511 71 512 101ZM198 -62Q207 -62 214 -56Q220 -49 220 -40Q220 -31 214 -24Q207 -18 198 -18H44V149H71V101Q71 92 78 85Q84 79 94 79H150Q159 79 166 85Q172 92 172 101V149H192Q201 149 207 155Q214 162 214 171Q214 180 207 187Q201 193 192 193H135V404H183V318Q183 308 189 302Q196 296 205 296H285Q294 296 300 302Q307 309 307 318V404H373V322Q373 313 380 306Q386 300 395 300Q405 300 411 307Q417 313 418 322V426Q417 436 411 442Q405 448 395 448H113Q103 448 97 442Q91 436 91 426V194H22Q12 194 6 187Q0 181 0 172V-40Q0 -49 6 -56Q12 -62 22 -62H198ZM116 124V149H128V124H116ZM228 340V404H262V340H228Z" />
  </g>
</svg>