<?xml version='1.0' encoding='utf-8'?>
<svg xmlns="http://www.w3.org/2000/svg" viewBox="0 0 640 512" width="100" height="100" fill="currentColor">
  <g transform="scale(1, -1) translate(0, -448)">
    <path d="M480 384C498 384 512 370 512 352V96C512 78 498 64 480 64H302C288 92 258 112 224 112C190 112 160 92 146 64H96C78 64 64 78 64 96V352C64 370 78 384 96 384H480ZM96 32H136C136 29 136 27 136 24C136 -25 175 -64 224 -64C273 -64 312 -25 312 24C312 27 312 29 312 32H624C633 32 640 39 640 48C640 57 633 64 624 64H535C541 73 544 84 544 96V352C544 387 515 416 480 416H96C61 416 32 387 32 352V96C32 61 61 32 96 32ZM336 320C327 320 320 313 320 304V176C320 167 327 160 336 160C345 160 352 167 352 176V304C352 313 345 320 336 320ZM416 304V176C416 167 423 160 432 160C441 160 448 167 448 176V304C448 313 441 320 432 320C423 320 416 313 416 304ZM144 320C135 320 128 313 128 304V176C128 167 135 160 144 160C153 160 160 167 160 176V304C160 313 153 320 144 320ZM224 304V176C224 167 231 160 240 160C249 160 256 167 256 176V304C256 313 249 320 240 320C231 320 224 313 224 304ZM224 80C255 80 280 55 280 24C280 -7 255 -32 224 -32C193 -32 168 -7 168 24C168 55 193 80 224 80Z" />
  </g>
</svg>