<?xml version='1.0' encoding='utf-8'?>
<svg xmlns="http://www.w3.org/2000/svg" viewBox="0 0 649 512" width="100" height="100" fill="currentColor">
  <g transform="scale(1, -1) translate(0, -448)">
    <path d="M518 358H17Q9 358 5 353Q0 348 0 341V-14Q0 -22 5 -26Q9 -31 17 -31H518Q525 -31 530 -26Q534 -22 535 -14V341Q534 348 530 353Q525 358 518 358ZM501 3H34V324H501V3ZM608 448H107Q100 448 95 444Q90 439 90 431V392Q90 385 95 380Q100 375 107 375Q114 375 119 380Q124 385 124 392V414H591V125H564Q557 125 552 120Q547 116 547 108Q547 101 552 96Q557 91 564 91H608Q615 91 620 96Q625 101 625 108V431Q625 439 620 444Q615 448 608 448ZM79 186H183Q190 186 195 191Q200 195 200 203V278Q200 285 195 290Q190 295 183 295H79Q72 295 67 290Q62 285 62 278V203Q62 195 67 191Q72 186 79 186ZM96 261H166V220H96V261ZM162 82H81Q74 82 69 77Q64 72 64 65Q64 57 69 53Q74 48 81 48H162Q169 48 174 53Q179 57 179 65Q179 72 174 77Q169 82 162 82ZM224 48H305Q312 48 317 53Q321 58 322 65Q321 72 317 77Q312 82 305 82H224Q217 82 212 77Q207 72 207 65Q207 58 212 53Q217 48 224 48ZM367 48H448Q455 48 460 53Q465 58 465 65Q465 72 460 77Q455 82 448 82H367Q360 82 355 77Q350 72 350 65Q350 58 355 53Q360 48 367 48Z" />
  </g>
</svg>