<?xml version='1.0' encoding='utf-8'?>
<svg xmlns="http://www.w3.org/2000/svg" viewBox="0 0 512 512" width="100" height="100" fill="currentColor">
  <g transform="scale(1, -1) translate(0, -448)">
    <path d="M0 32C0 41 7 48 16 48H82C89 84 121 112 160 112C199 112 231 84 238 48H496C505 48 512 41 512 32C512 23 505 16 496 16H238C231 -21 199 -48 160 -48C121 -48 89 -21 82 16H16C7 16 0 23 0 32ZM208 32C208 59 187 80 160 80C133 80 112 59 112 32C112 5 133 -16 160 -16C187 -16 208 5 208 32ZM400 192C400 219 379 240 352 240C325 240 304 219 304 192C304 165 325 144 352 144C379 144 400 165 400 192ZM352 272C391 272 423 244 430 208H496C505 208 512 201 512 192C512 183 505 176 496 176H430C423 139 391 112 352 112C313 112 281 139 274 176H16C7 176 0 183 0 192C0 201 7 208 16 208H274C281 244 313 272 352 272ZM192 400C165 400 144 379 144 352C144 325 165 304 192 304C219 304 240 325 240 352C240 379 219 400 192 400ZM270 368H496C505 368 512 361 512 352C512 343 505 336 496 336H270C263 299 231 272 192 272C153 272 121 299 114 336H16C7 336 0 343 0 352C0 361 7 368 16 368H114C121 404 153 432 192 432C231 432 263 404 270 368Z" />
  </g>
</svg>