<?xml version='1.0' encoding='utf-8'?>
<svg xmlns="http://www.w3.org/2000/svg" viewBox="0 0 448 512" width="100" height="100" fill="currentColor">
  <g transform="scale(1, -1) translate(0, -448)">
    <path d="M16 209C6 200 6 184 16 175L176 15C185 6 200 6 209 15C219 24 219 40 209 49L66 192L209 335C219 344 219 360 209 369C200 378 185 378 176 369L16 209ZM368 369 208 209C198 200 198 184 208 175L368 15C377 6 392 6 401 15C411 24 411 40 401 49L258 192L401 335C411 344 411 360 401 369C392 378 377 378 368 369Z" />
  </g>
</svg>