<?xml version='1.0' encoding='utf-8'?>
<svg xmlns="http://www.w3.org/2000/svg" viewBox="0 0 448 512" width="100" height="100" fill="currentColor">
  <g transform="scale(1, -1) translate(0, -448)">
    <path d="M21 203C15 197 15 187 21 181L181 21C187 14 197 14 203 21C210 27 210 37 203 43L55 192L203 341C210 347 210 357 203 363C197 369 187 369 181 363L21 203ZM373 363 213 203C207 197 207 187 213 181L373 21C379 14 389 14 395 21C402 27 402 37 395 43L247 192L395 341C402 347 402 357 395 363C389 369 379 369 373 363Z" />
  </g>
</svg>