<?xml version='1.0' encoding='utf-8'?>
<svg xmlns="http://www.w3.org/2000/svg" viewBox="0 0 512 512" width="100" height="100" fill="currentColor">
  <g transform="scale(1, -1) translate(0, -448)">
    <path d="M237 34H25V423H358V208Q358 203 362 199Q365 195 371 195Q377 195 380 199Q384 203 384 208V436Q384 441 380 445Q377 448 371 448H12Q7 448 3 445Q0 441 0 436V21Q0 15 3 12Q7 8 12 8H237Q242 8 246 12Q249 15 250 21Q249 27 246 30Q242 34 237 34ZM300 349H99Q94 349 90 346Q86 342 86 337Q86 331 90 327Q94 324 99 324H300Q306 324 309 327Q313 331 313 337Q313 342 309 346Q306 349 300 349ZM313 234Q313 240 309 244Q306 247 300 247H99Q94 247 90 244Q86 240 86 234Q86 229 90 225Q94 222 99 222H300Q306 222 309 225Q313 229 313 234ZM99 145Q94 145 90 141Q86 138 86 132Q86 127 90 123Q94 119 99 119H192Q197 119 201 123Q204 127 204 132Q204 138 201 141Q197 145 192 145H99ZM491 147Q487 152 480 152H291L286 172Q284 177 281 179Q278 182 273 182H237Q231 182 228 178Q224 175 224 169Q224 164 228 160Q231 157 237 156H264L305 1Q306 -3 309 -5Q312 -8 317 -8H431Q437 -8 441 -4Q444 -1 444 5Q444 10 441 14Q437 17 431 18H326L322 34H455Q459 35 463 37Q466 40 467 44L492 137Q494 143 490 148V147H491ZM445 60H316L298 127H464L446 60H445ZM344 -22Q337 -22 333 -26Q328 -30 328 -37Q328 -44 333 -48Q337 -53 344 -53Q350 -53 355 -48Q359 -44 359 -37Q359 -30 355 -26Q350 -22 344 -22ZM416 -53Q423 -53 427 -48Q431 -44 432 -37Q431 -31 427 -26Q423 -22 416 -22Q409 -22 405 -26Q401 -31 400 -37Q401 -44 405 -48Q409 -53 416 -53Z" />
  </g>
</svg>