<?xml version='1.0' encoding='utf-8'?>
<svg xmlns="http://www.w3.org/2000/svg" viewBox="0 0 384 512" width="100" height="100" fill="currentColor">
  <g transform="scale(1, -1) translate(0, -448)">
    <path d="M56 448C43 448 32 437 32 424C32 411 43 400 56 400H86L76 262C59 249 42 233 29 214C13 191 0 163 0 134C0 113 17 96 38 96H346C367 96 384 113 384 134C384 163 371 191 355 214C342 233 325 249 308 262L298 400H328C341 400 352 411 352 424C352 437 341 448 328 448H56ZM250 400 260 258 262 236 280 223C296 211 309 196 321 180C327 169 334 157 335 144H49C51 159 59 173 68 186C78 200 91 213 104 223L122 236L124 258L134 400H250ZM168 -72C168 -85 179 -96 192 -96C205 -96 216 -85 216 -72V48H168V-72Z" />
  </g>
</svg>