<?xml version='1.0' encoding='utf-8'?>
<svg xmlns="http://www.w3.org/2000/svg" viewBox="0 0 512 512" width="100" height="100" fill="currentColor">
  <g transform="scale(1, -1) translate(0, -448)">
    <path d="M173 206Q190 193 210 187Q230 180 252 180Q273 180 294 187Q314 194 331 206Q357 226 371 254Q386 282 386 314Q386 342 375 366Q365 391 346 409Q328 427 304 438Q280 448 252 448Q224 448 200 438Q175 427 157 409Q138 391 128 366Q118 342 118 314Q118 281 132 253Q147 225 173 205V206ZM252 206Q221 206 197 221Q172 235 158 260Q144 284 143 314Q144 345 158 369Q172 394 197 408Q221 423 252 423Q282 423 306 408Q331 394 345 369Q360 345 360 314Q360 284 345 260Q331 235 306 221Q282 206 252 206ZM355 172H315Q311 172 308 170Q305 168 303 164L250 53L193 165Q189 171 181 171H146Q115 171 89 160Q62 149 42 129Q22 109 11 82Q0 56 0 25V-45Q0 -51 3 -54Q7 -58 12 -58H488Q494 -58 497 -54Q501 -51 501 -45V25Q501 56 489 82Q478 108 458 129Q438 149 411 160Q385 171 354 171H355ZM475 -32H25V25Q25 50 35 72Q44 94 61 110Q77 127 99 136Q121 146 146 146H174L239 19Q243 12 250 12Q254 12 257 14Q260 16 262 19L323 146H354Q379 146 401 136Q423 127 440 111Q456 94 465 72Q475 50 475 25V-32Z" />
  </g>
</svg>