<?xml version='1.0' encoding='utf-8'?>
<svg xmlns="http://www.w3.org/2000/svg" viewBox="0 0 543 512" width="100" height="100" fill="currentColor">
  <g transform="scale(1, -1) translate(0, -448)">
    <path d="M150 -38H15Q9 -37 4 -33Q0 -29 0 -23V433Q0 440 4 444Q9 448 15 448H269Q275 448 279 444L394 325Q398 320 398 314V125Q398 118 394 114Q390 110 383 110Q376 110 372 114Q368 118 368 125V308L262 418H30V-8H150Q157 -8 161 -12Q165 -16 165 -23Q165 -29 161 -33Q157 -38 150 -38ZM383 290H286Q272 290 262 297Q252 303 246 314Q241 325 241 339V428H271L383 314V290ZM291 -4Q290 -25 276 -37Q262 -48 239 -48Q215 -49 201 -32Q186 -15 186 14V21Q186 40 193 54Q199 68 212 76Q224 83 240 83Q262 83 275 71Q289 60 291 38H265Q264 50 258 56Q252 62 240 62Q227 62 220 53Q213 43 213 23V14Q213 -7 220 -17Q226 -26 239 -26Q252 -26 258 -21Q264 -15 265 -3H291V-4ZM309 -47V81H348Q365 81 378 73Q392 66 399 52Q407 38 407 20V14Q407 -4 399 -18Q392 -32 379 -39Q365 -47 349 -47H309ZM335 60V-26H348Q363 -26 371 -15Q379 -5 380 14V20Q380 40 372 50Q364 60 348 60H335ZM473 0H452V-47H426V81H473Q496 81 508 71Q520 61 520 42Q520 29 515 20Q509 11 497 6L525 -46V-47H497L473 0ZM452 21H473Q483 21 489 26Q494 32 494 40Q494 49 489 55Q484 60 473 60H452V21Z" />
  </g>
</svg>