<?xml version='1.0' encoding='utf-8'?>
<svg xmlns="http://www.w3.org/2000/svg" viewBox="0 0 512 512" width="100" height="100" fill="currentColor">
  <g transform="scale(1, -1) translate(0, -448)">
    <path d="M464 192C464 307 371 400 256 400C141 400 48 307 48 192C48 77 141 -16 256 -16C371 -16 464 77 464 192ZM0 192C0 333 115 448 256 448C397 448 512 333 512 192C512 51 397 -64 256 -64C115 -64 0 51 0 192ZM256 272C238 272 224 258 224 240C224 227 213 216 200 216C187 216 176 227 176 240C176 284 212 320 256 320C300 320 336 284 336 240C336 193 300 173 280 165V162C280 148 269 138 256 138C243 138 232 148 232 162V170C232 190 247 205 262 210C269 212 275 215 280 220C285 224 288 230 288 240C288 258 274 272 256 272ZM224 80C224 98 238 112 256 112C274 112 288 98 288 80C288 62 274 48 256 48C238 48 224 62 224 80Z" />
  </g>
</svg>