<?xml version='1.0' encoding='utf-8'?>
<svg xmlns="http://www.w3.org/2000/svg" viewBox="0 0 512 512" width="100" height="100" fill="currentColor">
  <g transform="scale(1, -1) translate(0, -448)">
    <path d="M298 303C288 294 273 294 264 303C254 312 254 328 264 337L368 441C377 450 392 450 401 441L505 337C515 328 515 312 505 303C496 294 481 294 472 303L409 366V-40C409 -53 398 -64 385 -64C371 -64 361 -53 361 -40V366L298 303ZM42 81 105 18V424C105 437 115 448 129 448C142 448 153 437 153 424V18L216 81C225 90 240 90 249 81C259 72 259 56 249 47L145 -57C136 -66 121 -66 112 -57L8 47C-2 56 -2 72 8 81C17 90 32 90 41 81ZM42 81Z" />
  </g>
</svg>