<?xml version='1.0' encoding='utf-8'?>
<svg xmlns="http://www.w3.org/2000/svg" viewBox="0 0 512 512" width="100" height="100" fill="currentColor">
  <g transform="scale(1, -1) translate(0, -448)">
    <path d="M288 448C288 466 274 480 256 480C238 480 224 466 224 448V192C224 174 238 160 256 160C274 160 288 174 288 192V448ZM146 350C161 360 164 380 154 394C144 409 124 412 110 402C43 356 0 279 0 192C0 51 115 -64 256 -64C397 -64 512 51 512 192C512 279 469 356 402 402C388 412 368 409 358 394C348 380 351 360 366 350C415 315 448 257 448 192C448 86 362 0 256 0C150 0 64 86 64 192C64 257 97 315 146 350Z" />
  </g>
</svg>