<?xml version='1.0' encoding='utf-8'?>
<svg xmlns="http://www.w3.org/2000/svg" viewBox="0 0 448 512" width="100" height="100" fill="currentColor">
  <g transform="scale(1, -1) translate(0, -448)">
    <path d="M427 181C434 187 434 197 427 203L267 363C261 369 251 369 245 363C239 357 239 347 245 341L393 192L245 43C239 37 239 27 245 21C251 14 261 14 267 21L427 181ZM75 21 235 181C242 187 242 197 235 203L75 363C69 369 59 369 53 363C47 357 47 347 53 341L201 192L53 43C47 37 47 27 53 21C59 14 69 14 75 21Z" />
  </g>
</svg>