<?xml version='1.0' encoding='utf-8'?>
<svg xmlns="http://www.w3.org/2000/svg" viewBox="0 0 512 512" width="100" height="100" fill="currentColor">
  <g transform="scale(1, -1) translate(0, -448)">
    <path d="M448 384H64C46 384 32 370 32 352V160H480V352C480 370 466 384 448 384ZM480 128H32V96C32 78 46 64 64 64H448C466 64 480 78 480 96V128ZM64 416H448C483 416 512 387 512 352V96C512 61 483 32 448 32H331L342 -32H400C409 -32 416 -39 416 -48C416 -57 409 -64 400 -64H112C103 -64 96 -57 96 -48C96 -39 103 -32 112 -32H170L181 32H64C29 32 0 61 0 96V352C0 387 29 416 64 416ZM214 32 203 -32H309L298 32H214Z" />
  </g>
</svg>