<?xml version='1.0' encoding='utf-8'?>
<svg xmlns="http://www.w3.org/2000/svg" viewBox="0 0 448 512" width="100" height="100" fill="currentColor">
  <g transform="scale(1, -1) translate(0, -448)">
    <path d="M384 16C393 16 400 23 400 32V352C400 361 393 368 384 368H64C55 368 48 361 48 352V32C48 23 55 16 64 16H384ZM448 32C448 -3 419 -32 384 -32H64C29 -32 0 -3 0 32V352C0 387 29 416 64 416H384C419 416 448 387 448 352V32ZM224 96C217 96 211 99 206 104L102 216C96 223 94 233 98 242C102 250 111 256 120 256H328C338 256 346 250 350 242C354 233 352 223 346 216L242 104C237 99 231 96 224 96Z" />
  </g>
</svg>