<?xml version='1.0' encoding='utf-8'?>
<svg xmlns="http://www.w3.org/2000/svg" viewBox="0 0 640 512" width="100" height="100" fill="currentColor">
  <g transform="scale(1, -1) translate(0, -448)">
    <path d="M520 400H393C381 428 353 448 320 448C287 448 259 428 247 400H120C107 400 96 389 96 376C96 363 107 352 120 352H242C247 323 269 300 296 292V-16H120C107 -16 96 -27 96 -40C96 -53 107 -64 120 -64H520C533 -64 544 -53 544 -40C544 -27 533 -16 520 -16H344V292C372 300 393 323 398 352H520C533 352 544 363 544 376C544 389 533 400 520 400ZM512 252 584 128H440L512 252ZM386 111C397 66 449 32 512 32C575 32 627 66 638 111C641 122 637 133 631 143L536 306C531 315 522 320 512 320C502 320 493 315 488 306L393 143C387 133 383 122 386 111ZM54 128 127 252 199 128H54ZM127 32C190 32 242 66 253 111C255 122 252 133 246 143L151 306C146 315 137 320 127 320C117 320 108 315 103 306L8 143C2 133 -2 122 1 111C12 66 64 32 127 32ZM320 400C338 400 352 386 352 368C352 350 338 336 320 336C302 336 288 350 288 368C288 386 302 400 320 400Z" />
  </g>
</svg>