<?xml version='1.0' encoding='utf-8'?>
<svg xmlns="http://www.w3.org/2000/svg" viewBox="0 0 512 512" width="100" height="100" fill="currentColor">
  <g transform="scale(1, -1) translate(0, -448)">
    <path d="M255 -64Q202 -63 156 -43Q110 -24 75 12Q39 47 20 93Q0 139 0 193Q0 246 20 292Q39 338 75 373Q110 409 156 428Q202 448 255 448Q309 448 355 428Q401 409 436 373Q471 338 491 292Q511 246 511 193Q511 139 491 93Q471 47 436 12Q401 -23 355 -43Q309 -63 255 -63V-64ZM255 403Q211 403 173 387Q135 370 106 341Q78 313 61 274Q45 236 45 192Q45 148 61 110Q78 72 107 43Q135 14 174 -2Q212 -18 256 -18Q300 -18 338 -2Q376 15 405 43Q433 72 450 111Q466 149 466 193Q466 236 450 275Q433 313 404 342Q376 370 337 387Q299 403 255 403ZM143 57Q134 57 127 64Q121 71 121 80Q121 89 127 96L355 319Q362 326 371 326Q380 326 387 319Q393 312 393 303Q393 294 387 287L159 63Q152 57 143 57ZM184 338Q203 338 219 329Q234 320 244 304Q253 288 253 269Q253 250 244 234Q234 219 219 209Q203 200 184 200Q164 200 149 209Q133 219 124 234Q115 250 115 269Q115 288 124 304Q133 320 149 329Q164 338 184 338ZM184 293Q174 293 167 286Q160 280 160 269Q160 259 167 252Q174 246 184 245Q194 246 201 252Q208 259 208 269Q208 280 201 286Q194 293 184 293ZM327 185Q347 185 362 176Q378 166 387 151Q396 135 397 116Q396 97 387 81Q378 65 362 56Q347 47 327 47Q308 47 292 56Q277 65 267 81Q258 97 258 116Q258 135 267 151Q277 166 292 176Q308 185 327 185ZM327 140Q317 140 310 133Q303 126 303 116Q303 106 310 99Q317 92 327 92Q337 92 344 99Q351 106 351 116Q351 126 344 133Q337 140 327 140Z" />
  </g>
</svg>