<?xml version='1.0' encoding='utf-8'?>
<svg xmlns="http://www.w3.org/2000/svg" viewBox="0 0 512 512" width="100" height="100" fill="currentColor">
  <g transform="scale(1, -1) translate(0, -448)">
    <path d="M294 72Q289 72 286 68Q283 65 283 59V-36H22V423H283V331Q283 325 286 322Q289 318 294 318Q299 318 303 322Q306 325 306 331V436Q306 441 303 445Q299 448 294 448H11Q6 448 3 445Q0 441 0 436V-49Q0 -54 3 -58Q6 -62 11 -62H294Q299 -62 303 -58Q306 -54 306 -49V59Q306 65 303 68Q299 72 294 72ZM504 207 387 324Q381 329 374 329Q367 329 361 324Q355 318 355 310Q355 303 361 297L446 212H171Q163 212 158 207Q153 201 153 193Q153 185 158 180Q163 175 171 175H446L361 89Q355 84 355 76Q355 69 361 63Q367 57 374 57Q381 57 387 63L504 180Q509 185 510 193Q510 201 504 206L505 207Z" />
  </g>
</svg>