<?xml version='1.0' encoding='utf-8'?>
<svg xmlns="http://www.w3.org/2000/svg" viewBox="0 0 576 512" width="100" height="100" fill="currentColor">
  <g transform="scale(1, -1) translate(0, -448)">
    <path d="M64 352C64 370 79 384 96 384H233C240 384 246 381 250 377L405 223C417 210 417 190 405 177L271 44C259 31 238 31 226 44L71 198C67 203 64 209 64 215V352ZM32 352V215C32 200 38 186 49 176L203 21C228 -4 269 -4 294 21L427 155C452 180 452 220 427 245L273 400C262 410 248 416 233 416H96C61 416 32 387 32 352ZM381 395C375 389 375 379 381 373L535 217C544 207 544 192 535 183L373 19C367 13 367 3 373 -3C379 -10 389 -10 396 -3L558 161C579 182 579 218 558 239L404 395C398 401 387 402 381 395ZM144 280C158 280 168 291 168 304C168 317 158 328 144 328C131 328 120 317 120 304C120 291 131 280 144 280Z" />
  </g>
</svg>