<?xml version='1.0' encoding='utf-8'?>
<svg xmlns="http://www.w3.org/2000/svg" viewBox="0 0 512 512" width="100" height="100" fill="currentColor">
  <g transform="scale(1, -1) translate(0, -448)">
    <path d="M485 309C491 302 501 302 507 309C514 315 514 325 507 331L395 443C389 450 379 450 373 443L261 331C255 325 255 315 261 309C267 302 277 302 283 309L368 393V-48C368 -57 375 -64 384 -64C393 -64 400 -57 400 -48V393L485 309ZM229 75 144 -9V432C144 441 137 448 128 448C119 448 112 441 112 432V-9L27 75C21 81 11 81 5 75C-2 69 -2 59 5 53L117 -59C123 -66 133 -66 139 -59L251 53C258 59 258 69 251 75C245 81 235 81 229 75Z" />
  </g>
</svg>