<?xml version='1.0' encoding='utf-8'?>
<svg xmlns="http://www.w3.org/2000/svg" viewBox="0 0 573 512" width="100" height="100" fill="currentColor">
  <g transform="scale(1, -1) translate(0, -448)">
    <path d="M457 342H15Q8 342 4 338Q0 334 0 327V-27Q0 -33 4 -38Q8 -42 15 -42H457Q463 -42 468 -38Q472 -33 472 -27V327Q472 334 468 338Q463 342 457 342ZM442 312V108L343 189Q338 193 333 193Q328 193 324 189L205 87L120 133Q116 135 112 135Q108 135 105 133L30 83V313H442V312ZM30 -12V48Q30 48 31 48Q33 48 33 49L114 102L200 55Q204 53 209 53Q213 54 217 57L334 158L436 74Q438 72 442 71V-12H30ZM551 448H110Q103 448 99 444Q95 440 95 433V380Q95 373 99 369Q103 365 110 365Q116 365 120 369Q125 373 125 380V418H536V94H500Q494 94 489 90Q485 86 485 79Q485 73 489 68Q494 64 500 64H551Q558 64 562 68Q566 73 566 79V433Q566 440 562 444Q558 448 551 448ZM190 176Q204 176 216 183Q227 190 234 201Q241 213 241 227Q241 241 234 253Q227 264 216 271Q204 278 190 278Q176 278 164 271Q153 264 146 253Q139 241 139 227Q139 213 146 201Q153 190 164 183Q176 176 190 176ZM190 207Q181 207 175 213Q169 219 169 227Q169 236 175 242Q181 248 190 248Q199 248 205 242Q210 236 211 227Q210 219 205 213Q199 207 190 207Z" />
  </g>
</svg>