<?xml version='1.0' encoding='utf-8'?>
<svg xmlns="http://www.w3.org/2000/svg" viewBox="0 0 576 512" width="100" height="100" fill="currentColor">
  <g transform="scale(1, -1) translate(0, -448)">
    <path d="M96 448C61 448 32 419 32 384V0C32 -35 61 -64 96 -64H176V48C176 83 205 112 240 112H416V277C416 294 409 311 397 323L291 429C279 441 263 448 246 448H96ZM358 272H264C251 272 240 283 240 296V389L358 272ZM240 68C229 68 220 59 220 48V-80C220 -91 229 -100 240 -100C251 -100 260 -91 260 -80V-52H272C305 -52 332 -25 332 8C332 41 305 68 272 68H240ZM272 -12H260V28H272C283 28 292 19 292 8C292 -3 283 -12 272 -12ZM368 68C357 68 348 59 348 48V-80C348 -91 357 -100 368 -100H400C429 -100 452 -77 452 -48V16C452 45 429 68 400 68H368ZM388 -60V28H400C407 28 412 23 412 16V-48C412 -55 407 -60 400 -60H388ZM476 48V-80C476 -91 485 -100 496 -100C507 -100 516 -91 516 -80V-36H544C555 -36 564 -27 564 -16C564 -5 555 4 544 4H516V28H544C555 28 564 37 564 48C564 59 555 68 544 68H496C485 68 476 59 476 48Z" />
  </g>
</svg>