<?xml version='1.0' encoding='utf-8'?>
<svg xmlns="http://www.w3.org/2000/svg" viewBox="0 0 384 512" width="100" height="100" fill="currentColor">
  <g transform="scale(1, -1) translate(0, -448)">
    <path d="M210 401C200 410 185 410 176 401L16 241C6 232 6 216 16 207C25 198 40 198 49 207L192 350L335 207C345 198 360 198 369 207C379 216 379 232 369 241L210 401ZM370 49 210 209C200 218 185 218 176 209L16 49C6 40 6 24 16 15C25 6 40 6 49 15L192 158L335 15C345 6 360 6 369 15C379 24 379 40 369 49ZM370 49Z" />
  </g>
</svg>