<?xml version='1.0' encoding='utf-8'?>
<svg xmlns="http://www.w3.org/2000/svg" viewBox="0 0 576 512" width="100" height="100" fill="currentColor">
  <g transform="scale(1, -1) translate(0, -448)">
    <path d="M229 -61Q220 -61 213 -55L15 33Q8 36 4 42Q0 48 0 56V336Q0 345 5 351Q9 357 16 360L219 446Q224 448 229 448Q234 448 239 446L442 361Q443 360 444 359Q447 358 450 357Q455 353 458 348Q461 342 461 336V219Q460 208 453 201Q446 194 436 194Q425 194 418 201Q411 208 411 219V299L257 236V4L271 10Q275 13 281 12Q288 12 294 8Q301 5 304 -3Q308 -12 304 -22Q300 -31 291 -36L248 -55Q247 -56 245 -57Q239 -61 232 -61Q228 -61 229 -61Q230 -61 230 -61Q230 -61 229 -61ZM206 3V234L158 254V199Q158 189 151 181Q144 174 133 174Q122 174 115 181Q108 188 108 199V275L50 298V72L207 3H206ZM230 279 371 336 321 357 183 298 231 279H230ZM119 324Q121 326 123 326L257 384L229 396L89 337L119 324ZM427 -33Q403 -33 382 -25Q361 -17 343 -5Q326 7 313 20Q301 32 293 41Q286 49 285 51Q279 60 279 70Q279 81 285 90Q287 93 295 102Q303 111 315 123Q328 135 345 147Q362 158 383 166Q404 174 427 174Q457 173 481 163Q505 152 524 137Q542 122 553 109Q565 96 568 91L570 88Q576 80 575 69Q575 59 569 50Q567 48 559 39Q552 29 539 17Q526 5 509 -6Q492 -18 471 -25Q451 -33 427 -33ZM334 70Q342 61 356 48Q370 36 389 27Q407 17 427 17Q448 17 466 27Q484 36 498 48Q512 61 520 70Q512 80 498 92Q484 105 466 114Q448 123 427 124Q407 123 389 114Q371 105 356 92Q342 80 334 70ZM427 111Q439 111 448 106Q457 100 463 91Q468 82 468 70Q468 59 463 50Q457 40 448 35Q439 29 427 29Q416 29 406 35Q397 40 392 50Q386 59 386 70Q386 82 392 91Q397 100 406 106Q416 111 427 111Z" />
  </g>
</svg>