<?xml version='1.0' encoding='utf-8'?>
<svg xmlns="http://www.w3.org/2000/svg" viewBox="0 0 512 512" width="100" height="100" fill="currentColor">
  <g transform="scale(1, -1) translate(0, -448)">
    <path d="M0 32V240H136C150 260 168 277 190 288H0V322C0 358 29 386 64 386C65 403 79 416 96 416H128C145 416 159 403 160 386H192L243 410C252 414 261 416 270 416H448C483 416 512 387 512 352V288H322C344 277 362 260 376 240H512V32C512 -3 483 -32 448 -32H64C29 -32 0 -3 0 32ZM256 256C221 257 188 239 170 209C152 179 152 141 170 111C188 81 221 63 256 64C291 63 324 81 342 111C360 141 360 179 342 209C324 239 291 257 256 256Z" />
  </g>
</svg>