<?xml version='1.0' encoding='utf-8'?>
<svg xmlns="http://www.w3.org/2000/svg" viewBox="0 0 448 512" width="100" height="100" fill="currentColor">
  <g transform="scale(1, -1) translate(0, -448)">
    <path d="M380 351Q349 383 308 400Q268 416 223 416Q177 416 137 399Q97 382 67 351Q36 321 19 281Q2 241 1 194Q1 165 9 137Q16 109 31 83L0 -32L117 -1Q142 -14 168 -21Q195 -28 223 -28Q270 -27 310 -10Q350 7 381 37Q412 68 430 108Q447 148 448 194Q447 239 430 279Q412 320 380 351ZM223 10Q198 10 175 16Q151 23 129 35L123 39L53 21L72 89L67 96Q53 118 46 143Q39 168 39 194Q39 233 53 266Q68 300 93 325Q118 350 152 364Q185 379 224 379Q261 379 294 365Q328 351 354 325Q380 298 395 265Q410 232 410 194Q410 156 395 123Q381 89 355 64Q329 39 295 24Q262 10 223 10ZM325 148Q321 150 313 154Q305 157 298 161Q290 165 287 166Q283 168 280 167Q277 167 274 163Q272 160 269 156Q265 152 262 147Q258 143 257 141Q254 139 251 138Q249 138 245 140Q228 148 215 156Q202 164 191 176Q180 188 169 206Q166 211 168 213Q170 216 175 221Q180 226 185 236Q187 239 186 241Q186 244 185 246Q184 248 181 255Q178 263 174 272Q170 281 168 287Q164 295 161 296Q158 297 155 297Q150 297 145 297Q142 297 138 296Q134 294 130 290Q127 287 123 282Q118 276 114 267Q111 257 111 244Q111 230 116 218Q121 205 126 197Q131 188 133 186Q134 185 141 175Q148 165 161 152Q173 139 190 125Q207 112 228 102Q245 95 257 92Q269 88 277 88Q286 87 295 89Q300 89 308 93Q316 97 323 103Q329 108 332 115Q335 125 336 132Q336 139 335 141Q334 143 331 145Q329 146 325 148Z" />
  </g>
</svg>