<?xml version='1.0' encoding='utf-8'?>
<svg xmlns="http://www.w3.org/2000/svg" viewBox="0 0 512 512" width="100" height="100" fill="currentColor">
  <g transform="scale(1, -1) translate(0, -448)">
    <path d="M416 240C416 194 401 152 376 117L503 -9C515 -22 515 -42 503 -55C490 -67 470 -67 457 -55L331 72C296 47 254 32 208 32C93 32 0 125 0 240C0 355 93 448 208 448C323 448 416 355 416 240ZM208 96C288 96 352 160 352 240C352 320 288 384 208 384C128 384 64 320 64 240C64 160 128 96 208 96Z" />
  </g>
</svg>