<?xml version='1.0' encoding='utf-8'?>
<svg xmlns="http://www.w3.org/2000/svg" viewBox="0 0 452 512" width="100" height="100" fill="currentColor">
  <g transform="scale(1, -1) translate(0, -448)">
    <path d="M394 324Q398 320 398 314V158Q398 152 393 147Q389 143 383 143Q376 143 372 147Q368 152 368 158V290H286Q272 290 262 296Q251 303 246 314Q240 325 240 339V418H30V-8H207Q214 -8 218 -12Q222 -16 222 -23Q222 -29 218 -33Q214 -38 207 -38H15Q8 -37 4 -33Q0 -29 0 -23V433Q0 440 4 444Q8 448 15 448H268Q275 448 279 444L394 325V324ZM339 103 395 -47H362L352 -16H298L287 -47H254L310 103H339ZM343 9 324 65 306 9H343ZM411 103V-47H442V103H411Z" />
  </g>
</svg>