<?xml version='1.0' encoding='utf-8'?>
<svg xmlns="http://www.w3.org/2000/svg" viewBox="0 0 448 512" width="100" height="100" fill="currentColor">
  <g transform="scale(1, -1) translate(0, -448)">
    <path d="M439 169C452 182 452 202 439 215L279 375C267 387 246 387 234 375C221 362 221 342 234 329L371 192L234 55C221 42 221 22 234 9C246 -3 267 -3 279 9L439 169ZM87 9 247 169C260 182 260 202 247 215L87 375C75 387 54 387 42 375C29 362 29 342 42 329L179 192L42 55C29 42 29 22 42 9C54 -3 75 -3 87 9Z" />
  </g>
</svg>