<?xml version='1.0' encoding='utf-8'?>
<svg xmlns="http://www.w3.org/2000/svg" viewBox="0 0 576 512" width="100" height="100" fill="currentColor">
  <g transform="scale(1, -1) translate(0, -448)">
    <path d="M41 473C32 482 16 482 7 473C-2 464 -2 448 7 439L535 -89C544 -99 560 -99 569 -89C578 -80 578 -65 569 -55L473 41C475 44 478 46 481 48C527 92 559 144 574 179C577 187 577 196 574 204C559 240 527 292 481 335C433 379 369 416 288 416C231 416 182 398 142 372L41 473ZM205 309C228 326 257 336 288 336C368 336 432 271 432 192C432 161 422 132 405 108L371 143C383 165 388 191 381 217C367 268 314 298 263 285C255 282 246 279 239 275L204 309ZM205 309ZM325 53C313 50 301 48 288 48C209 48 144 112 144 192C144 205 146 217 149 229L69 309C37 272 14 233 3 204C-1 196 -1 188 3 180C17 144 49 92 96 49C143 5 207 -32 288 -32C325 -32 359 -24 390 -11L325 53Z" />
  </g>
</svg>