<?xml version='1.0' encoding='utf-8'?>
<svg xmlns="http://www.w3.org/2000/svg" viewBox="0 0 448 512" width="100" height="100" fill="currentColor">
  <g transform="scale(1, -1) translate(0, -448)">
    <path d="M144 320C144 364 180 400 224 400C268 400 304 364 304 320C304 276 268 240 224 240C180 240 144 276 144 320ZM352 320C352 391 295 448 224 448C153 448 96 391 96 320C96 249 153 192 224 192C295 192 352 249 352 320ZM48 -32C48 39 105 96 176 96H272C343 96 400 39 400 -32V-40C400 -53 411 -64 424 -64C437 -64 448 -53 448 -40V-32C448 65 369 144 272 144H176C79 144 0 65 0 -32V-40C0 -53 11 -64 24 -64C37 -64 48 -53 48 -40V-32Z" />
  </g>
</svg>