<?xml version='1.0' encoding='utf-8'?>
<svg xmlns="http://www.w3.org/2000/svg" viewBox="0 0 512 512" width="100" height="100" fill="currentColor">
  <g transform="scale(1, -1) translate(0, -448)">
    <path d="M390 -48Q375 -47 363 -40Q350 -33 343 -21Q336 -8 335 7Q336 22 343 34Q350 46 363 54Q375 61 390 61Q406 61 418 54Q430 46 438 34Q445 22 445 7Q445 -8 438 -21Q430 -33 418 -40Q406 -47 390 -48ZM208 -48Q193 -47 181 -40Q168 -33 161 -21Q154 -8 154 7Q154 22 161 34Q168 46 181 54Q193 61 208 61Q224 61 236 54Q248 46 256 34Q263 22 263 7Q263 -8 256 -21Q248 -33 236 -40Q224 -47 208 -48ZM196 82Q179 83 164 90Q150 97 139 110Q129 123 126 140L75 394Q75 397 73 398Q71 399 69 399H24Q14 400 7 407Q0 414 0 424Q0 434 7 441Q14 448 24 448H86Q96 448 105 442Q114 435 117 424L124 395H471Q481 395 489 391Q497 387 503 380Q509 372 511 363Q512 354 510 345L470 219Q466 204 456 192Q445 180 431 174Q417 167 401 167H170L175 150Q176 142 182 137Q188 132 196 132H429Q440 132 447 125Q453 118 454 107Q453 97 446 90Q439 83 429 83H196V82ZM160 216H401Q408 216 414 220Q420 225 422 232L459 346H135L160 216Z" />
  </g>
</svg>