<?xml version='1.0' encoding='utf-8'?>
<svg xmlns="http://www.w3.org/2000/svg" viewBox="0 0 448 512" width="100" height="100" fill="currentColor">
  <g transform="scale(1, -1) translate(0, -448)">
    <path d="M224 448C206 448 192 434 192 416V413C119 398 64 333 64 256V234C64 186 48 139 18 102L8 90C3 83 0 76 0 67C0 48 16 32 36 32H412C432 32 448 48 448 67C448 76 445 83 440 90L430 102C400 139 384 186 384 234V256C384 333 329 398 256 413V416C256 434 242 448 224 448ZM162 -16C169 -44 194 -64 224 -64C254 -64 279 -44 286 -16H162Z" />
  </g>
</svg>