<?xml version="1.0" encoding="UTF-8"?>
<!DOCTYPE svg PUBLIC "-//W3C//DTD SVG 1.1//EN" "http://www.w3.org/Graphics/SVG/1.1/DTD/svg11.dtd">
<!-- Creator: CorelDRAW 2026 -->
<svg xmlns="http://www.w3.org/2000/svg" xml:space="preserve" width="1in" height="1in" version="1.1" style="shape-rendering:geometricPrecision; text-rendering:geometricPrecision; image-rendering:optimizeQuality; fill-rule:evenodd; clip-rule:evenodd"
viewBox="0 0 1000 1000"
 xmlns:xlink="http://www.w3.org/1999/xlink"
 xmlns:xodm="http://www.corel.com/coreldraw/odm/2003">
 <defs>
  <style type="text/css">
   <![CDATA[
    .fil0 {fill:black;fill-rule:nonzero}
   ]]>
  </style>
 </defs>
 <g id="Layer_x0020_1">
  <metadata id="CorelCorpID_0Corel-Layer"/>
  <path class="fil0" d="M489.69 294.41c-2.59,2.87 -4.18,5.94 -4.68,9.93l-0.14 1.09 -0.21 1.07c-3.56,17.8 -10.8,34.22 -21.69,48.74 -9.99,13.32 -22.28,24.4 -37,32.18 -13.75,9.31 -29.29,14.41 -46,14.41 -23.39,0 -44.51,-7.96 -62.07,-23.33 -18.34,-14.87 -30.86,-34.25 -37.81,-56.84l-0.69 -2.25 -0.33 -2.33c-0.56,-3.91 -2.3,-7.3 -4.67,-10.38 -2.17,-1.96 -4.54,-3.44 -7.18,-4.55l-3.21 0c-3.69,0 -6.44,0.86 -9.28,3.22 -3.27,2.72 -5.09,5.97 -6.2,10 -4.75,24.5 -14.62,47.62 -32.49,65.48 -19.12,19.11 -43,29.13 -70.04,29.13 -19.36,0 -38.05,-4.41 -54.56,-14.74l-1.08 -0.67 -1.02 -0.76c-14.36,-10.77 -25.95,-24.25 -34.67,-39.94 -9.4,-16.92 -14.28,-35.6 -15.88,-54.81l-0.5 -6.08 57.07 -173.32 0.26 -0.69c8.77,-22.82 23.13,-41.84 42.91,-56.22 20.26,-14.73 43.46,-22.01 68.51,-22.01l583.9 0c25.04,0 48.25,7.28 68.51,22.01 19.77,14.38 34.13,33.4 42.91,56.22l0.2 0.54 59.59 174.53 -1.24 7.46c-1.26,7.58 -2.77,15.56 -5.09,22.54 -6.54,21.27 -18.03,40.48 -35.82,54.61 -18.05,15.72 -40,23.2 -63.95,23.2 -24.21,0 -45.52,-9.23 -62.75,-25.93 -17.22,-14.2 -28.84,-32.7 -35.72,-53.74 -2.57,-4.42 -4.19,-9.32 -4.64,-14.51 -0.44,-3 -1.35,-6 -3.54,-8.19l-0.96 -0.96 -0.87 -1.04c-1.41,-1.7 -2.9,-3.14 -5.01,-3.64 -2.68,-0.28 -5.2,-0.87 -7.54,-1.71 -2.61,0.25 -5.16,0.91 -7.34,2.38 -2.55,2.85 -4.12,5.91 -4.61,9.86l-0.13 1.09 -0.22 1.07c-3.48,17.38 -10.47,33.45 -20.94,47.73 -9.19,14.31 -21.4,25.77 -36.49,33.6 -14.39,8.75 -30.29,14 -47.26,14 -24.67,0 -46.47,-9.59 -64.76,-25.95 -15.58,-13.94 -26.15,-31.59 -32.84,-51.08l-7.67 -7.65 0 -12.45c0,-1.74 -0.07,-3.91 -1.38,-5.23l-0.96 -0.97 -0.88 -1.05c-1.41,-1.69 -2.89,-3.13 -5,-3.63 -2.78,-0.29 -5.39,-0.91 -7.8,-1.81 -2.66,0.16 -4.85,0.87 -7.01,2.41zm12.29 329.23c-17.66,1.19 -34.7,5.46 -50.16,14.3 -14.56,8.32 -25.29,20.08 -33.17,34.87l-0.57 1.07 -0.66 1.03c-9.56,14.87 -13.54,31.26 -13.54,48.88l0 235.48 -206.46 0 -1.48 -0.15c-19.28,-1.93 -36.98,-9.07 -50.78,-22.88 -14.04,-14.04 -21,-31.96 -21,-51.73l0 -441.19 28.13 -1.76c17.39,-1.09 33.91,-5.38 49.49,-13.17 16.12,-8.06 29.77,-19.51 41.38,-33.23l21.06 -24.89 23.06 23.06c26.03,26.03 56.86,38.94 93.17,40.05 17.19,-0.01 33.94,-3.97 49.93,-11.43 17.44,-8.14 32.54,-19.73 45.57,-33.85l22.04 -23.88 22.04 23.88c13.04,14.12 28.13,25.71 45.57,33.85 16.61,7.75 34.08,11.43 52.42,11.43 18.33,0 35.81,-3.67 52.42,-11.43 16.67,-7.78 30.8,-18.84 42.69,-32.89l21.06 -24.88 23.05 23.05c13.29,13.28 28.27,24.62 44.74,32.86 16.21,7.56 33.64,12.2 51.89,13.34l28.13 1.76 0 449.33c0,19.77 -6.96,37.7 -20.99,51.73 -13.23,13.23 -29.85,20.78 -48.43,22.85l-1.65 0.18 -212.73 0 0 -235.48c0,-17.62 -3.99,-34.02 -13.54,-48.88l-0.66 -1.03 -0.58 -1.08c-7.88,-14.78 -18.61,-26.55 -33.17,-34.87 -14.96,-8.55 -31.12,-13.07 -48.24,-14.3z"/>
 </g>
</svg>
