<?xml version="1.0" encoding="UTF-8"?>
<!DOCTYPE svg PUBLIC "-//W3C//DTD SVG 1.1//EN" "http://www.w3.org/Graphics/SVG/1.1/DTD/svg11.dtd">
<!-- Creator: CorelDRAW 2026 -->
<svg xmlns="http://www.w3.org/2000/svg" xml:space="preserve" width="1in" height="1in" version="1.1" style="shape-rendering:geometricPrecision; text-rendering:geometricPrecision; image-rendering:optimizeQuality; fill-rule:evenodd; clip-rule:evenodd"
viewBox="0 0 1000 1000"
 xmlns:xlink="http://www.w3.org/1999/xlink"
 xmlns:xodm="http://www.corel.com/coreldraw/odm/2003">
 <defs>
  <style type="text/css">
   <![CDATA[
    .fil0 {fill:black;fill-rule:nonzero}
   ]]>
  </style>
 </defs>
 <g id="Layer_x0020_1">
  <metadata id="CorelCorpID_0Corel-Layer"/>
  <path class="fil0" d="M174.48 109.37c-36.62,0 -65.11,28.48 -65.11,65.11l0 651.04c0,36.62 28.48,65.11 65.11,65.11l651.04 0c36.62,0 65.11,-28.48 65.11,-65.11l0 -651.04c0,-36.62 -28.48,-65.11 -65.11,-65.11l-651.04 0zm-130.21 65.11c0,-71.21 59,-130.21 130.21,-130.21l651.04 0c71.21,0 130.21,59 130.21,130.21l0 651.04c0,71.21 -59,130.21 -130.21,130.21l-651.04 0c-71.21,0 -130.21,-59 -130.21,-130.21l0 -651.04zm260.42 358.07c-18.31,0 -32.56,-14.24 -32.56,-32.55 0,-18.31 14.24,-32.55 32.56,-32.55 306.52,0 84.1,0 390.62,0 18.31,0 32.56,14.24 32.56,32.55 0,18.31 -14.24,32.55 -32.56,32.55 -306.52,0 -84.1,0 -390.62,0z"/>
 </g>
</svg>
