<?xml version='1.0' encoding='utf-8'?>
<svg xmlns="http://www.w3.org/2000/svg" viewBox="0 0 486 512" width="100" height="100" fill="currentColor">
  <g transform="scale(1, -1) translate(0, -448)">
    <path d="M21 -38Q12 -38 6 -32Q0 -26 0 -17V205Q0 214 6 220Q12 226 21 226H112V427Q112 436 118 442Q124 448 133 448H354Q363 448 369 442Q375 436 376 427V226H464Q473 226 479 220Q485 214 485 205V-16Q485 -25 479 -31Q473 -37 464 -37H247Q245 -38 243 -38H21ZM221 5V183H184V123Q184 114 178 108Q171 102 162 102H101Q92 102 86 108Q80 114 80 123V183H42V5H221ZM442 5V184H405V123Q405 114 399 108Q393 102 384 102H322Q313 102 307 108Q301 114 301 123V184H264V5H442ZM362 145V184H344V145H362ZM141 145V183H123V145H141ZM333 227V406H296V343Q295 334 289 328Q283 322 274 322H213Q204 322 198 328Q192 334 191 343V406H154V227H333ZM253 364V406H234V364H253Z" />
  </g>
</svg>