<?xml version='1.0' encoding='utf-8'?>
<svg xmlns="http://www.w3.org/2000/svg" viewBox="0 0 512 512" width="100" height="100" fill="currentColor">
  <g transform="scale(1, -1) translate(0, -448)">
    <path d="M33 207C36 259 58 310 98 350C141 394 199 416 256 416C318 416 377 390 420 345L459 304H352C343 304 336 297 336 288C336 279 343 272 352 272H496C505 272 512 279 512 288V432C512 441 505 448 496 448C487 448 480 441 480 432V328L443 367C394 419 327 448 256 448C191 448 125 423 75 373C29 327 5 269 1 209C0 200 7 193 16 192C24 191 32 198 33 207ZM480 177C476 125 454 73 414 34C371 -10 313 -32 256 -32C194 -32 135 -7 92 39L53 80H160C169 80 176 87 176 96C176 105 169 112 160 112H16C7 112 0 105 0 96V-48C0 -57 7 -64 16 -64C25 -64 32 -57 32 -48V56L69 17C118 -35 185 -64 256 -64C322 -64 387 -39 437 11C483 57 507 115 511 175C512 184 505 191 497 192C488 193 480 186 480 177Z" />
  </g>
</svg>