<?xml version='1.0' encoding='utf-8'?>
<svg xmlns="http://www.w3.org/2000/svg" viewBox="0 0 512 512" width="100" height="100" fill="currentColor">
  <g transform="scale(1, -1) translate(0, -448)">
    <path d="M393 358H313H393H313Q312 383 295 400Q278 417 253 417Q228 417 211 400Q194 383 193 358H112Q89 358 73 342Q57 326 56 302V23Q57 -1 73 -17Q88 -33 112 -33H393Q416 -33 432 -17Q448 -1 449 23V302Q448 326 432 342Q416 358 393 358ZM180 326H326H180H326V298L181 297V326ZM253 385Q264 385 272 377Q280 370 281 358H225Q226 370 234 377Q241 385 253 385ZM417 22Q415 0 393 -2H112Q90 1 88 22V302Q90 324 112 326H149V297Q149 284 158 275Q167 266 181 266H326Q340 266 349 275Q358 284 358 297V326H392Q414 324 416 302V22Z" />
  </g>
</svg>
