<?xml version='1.0' encoding='utf-8'?>
<svg xmlns="http://www.w3.org/2000/svg" viewBox="0 0 512 512" width="100" height="100" fill="currentColor">
  <g transform="scale(1, -1) translate(0, -448)">
    <path d="M24 376C11 376 0 365 0 352C0 339 11 328 24 328H116C126 295 156 272 192 272C228 272 258 295 268 328H488C501 328 512 339 512 352C512 365 501 376 488 376H268C258 408 228 432 192 432C156 432 126 408 116 376H24ZM24 216C11 216 0 205 0 192C0 179 11 168 24 168H276C286 135 316 112 352 112C388 112 418 135 428 168H488C501 168 512 179 512 192C512 205 501 216 488 216H428C418 248 388 272 352 272C316 272 286 248 276 216H24ZM24 56C11 56 0 45 0 32C0 19 11 8 24 8H84C94 -25 124 -48 160 -48C196 -48 226 -25 236 8H488C501 8 512 19 512 32C512 45 501 56 488 56H236C226 88 196 112 160 112C124 112 94 88 84 56H24ZM160 0C142 0 128 14 128 32C128 50 142 64 160 64C178 64 192 50 192 32C192 14 178 0 160 0ZM352 160C334 160 320 174 320 192C320 210 334 224 352 224C370 224 384 210 384 192C384 174 370 160 352 160ZM160 352C160 370 174 384 192 384C210 384 224 370 224 352C224 334 210 320 192 320C174 320 160 334 160 352Z" />
  </g>
</svg>