<?xml version='1.0' encoding='utf-8'?>
<svg xmlns="http://www.w3.org/2000/svg" viewBox="0 0 512 512" width="100" height="100" fill="currentColor">
  <g transform="scale(1, -1) translate(0, -448)">
    <path d="M415 448H87Q63 448 43 436Q23 425 12 405Q0 385 0 361V33Q0 9 12 -11Q23 -31 43 -42Q63 -54 87 -55H415Q439 -54 459 -42Q479 -31 490 -11Q502 9 503 33V361Q502 385 490 405Q479 425 459 436Q439 448 415 448ZM171 -25H151V33H186L171 -25ZM93 160V220H140V160H93ZM140 91V42H93V91H140ZM93 289V352H140V289H93ZM82 153V102H29V153H82ZM29 222V283H82V222H29ZM151 102V153H210V220H236L204 102H151ZM151 222V283H201V222H151ZM210 289V352H271L254 289H209ZM205 352H149V419H205V352ZM275 419H289L274 365V419ZM79 418V352H29V361Q29 376 36 388Q42 400 54 408Q65 417 79 419V418ZM29 33H82V-25Q67 -23 55 -15Q43 -7 36 5Q29 18 29 33ZM473 33Q473 17 465 4Q457 -9 444 -17Q431 -25 415 -25H201L319 419H415Q431 419 444 411Q457 403 465 390Q473 377 473 361V33ZM440 97Q444 92 444 87Q444 81 440 76Q435 72 430 72Q424 72 419 76L349 146L277 76Q272 72 267 72Q261 72 256 76Q252 81 252 86Q252 92 256 97L339 177Q343 181 349 181Q355 181 360 177L440 97ZM391 212Q391 219 394 225Q397 230 402 234Q408 237 415 237Q421 237 427 234Q433 230 436 225Q439 219 439 212Q439 205 436 199Q433 194 427 190Q421 187 415 187Q408 187 402 190Q397 194 394 199Q391 205 391 212Z" />
  </g>
</svg>