<?xml version='1.0' encoding='utf-8'?>
<svg xmlns="http://www.w3.org/2000/svg" viewBox="0 0 576 512" width="100" height="100" fill="currentColor">
  <g transform="scale(1, -1) translate(0, -448)">
    <path d="M247 73 151 -23C138 -35 118 -35 105 -23L9 73C-3 86 -3 106 9 119C22 131 42 131 55 119L96 77V384C96 402 110 416 128 416C146 416 160 402 160 384V77L201 119C214 131 234 131 247 119C259 106 259 86 247 73ZM320 416H352C370 416 384 402 384 384C384 366 370 352 352 352H320C302 352 288 366 288 384C288 402 302 416 320 416ZM320 288H416C434 288 448 274 448 256C448 238 434 224 416 224H320C302 224 288 238 288 256C288 274 302 288 320 288ZM320 160H480C498 160 512 146 512 128C512 110 498 96 480 96H320C302 96 288 110 288 128C288 146 302 160 320 160ZM320 32H544C562 32 576 18 576 0C576 -18 562 -32 544 -32H320C302 -32 288 -18 288 0C288 18 302 32 320 32Z" />
  </g>
</svg>