<?xml version='1.0' encoding='utf-8'?>
<svg xmlns="http://www.w3.org/2000/svg" viewBox="0 0 576 512" width="100" height="100" fill="currentColor">
  <g transform="scale(1, -1) translate(0, -448)">
    <path d="M320 416C302 416 288 402 288 384C288 366 302 352 320 352H352C370 352 384 366 384 384C384 402 370 416 352 416H320ZM320 288C302 288 288 274 288 256C288 238 302 224 320 224H416C434 224 448 238 448 256C448 274 434 288 416 288H320ZM320 160C302 160 288 146 288 128C288 110 302 96 320 96H480C498 96 512 110 512 128C512 146 498 160 480 160H320ZM320 32C302 32 288 18 288 0C288 -18 302 -32 320 -32H544C562 -32 576 -18 576 0C576 18 562 32 544 32H320ZM151 407C138 419 118 419 105 407L9 311C-3 298 -3 278 9 265C22 253 42 253 55 265L96 307V0C96 -18 110 -32 128 -32C146 -32 160 -18 160 0V307L201 265C214 253 234 253 247 265C259 278 259 298 247 311L151 407Z" />
  </g>
</svg>