<?xml version='1.0' encoding='utf-8'?>
<svg xmlns="http://www.w3.org/2000/svg" viewBox="0 0 448 512" width="100" height="100" fill="currentColor">
  <g transform="scale(1, -1) translate(0, -448)">
    <path d="M64 368C55 368 48 361 48 352V32C48 23 55 16 64 16H384C393 16 400 23 400 32V275C400 279 398 283 395 286L320 361V272C320 254 306 240 288 240H128C110 240 96 254 96 272V368H64ZM144 368V288H272V368H144ZM0 352C0 387 29 416 64 416H307C324 416 340 409 352 397L429 320C441 308 448 292 448 275V32C448 -3 419 -32 384 -32H64C29 -32 0 -3 0 32V352ZM160 128C160 163 189 192 224 192C259 192 288 163 288 128C288 93 259 64 224 64C189 64 160 93 160 128Z" />
  </g>
</svg>