<?xml version='1.0' encoding='utf-8'?>
<svg xmlns="http://www.w3.org/2000/svg" viewBox="0 0 512 512" width="100" height="100" fill="currentColor">
  <g transform="scale(1, -1) translate(0, -448)">
    <path d="M169 -59Q149 -59 133 -50Q117 -40 108 -24Q99 -8 98 12V39H42Q30 40 20 45Q11 51 5 60Q0 70 0 82V277Q0 288 5 298Q11 307 20 313Q30 319 42 319H98V411Q98 422 103 430Q108 438 117 443Q125 448 136 448H375Q385 448 394 443Q402 438 407 430Q412 422 413 411V319H469Q481 319 490 313Q500 307 506 298Q511 288 511 276V82Q511 70 506 60Q500 51 490 45Q481 40 469 39H413V12Q412 -8 403 -24Q393 -40 377 -50Q361 -59 342 -59H169ZM143 12Q143 1 151 -7Q158 -14 169 -15H342Q353 -14 360 -7Q368 1 368 12V140H143V12ZM467 84V274H413Q412 274 406 274Q399 274 390 274Q381 274 375 274Q368 274 368 274Q368 274 355 274Q343 274 323 274Q303 274 279 274Q256 274 232 274Q208 274 188 274Q168 274 156 274Q144 274 143 274Q143 274 136 274Q130 274 121 274Q112 274 106 274Q99 274 99 274Q98 274 90 274Q82 274 72 274Q61 274 53 274Q45 274 44 274V84H99V185H413V84H467ZM368 319V404H143V319H368ZM255 73Q264 73 271 80Q277 86 277 95Q277 105 271 111Q264 118 255 118H189Q180 118 174 111Q167 105 167 95Q167 86 174 80Q180 73 189 73H255ZM292 8Q301 9 308 15Q314 21 314 31Q314 40 308 47Q301 53 292 53H189Q180 53 173 47Q167 40 167 31Q167 21 173 15Q180 9 189 8H292Z" />
  </g>
</svg>