<?xml version='1.0' encoding='utf-8'?>
<svg xmlns="http://www.w3.org/2000/svg" viewBox="0 0 320 512" width="100" height="100" fill="currentColor">
  <g transform="scale(1, -1) translate(0, -448)">
    <path d="M64 288C64 341 107 384 160 384C213 384 256 341 256 288C256 245 228 209 190 197C161 187 128 161 128 120V96C128 78 142 64 160 64C178 64 192 78 192 96V120C192 122 193 124 196 127C199 131 203 134 209 136C274 156 320 217 320 288C320 376 248 448 160 448C72 448 0 376 0 288C0 270 14 256 32 256C50 256 64 270 64 288ZM160 -64C182 -64 200 -46 200 -24C200 -2 182 16 160 16C138 16 120 -2 120 -24C120 -46 138 -64 160 -64Z" />
  </g>
</svg>