<?xml version='1.0' encoding='utf-8'?>
<svg xmlns="http://www.w3.org/2000/svg" viewBox="0 0 512 512" width="100" height="100" fill="currentColor">
  <g transform="scale(1, -1) translate(0, -448)">
    <path d="M256 448C271 448 284 440 291 427L507 27C514 15 514 0 506 -13C499 -25 486 -32 472 -32H40C26 -32 13 -25 6 -13C-2 0 -2 15 5 27L221 427C228 440 241 448 256 448ZM256 96C238 96 224 82 224 64C224 46 238 32 256 32C274 32 288 46 288 64C288 82 274 96 256 96ZM256 288C238 288 223 272 225 254L232 150C233 138 243 128 256 128C269 128 279 138 280 150L287 254C289 272 274 288 256 288Z" />
  </g>
</svg>