<?xml version='1.0' encoding='utf-8'?>
<svg xmlns="http://www.w3.org/2000/svg" viewBox="0 0 512 512" width="100" height="100" fill="currentColor">
  <g transform="scale(1, -1) translate(0, -448)">
    <path d="M393 324Q398 320 398 314V124Q397 118 393 114Q389 109 383 109Q376 109 372 114Q368 118 367 124V290H286Q272 290 261 297Q251 303 246 314Q240 325 240 339V418H30V-8H150Q156 -8 160 -12Q164 -16 165 -23Q164 -29 160 -33Q156 -38 150 -38H15Q8 -37 4 -33Q0 -29 0 -23V433Q0 440 4 444Q8 448 15 448H268Q275 448 279 444L393 325V324ZM242 -8Q242 -17 237 -22Q233 -27 225 -27Q217 -27 213 -23Q209 -19 209 -9H182Q182 -28 193 -38Q205 -48 225 -48Q237 -48 247 -43Q257 -38 263 -29Q268 -19 268 -7V81H242V-7ZM383 61Q389 51 389 39Q389 20 376 9Q363 -2 340 -2H317V-47H291V81H341Q355 81 366 76Q377 70 383 61ZM362 39Q362 48 357 54Q351 60 341 60H317V20H341Q351 20 357 25Q362 29 362 39ZM458 1H482V-21Q476 -27 461 -27Q446 -27 438 -17Q431 -7 431 13V21Q431 41 438 51Q445 62 459 62Q469 62 475 57Q481 52 483 41H509Q506 61 493 72Q481 83 458 83Q442 83 429 75Q417 68 411 54Q404 40 404 21V12Q404 -6 411 -20Q418 -34 431 -41Q443 -49 460 -49Q476 -49 489 -44Q502 -39 509 -30V21H459V1H458Z" />
  </g>
</svg>