<?xml version='1.0' encoding='utf-8'?>
<svg xmlns="http://www.w3.org/2000/svg" viewBox="0 0 448 512" width="100" height="100" fill="currentColor">
  <g transform="scale(1, -1) translate(0, -448)">
    <path d="M144 416C153 416 160 409 160 400C160 391 153 384 144 384H32V272C32 263 25 256 16 256C7 256 0 263 0 272V400C0 409 7 416 16 416H144ZM0 112C0 121 7 128 16 128C25 128 32 121 32 112V0H144C153 0 160 -7 160 -16C160 -25 153 -32 144 -32H16C7 -32 0 -25 0 -16V112ZM432 416C441 416 448 409 448 400V272C448 263 441 256 432 256C423 256 416 263 416 272V384H304C295 384 288 391 288 400C288 409 295 416 304 416H432ZM416 112C416 121 423 128 432 128C441 128 448 121 448 112V-16C448 -25 441 -32 432 -32H304C295 -32 288 -25 288 -16C288 -7 295 0 304 0H416V112Z" />
  </g>
</svg>