<?xml version='1.0' encoding='utf-8'?>
<svg xmlns="http://www.w3.org/2000/svg" viewBox="0 0 448 512" width="100" height="100" fill="currentColor">
  <g transform="scale(1, -1) translate(0, -448)">
    <path d="M248 120C248 107 237 96 224 96C211 96 200 107 200 120V366L137 303C128 294 112 294 103 303C94 312 94 328 103 337L207 441C216 450 232 450 241 441L345 337C354 328 354 312 345 303C336 294 320 294 311 303L248 366V120ZM152 128H64C55 128 48 121 48 112V32C48 23 55 16 64 16H384C393 16 400 23 400 32V112C400 121 393 128 384 128H296V176H384C419 176 448 147 448 112V32C448 -3 419 -32 384 -32H64C29 -32 0 -3 0 32V112C0 147 29 176 64 176H152V128ZM320 72C320 85 331 96 344 96C357 96 368 85 368 72C368 59 357 48 344 48C331 48 320 59 320 72Z" />
  </g>
</svg>