<?xml version='1.0' encoding='utf-8'?>
<svg xmlns="http://www.w3.org/2000/svg" viewBox="0 0 576 512" width="100" height="100" fill="currentColor">
  <g transform="scale(1, -1) translate(0, -448)">
    <path d="M96 416H224V320C224 285 253 256 288 256H384V164L416 196V261C416 278 410 295 398 307L275 429C263 441 247 448 230 448H96C61 448 32 419 32 384V0C32 -35 61 -64 96 -64H242L248 -32H96C79 -32 64 -18 64 0V384C64 402 79 416 96 416ZM228 64 211 123C207 136 196 144 183 144C174 144 166 140 160 133L100 58C94 51 96 41 102 35C109 30 119 31 125 38L182 109L201 43C203 37 209 32 216 32H262C268 44 275 55 284 64H228ZM256 403 371 288H288C271 288 256 302 256 320V403ZM342 8 444 110 494 59 392 -43C388 -48 381 -51 375 -52L324 -60L333 -10C334 -3 337 3 341 8ZM342 8ZM466 133 487 153C501 167 524 167 538 153C552 139 552 117 538 103L517 82L466 133ZM301 -4 289 -79C287 -89 296 -97 306 -96L380 -83C393 -81 406 -75 415 -66L560 80C587 106 587 149 560 176C534 202 491 202 464 176L319 30C310 21 303 9 301 -4Z" />
  </g>
</svg>