<?xml version='1.0' encoding='utf-8'?>
<svg xmlns="http://www.w3.org/2000/svg" viewBox="0 0 576 512" width="100" height="100" fill="currentColor">
  <g transform="scale(1, -1) translate(0, -448)">
    <path d="M288 416C207 416 143 379 95 335C49 292 17 240 2 204C-1 196 -1 188 2 180C17 144 49 92 95 49C143 5 207 -32 288 -32C369 -32 434 5 481 49C527 92 559 144 574 180C577 188 577 196 574 204C559 240 527 292 481 335C434 379 369 416 288 416ZM144 192C144 272 208 336 288 336C368 336 432 272 432 192C432 112 368 48 288 48C208 48 144 112 144 192ZM288 256C288 221 259 192 224 192C213 192 202 195 192 200C191 189 192 178 195 167C209 116 262 86 313 99C364 113 394 166 381 217C369 263 325 292 280 288C285 278 288 268 288 256Z" />
  </g>
</svg>