<?xml version='1.0' encoding='utf-8'?>
<svg xmlns="http://www.w3.org/2000/svg" viewBox="0 0 547 512" width="100" height="100" fill="currentColor">
  <g transform="scale(1, -1) translate(0, -448)">
    <path d="M426 152Q419 152 414 147Q409 142 409 135V92L317 148Q308 153 299 152Q289 151 282 144L191 52L125 102Q116 108 106 107Q95 106 88 99L34 45V313Q35 318 38 322Q41 325 47 325H195Q202 325 207 330Q212 335 212 342Q212 350 207 355Q202 359 195 359H46Q33 359 23 353Q12 347 6 336Q0 326 0 313V-13Q0 -26 6 -37Q12 -47 23 -53Q33 -60 46 -60H397Q410 -60 420 -53Q431 -47 437 -37Q443 -26 443 -13V135Q443 143 438 147Q434 152 426 152ZM397 -26H46Q41 -25 38 -22Q34 -19 34 -13V-3L109 71L175 22Q183 16 193 17Q203 17 211 25L303 117L409 52V-14Q409 -19 406 -22Q402 -26 397 -26ZM503 217Q494 219 488 226Q481 233 479 242Q477 246 474 248Q471 251 467 251Q462 251 459 248Q456 246 455 242Q452 232 445 226Q439 219 430 217Q426 216 423 212Q421 209 421 205Q421 201 423 197Q426 194 430 193Q439 190 445 184Q452 177 455 168Q456 164 459 161Q462 159 467 159Q471 159 474 161Q477 164 479 168Q481 177 488 184Q494 190 503 193Q508 194 510 197Q513 201 513 205Q513 209 510 212Q508 216 503 217ZM303 343 327 337Q344 332 357 319Q370 307 374 289L381 266Q382 262 384 260Q387 258 391 258Q394 258 397 260Q400 262 401 266L407 289Q412 307 424 319Q437 332 455 337L478 343Q482 344 484 347Q486 350 486 353Q486 357 484 360Q482 363 478 364L455 370Q437 375 425 387Q412 400 407 418L401 441Q400 445 397 447Q394 448 391 448Q387 448 384 447Q382 445 381 441L375 418Q370 400 357 387Q344 375 327 370L303 363Q300 362 298 360Q296 357 296 353Q296 350 298 347Q300 344 303 343ZM203 245Q203 242 205 239Q207 236 211 235L219 233Q230 230 238 222Q247 213 250 202L252 194Q253 191 255 188Q258 186 262 186Q266 186 269 188Q272 191 273 194L275 202Q278 213 286 222Q294 230 305 233L313 235Q317 236 319 239Q321 242 322 245Q321 249 319 252Q317 255 313 256L305 258Q294 261 286 269Q278 277 275 289L273 297Q272 300 269 302Q266 305 262 305Q258 305 255 302Q253 300 252 297L250 289Q246 277 238 269Q230 261 219 258L211 256Q207 255 205 252Q203 249 203 245Z" />
  </g>
</svg>