<?xml version='1.0' encoding='utf-8'?>
<svg xmlns="http://www.w3.org/2000/svg" viewBox="0 0 512 512" width="100" height="100" fill="currentColor">
  <g transform="scale(1, -1) translate(0, -448)">
    <path d="M441 389 453 377C463 368 463 352 453 343L424 314L378 360L407 389C416 398 432 398 441 389ZM210 192 344 326 390 280 256 146C253 143 249 141 245 140L187 123L204 181C205 185 207 189 210 192ZM373 423 176 226C167 217 161 206 158 195L129 95C127 86 129 77 135 71C141 65 150 63 159 65L259 94C270 97 281 103 290 112L487 309C515 337 515 383 487 411L475 423C447 451 401 451 373 423ZM88 384C39 384 0 345 0 296V24C0 -25 39 -64 88 -64H360C409 -64 448 -25 448 24V136C448 149 437 160 424 160C411 160 400 149 400 136V24C400 2 382 -16 360 -16H88C66 -16 48 2 48 24V296C48 318 66 336 88 336H200C213 336 224 347 224 360C224 373 213 384 200 384H88Z" />
  </g>
</svg>