<?xml version='1.0' encoding='utf-8'?>
<svg xmlns="http://www.w3.org/2000/svg" viewBox="0 0 538 512" width="100" height="100" fill="currentColor">
  <g transform="scale(1, -1) translate(0, -448)">
    <path d="M379 81Q374 81 370 78Q366 74 366 69V-22H25V423H366V341Q366 336 370 332Q374 329 379 328Q385 329 388 332Q392 336 392 341V436Q392 441 388 445Q385 448 379 448H13Q7 448 3 445Q0 441 0 436V-34Q0 -40 3 -43Q7 -47 13 -47H379Q385 -47 388 -43Q392 -40 392 -34V69Q392 74 388 78Q385 82 379 82V81ZM103 195Q103 189 106 186Q110 182 115 182H276Q282 182 286 186Q289 189 289 195Q289 214 282 231Q275 247 262 260Q250 273 233 280Q242 288 247 298Q252 309 252 321Q252 337 244 349Q237 362 224 369Q212 377 196 377Q180 377 168 369Q155 362 148 349Q140 337 140 321Q140 309 145 298Q150 288 159 280Q142 273 130 260Q117 247 110 231Q103 214 103 195ZM196 291Q183 291 174 300Q166 308 166 321Q166 334 174 343Q183 351 196 351Q209 351 217 343Q226 334 226 321Q226 308 217 300Q209 291 196 291ZM196 263Q212 263 226 255Q240 248 250 236Q259 224 262 208H129Q132 224 142 236Q151 248 165 255Q179 263 196 263ZM77 114Q77 108 81 105Q84 101 90 101H270Q275 101 279 105Q282 108 283 114Q282 119 279 123Q275 126 270 126H90Q84 126 81 123Q77 119 77 114ZM90 40H289Q294 40 298 43Q301 47 302 52Q301 58 298 62Q294 65 289 65H90Q84 65 81 62Q77 58 77 52Q77 47 81 43Q84 40 90 40ZM512 337Q511 342 506 345L452 375Q448 377 443 376Q438 375 435 370L314 156Q313 154 313 151L305 79Q305 76 306 72Q308 69 311 67Q314 65 318 65Q322 65 325 67L387 109Q389 110 391 113L511 327Q514 332 513 337H512ZM337 138 361 123 333 104 337 138ZM378 143 347 162 424 298 454 278 378 143ZM467 301 436 320 451 347 483 329 467 301Z" />
  </g>
</svg>