<?xml version='1.0' encoding='utf-8'?>
<svg xmlns="http://www.w3.org/2000/svg" viewBox="0 0 576 512" width="100" height="100" fill="currentColor">
  <g transform="scale(1, -1) translate(0, -448)">
    <path d="M249 79 145 -25C136 -34 120 -34 111 -25L7 79C-2 88 -2 104 7 113C16 122 32 122 41 113L104 50V392C104 405 115 416 128 416C141 416 152 405 152 392V50L215 113C224 122 240 122 249 113C258 103 258 88 249 79ZM312 400H360C373 400 384 389 384 376C384 363 373 352 360 352H312C299 352 288 363 288 376C288 389 299 400 312 400ZM312 272H424C437 272 448 261 448 248C448 235 437 224 424 224H312C299 224 288 235 288 248C288 261 299 272 312 272ZM312 144H488C501 144 512 133 512 120C512 107 501 96 488 96H312C299 96 288 107 288 120C288 133 299 144 312 144ZM312 16H552C565 16 576 5 576 -8C576 -21 565 -32 552 -32H312C299 -32 288 -21 288 -8C288 5 299 16 312 16Z" />
  </g>
</svg>