<?xml version='1.0' encoding='utf-8'?>
<svg xmlns="http://www.w3.org/2000/svg" viewBox="0 0 576 512" width="100" height="100" fill="currentColor">
  <g transform="scale(1, -1) translate(0, -448)">
    <path d="M401 409 549 259C577 230 577 185 549 157L393 -1C384 -10 369 -10 359 -1C350 8 350 23 359 33L515 191C525 200 525 216 515 225L367 375C358 384 358 400 367 409C377 418 392 418 401 409ZM32 218V352C32 387 61 416 96 416H230C247 416 263 409 275 397L419 253C444 228 444 188 419 163L285 29C260 4 220 4 195 29L51 173C39 185 32 202 32 219ZM32 218ZM176 304C176 322 162 336 144 336C126 336 112 322 112 304C112 286 126 272 144 272C162 272 176 286 176 304Z" />
  </g>
</svg>