<?xml version='1.0' encoding='utf-8'?>
<svg xmlns="http://www.w3.org/2000/svg" viewBox="0 0 384 512" width="100" height="100" fill="currentColor">
  <g transform="scale(1, -1) translate(0, -448)">
    <path d="M64 400H176V312C176 272 208 240 248 240H336V0C336 -9 329 -16 320 -16H64C55 -16 48 -9 48 0V384C48 393 55 400 64 400ZM224 380 316 288H248C235 288 224 299 224 312V380ZM64 448C29 448 0 419 0 384V0C0 -35 29 -64 64 -64H320C355 -64 384 -35 384 0V261C384 278 377 295 365 307L243 429C231 441 215 448 198 448H64ZM170 152C179 162 178 178 168 186C158 195 142 194 134 184L86 128C78 119 78 105 86 96L134 40C142 30 158 29 168 38C178 46 179 62 170 72L136 112L170 152ZM250 184C242 194 226 195 216 186C206 178 205 162 214 152L248 112L214 72C205 61 206 46 216 38C227 29 242 30 250 40L298 96C306 105 306 119 298 128L250 184Z" />
  </g>
</svg>