<?xml version='1.0' encoding='utf-8'?>
<svg xmlns="http://www.w3.org/2000/svg" viewBox="0 0 543 512" width="100" height="100" fill="currentColor">
  <g transform="scale(1, -1) translate(0, -448)">
    <path d="M148 -23Q148 -29 143 -33Q139 -37 133 -38H15Q9 -37 4 -33Q0 -29 0 -23V433Q0 440 4 444Q9 448 15 448H269Q275 448 279 444L394 325Q398 320 398 314V122Q398 116 394 111Q390 107 383 107Q376 107 372 111Q368 115 368 122V290H286Q272 290 262 297Q252 303 246 314Q241 325 241 339V418H30V-8H133Q139 -8 144 -12Q148 -16 148 -23ZM266 -11 245 78H223L203 -11L186 78H160L188 -48H214L234 36L255 -48H281L308 78H283L266 -11ZM393 5 420 -46V-48H392L369 -2H348V-48H322V78H369Q391 78 403 68Q415 58 415 40Q415 27 410 18Q404 10 393 5ZM389 38Q389 47 384 52Q379 57 369 57H348V19H369Q378 19 384 24Q389 29 389 37V38ZM530 18V12Q530 -5 523 -19Q516 -32 503 -40Q490 -48 474 -48H435V78H473Q490 78 503 70Q516 63 523 49Q530 35 530 18ZM504 18Q504 37 496 47Q488 57 473 57H460V-27H473Q488 -27 496 -17Q504 -7 504 11V18Z" />
  </g>
</svg>