<?xml version='1.0' encoding='utf-8'?>
<svg xmlns="http://www.w3.org/2000/svg" viewBox="0 0 512 512" width="100" height="100" fill="currentColor">
  <g transform="scale(1, -1) translate(0, -448)">
    <path d="M512 424C512 434 506 442 497 446C488 450 478 448 471 441L419 389C319 473 169 467 75 373C32 330 7 275 2 218C0 205 10 193 23 192C36 191 48 200 49 213C54 259 74 304 109 339C185 414 304 420 385 355L335 305C328 298 326 288 330 279C334 270 342 264 352 264H488C502 264 512 275 512 288V424ZM437 339 464 366V312H410L437 339ZM511 165C512 179 503 190 489 192C476 193 464 183 463 170C458 124 438 80 403 45C328 -31 209 -36 127 29L177 79C184 86 186 96 182 105C179 114 170 120 160 120H24C11 120 0 109 0 96V-40C0 -50 6 -59 15 -62C24 -66 34 -64 41 -57L93 -5C193 -89 343 -83 437 11C480 54 505 109 511 165ZM48 18V72H102L48 18Z" />
  </g>
</svg>