<?xml version='1.0' encoding='utf-8'?>
<svg xmlns="http://www.w3.org/2000/svg" viewBox="0 0 448 512" width="100" height="100" fill="currentColor">
  <g transform="scale(1, -1) translate(0, -448)">
    <path d="M166 464C153 464 141 456 136 443L120 400H24C11 400 0 389 0 376C0 363 11 352 24 352H424C437 352 448 363 448 376C448 389 437 400 424 400H328L312 443C307 456 295 464 282 464H166ZM32 304V0C32 -35 61 -64 96 -64H352C387 -64 416 -35 416 0V304H368V0C368 -9 361 -16 352 -16H96C87 -16 80 -9 80 0V304H32ZM192 232C192 245 181 256 168 256C155 256 144 245 144 232V56C144 43 155 32 168 32C181 32 192 43 192 56V232ZM304 232C304 245 293 256 280 256C267 256 256 245 256 232V56C256 43 267 32 280 32C293 32 304 43 304 56V232Z" />
  </g>
</svg>