<?xml version='1.0' encoding='utf-8'?>
<svg xmlns="http://www.w3.org/2000/svg" viewBox="0 0 512 512" width="100" height="100" fill="currentColor">
  <g transform="scale(1, -1) translate(0, -448)">
    <path d="M256 400C371 400 464 307 464 192C464 77 371 -16 256 -16C141 -16 48 77 48 192C48 307 141 400 256 400ZM256 -64C397 -64 512 51 512 192C512 333 397 448 256 448C115 448 0 333 0 192C0 51 115 -64 256 -64ZM288 336C288 354 274 368 256 368C238 368 224 354 224 336C224 318 238 304 256 304C274 304 288 318 288 336ZM256 40C287 40 312 65 312 96C312 110 307 123 298 133L358 279C363 291 357 305 345 310C333 315 319 309 314 297L253 152C224 150 200 126 200 96C200 65 225 40 256 40ZM192 288C192 306 178 320 160 320C142 320 128 306 128 288C128 270 142 256 160 256C178 256 192 270 192 288ZM112 160C130 160 144 174 144 192C144 210 130 224 112 224C94 224 80 210 80 192C80 174 94 160 112 160ZM432 192C432 210 418 224 400 224C382 224 368 210 368 192C368 174 382 160 400 160C418 160 432 174 432 192Z" />
  </g>
</svg>