<?xml version='1.0' encoding='utf-8'?>
<svg xmlns="http://www.w3.org/2000/svg" viewBox="0 0 512 512" width="100" height="100" fill="currentColor">
  <g transform="scale(1, -1) translate(0, -448)">
    <path d="M272 464C272 473 265 480 256 480C247 480 240 473 240 464V192C240 183 247 176 256 176C265 176 272 183 272 192V464ZM152 390C159 394 162 404 158 412C154 420 144 423 137 418C55 376 0 290 0 192C0 51 115 -64 256 -64C397 -64 512 51 512 192C512 290 457 376 376 418C368 423 358 420 354 412C350 404 353 394 361 390C432 353 480 278 480 192C480 68 380 -32 256 -32C132 -32 32 68 32 192C32 278 80 353 152 390Z" />
  </g>
</svg>