<?xml version='1.0' encoding='utf-8'?>
<svg xmlns="http://www.w3.org/2000/svg" viewBox="0 0 512 512" width="100" height="100" fill="currentColor">
  <g transform="scale(1, -1) translate(0, -448)">
    <path d="M158 142Q136 142 129 160L101 149Q107 133 123 122Q139 112 160 112Q176 112 188 118Q201 124 208 135Q215 145 215 159Q215 173 209 183Q202 194 190 199Q200 205 205 215Q211 225 211 237Q211 247 207 256Q203 264 196 270Q189 276 179 279Q169 282 158 282Q141 282 127 274Q113 265 108 252L133 237Q141 251 157 251Q167 251 173 246Q179 240 179 231Q179 222 174 217Q169 211 158 211H143V185H155Q168 185 176 179Q183 173 183 163Q183 154 176 148Q168 142 158 142ZM383 233Q377 249 365 260Q354 272 338 278Q321 284 301 284H245V114H302Q322 114 338 120Q355 126 366 137Q377 149 383 164Q390 180 390 199Q390 217 383 233ZM350 177Q347 167 340 160Q332 152 322 148Q312 144 300 144H278V254H302Q317 254 329 247Q341 240 347 227Q354 215 354 199Q354 187 350 177ZM266 -21 207 36Q200 41 193 41Q185 41 179 35Q174 29 174 21Q174 13 180 7L199 -11Q164 -2 135 17Q106 37 84 64Q63 91 51 125Q39 158 39 196Q38 204 33 209Q27 215 19 215Q11 215 6 209Q0 204 0 196Q0 143 20 97Q39 52 74 17Q108 -18 154 -37Q200 -57 253 -57Q261 -57 266 -51Q272 -46 272 -38V-37Q273 -28 266 -21ZM252 448Q252 448 251 448Q250 448 249 448Q239 448 232 442Q227 436 227 428Q227 421 233 415L292 358Q298 353 306 353Q314 353 320 359Q325 365 325 373Q325 381 319 387L302 403Q337 395 367 375Q397 356 419 329Q441 301 453 267Q466 234 466 196Q466 187 471 182Q477 176 485 176Q493 176 499 182Q504 187 505 196Q504 248 485 294Q465 340 430 374Q396 409 350 429Q305 448 252 448Z" />
  </g>
</svg>