<?xml version='1.0' encoding='utf-8'?>
<svg xmlns="http://www.w3.org/2000/svg" viewBox="0 0 448 512" width="100" height="100" fill="currentColor">
  <g transform="scale(1, -1) translate(0, -448)">
    <path d="M240 393V112C240 103 233 96 224 96C215 96 208 103 208 112V393L123 309C117 302 107 302 101 309C95 315 95 325 101 331L213 443C219 450 229 450 235 443L347 331C354 325 354 315 347 309C341 302 331 302 325 309L240 393ZM160 128H64C46 128 32 114 32 96V32C32 14 46 0 64 0H384C402 0 416 14 416 32V96C416 114 402 128 384 128H288V160H384C419 160 448 131 448 96V32C448 -3 419 -32 384 -32H64C29 -32 0 -3 0 32V96C0 131 29 160 64 160H160V128ZM320 64C320 77 331 88 344 88C357 88 368 77 368 64C368 51 357 40 344 40C331 40 320 51 320 64Z" />
  </g>
</svg>