<?xml version='1.0' encoding='utf-8'?>
<svg xmlns="http://www.w3.org/2000/svg" viewBox="0 0 512 512" width="100" height="100" fill="currentColor">
  <g transform="scale(1, -1) translate(0, -448)">
    <path d="M66 -64Q48 -63 33 -54Q18 -45 9 -30Q0 -15 0 3V382Q0 400 9 415Q18 430 33 439Q48 448 66 448H445Q464 448 479 439Q494 430 503 415Q512 400 512 382V3Q512 -16 503 -31Q494 -46 479 -55Q464 -64 445 -64H66ZM44 3Q44 -6 51 -13Q57 -19 66 -19H445Q454 -19 460 -13Q466 -6 467 3V304H44V3ZM467 349V382Q467 391 460 397Q454 403 445 404H66Q57 403 51 397Q45 391 44 382V349H467ZM362 21Q352 21 346 27Q340 34 339 43Q340 53 346 59Q352 66 362 66H419Q428 66 435 59Q441 53 441 43Q441 34 435 27Q428 21 419 21H362ZM362 80Q352 81 346 87Q340 93 339 103Q340 113 346 119Q352 125 362 125H419Q428 125 435 119Q441 113 441 103Q441 93 435 87Q428 81 419 80H362ZM306 161Q303 186 290 206Q277 226 257 238Q237 251 213 254Q204 255 202 251Q200 248 200 243V160Q201 155 204 152Q207 149 212 149H294Q300 149 303 153Q306 156 306 161ZM283 134H195Q192 134 189 136Q187 138 187 142V230Q186 234 184 236Q181 239 177 238Q149 236 127 220Q105 205 93 181Q80 157 81 128Q83 100 97 78Q110 56 132 43Q155 30 182 28Q211 27 235 40Q258 52 274 74Q289 96 292 124Q292 128 289 131Q287 133 283 133V134Z" />
  </g>
</svg>