<?xml version='1.0' encoding='utf-8'?>
<svg xmlns="http://www.w3.org/2000/svg" viewBox="0 0 512 512" width="100" height="100" fill="currentColor">
  <g transform="scale(1, -1) translate(0, -448)">
    <path d="M466 128Q452 137 439 139Q439 139 439 139Q393 148 342 145Q306 189 284 243Q302 291 309 342Q314 367 306 391Q299 405 284 413Q270 422 253 416Q234 409 227 387Q223 370 225 355Q230 296 250 243Q222 174 190 122Q187 116 183 110Q134 92 86 71Q65 64 45 46Q34 33 31 18Q28 2 35 -11Q49 -33 77 -34Q82 -34 88 -33Q100 -31 112 -23Q121 -18 131 -9Q175 33 204 84Q233 93 263 101Q297 109 328 112Q347 90 369 72Q381 62 396 54Q411 46 429 45Q429 45 429 45Q446 46 461 56Q475 67 481 84Q489 111 466 128ZM110 15Q101 8 95 4Q95 4 95 4Q95 4 95 4Q88 0 82 -2Q69 -4 63 4Q60 14 69 24Q81 36 98 42Q98 42 99 42Q126 54 154 65Q134 37 110 15ZM258 378Q260 385 264 386Q264 386 265 386Q265 386 265 386Q272 386 277 378Q281 366 278 347Q274 321 268 296Q260 326 257 358Q257 358 257 358Q256 369 258 378ZM256 132Q242 129 229 125Q249 160 268 202Q283 170 304 141Q280 138 256 132ZM451 93Q448 87 442 82Q436 77 430 77Q430 77 430 77Q430 77 430 77Q408 80 390 97Q380 105 371 114Q403 114 433 107Q441 106 448 102Q453 99 451 93Z" />
  </g>
</svg>
