<?xml version='1.0' encoding='utf-8'?>
<svg xmlns="http://www.w3.org/2000/svg" viewBox="0 0 512 512" width="100" height="100" fill="currentColor">
  <g transform="scale(1, -1) translate(0, -448)">
    <path d="M480 256H488C501 256 512 267 512 280V424C512 434 506 442 497 446C488 450 478 448 471 441L419 389C375 426 318 448 256 448C127 448 20 353 3 228C0 211 12 195 30 192C47 190 63 202 66 219C79 312 159 384 256 384C300 384 341 369 374 344L327 297C320 290 318 280 322 271C326 262 334 256 344 256H480ZM510 155C512 173 500 189 482 192C465 194 449 182 446 165C433 72 353 0 256 0C212 0 171 15 138 40L185 87C192 94 194 104 190 113C187 122 178 128 168 128H24C11 128 0 117 0 104V-40C0 -50 6 -59 15 -62C24 -66 34 -64 41 -57L93 -5C137 -42 194 -64 256 -64C385 -64 492 31 509 155ZM510 155Z" />
  </g>
</svg>