<?xml version='1.0' encoding='utf-8'?>
<svg xmlns="http://www.w3.org/2000/svg" viewBox="0 0 448 512" width="100" height="100" fill="currentColor">
  <g transform="scale(1, -1) translate(0, -448)">
    <path d="M109 371C98 359 86 351 72 343C73 328 72 313 67 298C63 282 57 269 49 256C57 243 63 229 68 214C72 199 73 184 73 168C86 161 98 153 110 141C121 130 129 118 137 104C152 105 167 103 182 99C198 95 211 89 224 81C237 89 251 95 266 99C281 104 296 105 312 104C319 118 327 130 339 141C350 153 362 161 376 169C375 184 377 199 381 214C385 230 391 243 399 256C391 269 385 283 381 298C376 313 375 328 376 343C362 351 350 359 339 371C327 382 319 394 311 408C296 407 281 408 266 413C250 417 237 423 224 431C211 423 197 417 182 412C167 408 152 407 137 407C129 394 121 382 109 370ZM109 371ZM202 474C216 482 232 482 246 474C270 459 285 455 314 456C330 456 344 447 352 434C366 409 377 397 402 384C416 376 424 362 424 346C423 317 427 302 442 278C450 264 450 247 442 234C427 210 423 195 424 166C424 150 416 136 402 128C387 120 377 113 368 103L429 -13C435 -25 431 -39 419 -45L315 -101C304 -107 289 -103 283 -92L224 14L165 -92C159 -103 144 -107 133 -101L29 -45C17 -39 13 -25 19 -13L80 103C71 113 61 120 46 128C33 136 24 150 24 166C25 195 21 210 6 234C-2 248 -2 264 6 278C21 302 25 317 24 346C24 362 33 376 46 384C71 398 83 409 96 434C104 448 118 456 134 456C163 455 178 459 202 474ZM261 47 313 -48 376 -14 335 62C329 58 322 56 314 56C292 57 278 55 261 47ZM134 56C126 56 119 58 113 62L72 -14L135 -48L187 46C170 54 156 57 134 56ZM152 256C152 216 184 184 224 184C264 184 296 216 296 256C296 296 264 328 224 328C184 328 152 296 152 256ZM224 136C158 136 104 190 104 256C104 322 158 376 224 376C290 376 344 322 344 256C344 190 290 136 224 136Z" />
  </g>
</svg>