<?xml version='1.0' encoding='utf-8'?>
<svg xmlns="http://www.w3.org/2000/svg" viewBox="0 0 512 512" width="100" height="100" fill="currentColor">
  <g transform="scale(1, -1) translate(0, -448)">
    <path d="M257 448C271 448 285 440 292 427L508 27C514 15 514 0 507 -13C500 -25 487 -32 473 -32H41C26 -32 13 -25 6 -13C-1 0 -1 15 5 27L221 427C228 440 242 448 257 448ZM54 16H459L257 391L54 16ZM257 56C239 56 225 70 225 88C225 106 239 120 257 120C274 120 289 106 289 88C289 70 274 56 257 56ZM257 264C275 264 290 248 288 229L280 165C279 153 269 144 257 144C244 144 234 153 233 165L226 229C224 248 238 264 257 264Z" />
  </g>
</svg>