<?xml version='1.0' encoding='utf-8'?>
<svg xmlns="http://www.w3.org/2000/svg" viewBox="0 0 512 512" width="100" height="100" fill="currentColor">
  <g transform="scale(1, -1) translate(0, -448)">
    <path d="M256 416C265 416 272 409 272 400C272 391 265 384 256 384C247 384 240 391 240 400C240 409 247 416 256 416ZM256 352C283 352 304 373 304 400C304 427 283 448 256 448C229 448 208 427 208 400C208 373 229 352 256 352ZM256 0C265 0 272 -7 272 -16C272 -25 265 -32 256 -32C247 -32 240 -25 240 -16C240 -7 247 0 256 0ZM256 -64C283 -64 304 -43 304 -16C304 11 283 32 256 32C229 32 208 11 208 -16C208 -43 229 -64 256 -64ZM32 192C32 201 39 208 48 208C57 208 64 201 64 192C64 183 57 176 48 176C39 176 32 183 32 192ZM96 192C96 219 75 240 48 240C21 240 0 219 0 192C0 165 21 144 48 144C75 144 96 165 96 192ZM464 208C473 208 480 201 480 192C480 183 473 176 464 176C455 176 448 183 448 192C448 201 455 208 464 208ZM464 144C491 144 512 165 512 192C512 219 491 240 464 240C437 240 416 219 416 192C416 165 437 144 464 144ZM98 34C93 38 91 44 93 49C94 55 99 60 104 61C110 62 116 61 120 56C125 52 126 46 125 40C124 35 119 30 113 29C108 27 102 29 98 34ZM143 79C124 98 94 98 75 79C56 60 56 30 75 11C94 -8 124 -8 143 11C162 30 162 60 143 79ZM120 350C125 346 126 340 125 335C124 329 119 324 113 323C108 322 102 323 98 328C93 332 91 338 93 344C94 349 99 354 104 355C110 357 116 355 120 350ZM75 305C94 286 124 286 143 305C162 324 162 354 143 373C124 392 94 392 75 373C56 354 56 324 75 305ZM392 56C396 61 402 62 408 61C413 60 418 55 419 49C421 44 419 38 414 34C410 29 404 27 399 29C393 30 388 35 387 40C386 46 387 52 392 56ZM437 11C456 30 456 60 437 79C418 98 388 98 369 79C350 60 350 30 369 11C388 -8 418 -8 437 11Z" />
  </g>
</svg>