<?xml version='1.0' encoding='utf-8'?>
<svg xmlns="http://www.w3.org/2000/svg" viewBox="0 0 512 512" width="100" height="100" fill="currentColor">
  <g transform="scale(1, -1) translate(0, -448)">
    <path d="M208 400C208 427 229 448 256 448C283 448 304 427 304 400C304 373 283 352 256 352C229 352 208 373 208 400ZM208 -16C208 11 229 32 256 32C283 32 304 11 304 -16C304 -43 283 -64 256 -64C229 -64 208 -43 208 -16ZM48 240C75 240 96 219 96 192C96 165 75 144 48 144C21 144 0 165 0 192C0 219 21 240 48 240ZM416 192C416 219 437 240 464 240C491 240 512 219 512 192C512 165 491 144 464 144C437 144 416 165 416 192ZM75 79C94 98 124 98 143 79C162 60 162 30 143 11C124 -8 94 -8 75 11C56 30 56 60 75 79ZM75 373C94 392 124 392 143 373C162 354 162 324 143 305C124 286 94 286 75 305C56 324 56 354 75 373ZM437 79C456 60 456 30 437 11C418 -8 388 -8 369 11C350 30 350 60 369 79C388 98 418 98 437 79Z" />
  </g>
</svg>