<?xml version='1.0' encoding='utf-8'?>
<svg xmlns="http://www.w3.org/2000/svg" viewBox="0 0 512 512" width="100" height="100" fill="currentColor">
  <g transform="scale(1, -1) translate(0, -448)">
    <path d="M466 418H378H466H378Q377 418 377 418Q377 418 376 418Q376 418 376 418Q375 418 375 418H136Q136 418 136 418Q135 418 135 418Q135 418 134 418Q134 418 134 418H46Q31 416 30 402V-17Q31 -32 46 -33H466Q481 -32 482 -17V402Q481 416 466 418ZM151 87V295V87V295H360V87H151ZM360 55V-1V55V-1H151V55H360ZM62 295H119H62H119V87H62V295ZM151 327V386V327V386H360V327H151ZM392 295H450H392H450V87H392V295ZM450 327H392H450H392V386H450V327ZM119 386V327V386V327H62V386H119ZM62 55H119H62H119V-1H62V55ZM392 -1V55V-1V55H450V-1H392Z" />
  </g>
</svg>
