<?xml version='1.0' encoding='utf-8'?>
<svg xmlns="http://www.w3.org/2000/svg" viewBox="0 0 448 512" width="100" height="100" fill="currentColor">
  <g transform="scale(1, -1) translate(0, -448)">
    <path d="M64 416C29 416 0 387 0 352V32C0 -3 29 -32 64 -32H384C419 -32 448 -3 448 32V352C448 387 419 416 384 416H64ZM200 104V168H136C123 168 112 179 112 192C112 205 123 216 136 216H200V280C200 293 211 304 224 304C237 304 248 293 248 280V216H312C325 216 336 205 336 192C336 179 325 168 312 168H248V104C248 91 237 80 224 80C211 80 200 91 200 104Z" />
  </g>
</svg>