<?xml version='1.0' encoding='utf-8'?>
<svg xmlns="http://www.w3.org/2000/svg" viewBox="0 0 512 512" width="100" height="100" fill="currentColor">
  <g transform="scale(1, -1) translate(0, -448)">
    <path d="M256 400C371 400 464 307 464 192C464 77 371 -16 256 -16C141 -16 48 77 48 192C48 307 141 400 256 400ZM256 -64C397 -64 512 51 512 192C512 333 397 448 256 448C115 448 0 333 0 192C0 51 115 -64 256 -64ZM232 104C232 91 243 80 256 80C269 80 280 91 280 104V168H344C357 168 368 179 368 192C368 205 357 216 344 216H280V280C280 293 269 304 256 304C243 304 232 293 232 280V216H168C155 216 144 205 144 192C144 179 155 168 168 168H232V104Z" />
  </g>
</svg>