<?xml version='1.0' encoding='utf-8'?>
<svg xmlns="http://www.w3.org/2000/svg" viewBox="0 0 543 512" width="100" height="100" fill="currentColor">
  <g transform="scale(1, -1) translate(0, -448)">
    <path d="M150 -8H30V418H241V339Q241 325 246 314Q252 303 262 297Q272 290 286 290H368V124Q368 118 372 114Q377 109 383 109Q390 109 394 114Q398 118 398 124V314Q398 320 394 324L279 444Q275 448 269 448H15Q9 448 4 444Q0 440 0 433V-23Q0 -29 4 -33Q8 -37 15 -38H150Q157 -37 161 -33Q165 -29 165 -23Q165 -16 161 -12Q157 -8 150 -7ZM266 76Q255 81 241 81H191V-47H217V-2H240Q263 -2 276 9Q289 20 289 39Q289 51 283 61Q277 71 266 76ZM257 25Q251 20 241 20H217V60H241Q251 60 257 54Q262 48 262 39Q262 29 257 24V25ZM352 62Q362 62 368 57Q373 52 373 44H400Q400 55 394 64Q388 73 377 78Q366 83 353 83Q339 83 328 79Q317 74 311 66Q306 58 306 48Q306 28 327 16Q335 12 349 7Q363 3 368 -1Q373 -5 373 -13Q373 -19 368 -23Q363 -27 353 -27Q328 -27 328 -6H301Q301 -18 308 -28Q314 -37 326 -42Q339 -48 353 -48Q375 -48 387 -38Q400 -29 400 -12Q400 3 389 13Q379 23 357 30Q344 33 338 37Q332 42 332 48Q332 55 337 59Q342 63 352 63V62ZM508 52Q500 66 487 73Q474 81 457 81H418V-47H458Q474 -47 488 -39Q501 -32 508 -18Q516 -3 516 14V20Q516 38 508 52ZM489 13Q489 -6 480 -16Q472 -26 457 -26H444V60H457Q472 60 481 50Q489 40 489 20V14V13Z" />
  </g>
</svg>