<?xml version='1.0' encoding='utf-8'?>
<svg xmlns="http://www.w3.org/2000/svg" viewBox="0 0 512 512" width="100" height="100" fill="currentColor">
  <g transform="scale(1, -1) translate(0, -448)">
    <path d="M249 -61Q230 -61 214 -54Q197 -46 185 -32Q170 -14 166 7Q162 29 168 50Q175 71 193 87L264 149Q276 160 290 165Q304 170 320 170Q329 170 330 170Q330 170 328 170Q325 170 325 170Q342 169 357 162Q372 155 383 142Q393 130 399 117Q402 108 398 99Q394 91 386 87Q382 86 377 86Q370 86 365 90Q359 94 356 100Q354 107 349 112Q338 124 322 125Q321 125 320 125Q305 125 294 115L223 53Q214 46 211 36Q208 26 210 16Q212 6 219 -3Q225 -9 232 -13Q240 -16 249 -16Q263 -16 275 -7L320 33Q327 39 335 39Q339 39 344 37Q349 35 352 31Q358 24 358 15Q357 6 350 0L304 -40Q293 -51 278 -56Q264 -61 249 -61ZM356 33Q337 33 321 40Q304 48 292 62Q281 74 276 89Q273 98 277 107Q281 115 290 118Q293 119 297 119Q305 119 310 115Q316 111 319 104Q321 97 326 91Q332 85 339 81Q347 78 356 78Q364 78 370 80Q376 83 382 87L453 150Q465 161 466 177Q467 185 464 192Q462 200 457 206Q446 218 430 219Q428 219 427 219Q412 219 401 209L359 173Q353 167 345 167Q340 167 336 169Q331 171 327 175Q321 182 322 191Q323 201 330 207L371 243Q383 253 397 259Q411 264 427 264Q436 264 437 264Q437 264 435 264Q432 264 432 264Q449 263 464 256Q479 248 490 235Q502 222 507 207Q512 191 511 174Q510 157 503 142Q495 127 482 116L411 54Q399 43 385 38Q371 33 355 33H356ZM128 30Q123 30 119 32L13 78Q7 81 3 87Q0 92 0 99V348Q0 356 5 362Q8 368 15 370L195 447Q199 448 204 448Q208 448 213 447L293 413L294 412L393 370Q394 370 396 369Q398 368 400 367Q405 364 408 359Q410 354 410 348V294Q410 285 404 279Q397 272 388 272Q379 272 372 279Q366 285 366 294V315L229 259V160Q229 150 222 144Q216 138 206 137Q197 138 191 144Q184 150 184 160V258L141 275V227Q141 218 135 211Q128 205 119 205Q109 205 103 211Q97 218 96 227V294L45 315V114L138 73Q146 69 150 61Q153 52 149 44Q146 37 141 34Q135 30 129 30H128ZM205 298 329 348 285 367 164 314 205 298ZM106 338Q107 339 109 340L228 391L204 401L80 349L106 338Z" />
  </g>
</svg>