<?xml version='1.0' encoding='utf-8'?>
<svg xmlns="http://www.w3.org/2000/svg" viewBox="0 0 512 512" width="100" height="100" fill="currentColor">
  <g transform="scale(1, -1) translate(0, -448)">
    <path d="M151 -55 247 41C259 54 259 74 247 87C234 99 214 99 201 87L160 45V416C160 434 146 448 128 448C110 448 96 434 96 416V45L55 87C42 99 22 99 9 87C-3 74 -3 54 9 41L105 -55C118 -67 138 -67 151 -55ZM407 439C394 451 374 451 361 439L265 343C253 330 253 310 265 297C278 285 298 285 311 297L352 339V-32C352 -50 366 -64 384 -64C402 -64 416 -50 416 -32V339L457 297C470 285 490 285 503 297C515 310 515 330 503 343L407 439Z" />
  </g>
</svg>