<?xml version='1.0' encoding='utf-8'?>
<svg xmlns="http://www.w3.org/2000/svg" viewBox="0 0 384 512" width="100" height="100" fill="currentColor">
  <g transform="scale(1, -1) translate(0, -448)">
    <path d="M293 64C300 86 315 106 331 124C364 158 384 205 384 256C384 362 298 448 192 448C86 448 0 362 0 256C0 205 20 158 53 124C69 106 84 86 91 64H293ZM288 16H96V0C96 -44 132 -80 176 -80H208C252 -80 288 -44 288 0V16ZM184 336C144 336 112 304 112 264C112 251 101 240 88 240C75 240 64 251 64 264C64 330 118 384 184 384C197 384 208 373 208 360C208 347 197 336 184 336Z" />
  </g>
</svg>