<?xml version='1.0' encoding='utf-8'?>
<svg xmlns="http://www.w3.org/2000/svg" viewBox="0 0 640 512" width="100" height="100" fill="currentColor">
  <g transform="scale(1, -1) translate(0, -448)">
    <path d="M32 352C32 387 61 416 96 416H480C515 416 544 387 544 352V96H608C626 96 640 82 640 64C640 46 626 32 608 32H312C312 29 312 27 312 24C312 -25 273 -64 224 -64C175 -64 136 -25 136 24C136 27 136 29 136 32H96C61 32 32 61 32 96V352ZM440 336C427 336 416 325 416 312V152C416 139 427 128 440 128C453 128 464 139 464 152V312C464 325 453 336 440 336ZM112 312V152C112 139 123 128 136 128C149 128 160 139 160 152V312C160 325 149 336 136 336C123 336 112 325 112 312ZM288 336C275 336 264 325 264 312V152C264 139 275 128 288 128C301 128 312 139 312 152V312C312 325 301 336 288 336ZM264 24C264 46 246 64 224 64C202 64 184 46 184 24C184 2 202 -16 224 -16C246 -16 264 2 264 24Z" />
  </g>
</svg>