<?xml version='1.0' encoding='utf-8'?>
<svg xmlns="http://www.w3.org/2000/svg" viewBox="0 0 512 512" width="100" height="100" fill="currentColor">
  <g transform="scale(1, -1) translate(0, -448)">
    <path d="M246 444C252 449 261 449 267 444L507 220C514 214 514 203 508 197C502 191 492 190 486 196L465 216V0C465 -35 436 -64 401 -64H113C77 -64 49 -35 49 0V216L27 196C21 190 11 191 5 197C-1 204 -1 214 6 220L246 444ZM257 410 81 246V0C81 -18 95 -32 113 -32H177V80C177 115 205 144 241 144H273C308 144 337 115 337 80V-32H401C418 -32 433 -18 433 0V246L257 410ZM209 -32H305V80C305 98 290 112 273 112H241C223 112 209 98 209 80V-32Z" />
  </g>
</svg>