<?xml version='1.0' encoding='utf-8'?>
<svg xmlns="http://www.w3.org/2000/svg" viewBox="0 0 512 512" width="100" height="100" fill="currentColor">
  <g transform="scale(1, -1) translate(0, -448)">
    <path d="M484 339 422 130 484 339 422 130Q419 119 407 118H178Q166 119 163 130L95 388H49Q34 390 33 404Q34 419 49 420H107Q119 420 122 409L190 150H395L417 224H301Q286 225 285 240Q286 255 301 256H426L447 327H198Q184 329 182 343Q184 358 198 359H469Q477 359 482 353Q486 346 484 339ZM270 28Q269 3 253 -14Q236 -31 210 -31Q185 -31 168 -14Q151 3 151 28Q151 54 168 71Q185 88 210 88Q236 88 253 71Q269 54 270 28ZM238 28Q238 40 230 48Q222 56 210 56Q199 56 191 48Q183 40 183 28Q183 17 191 9Q199 1 210 1Q222 1 230 9Q238 17 238 28ZM423 28Q423 3 406 -14Q389 -31 364 -31Q338 -31 321 -14Q304 3 304 28Q304 54 321 71Q338 88 364 88Q389 88 406 71Q423 54 423 28ZM391 28Q391 40 383 48Q375 56 364 56Q352 56 344 48Q336 40 336 28Q336 17 344 9Q352 1 364 1Q375 1 383 9Q391 17 391 28Z" />
  </g>
</svg>
