<?xml version='1.0' encoding='utf-8'?>
<svg xmlns="http://www.w3.org/2000/svg" viewBox="0 0 512 512" width="100" height="100" fill="currentColor">
  <g transform="scale(1, -1) translate(0, -448)">
    <path d="M406 31Q397 32 390 38L348 80L306 38Q299 32 290 31Q281 32 274 38Q267 45 267 54Q267 63 274 70L316 112L274 154Q267 161 267 170Q267 179 274 186Q280 193 290 193Q299 193 306 186L348 144L390 186Q396 193 406 193Q415 193 422 186Q428 179 428 170Q428 161 422 154L380 112L422 70Q428 64 428 54Q428 45 422 38Q415 32 406 32V31ZM343 243 426 314Q433 321 434 330Q435 339 429 346Q426 350 421 352Q417 354 412 354Q407 354 403 353Q400 351 397 349L331 292L308 317Q302 325 291 325Q287 325 283 323Q280 322 277 319Q270 313 269 304Q269 295 275 288L312 246Q318 239 328 238Q333 238 337 240Q340 241 343 244V243ZM206 273Q216 274 222 280Q228 286 229 296Q228 306 222 312Q216 318 206 318H104Q95 318 88 312Q82 306 82 296Q82 286 88 280Q95 274 104 273H206ZM206 89Q216 90 222 96Q228 102 229 112Q228 121 222 128Q216 134 206 134H104Q95 134 88 128Q82 121 82 112Q82 102 88 96Q95 90 104 89H206ZM489 -64Q499 -63 505 -57Q511 -51 512 -41V426Q511 436 505 442Q499 448 489 448H22Q12 448 6 442Q0 436 0 426V-41Q0 -51 6 -57Q12 -63 22 -64H489ZM44 -19V404H466V-18H44V-19Z" />
  </g>
</svg>