<?xml version='1.0' encoding='utf-8'?>
<svg xmlns="http://www.w3.org/2000/svg" viewBox="0 0 384 512" width="100" height="100" fill="currentColor">
  <g transform="scale(1, -1) translate(0, -448)">
    <path d="M0 384C0 419 29 448 64 448H214C231 448 247 441 259 429L365 323C377 311 384 294 384 277V0C384 -35 355 -64 320 -64H64C29 -64 0 -35 0 0V384ZM208 389V296C208 283 219 272 232 272H326L208 389ZM120 192C107 192 96 181 96 168C96 155 107 144 120 144H264C277 144 288 155 288 168C288 181 277 192 264 192H120ZM120 96C107 96 96 85 96 72C96 59 107 48 120 48H264C277 48 288 59 288 72C288 85 277 96 264 96H120Z" />
  </g>
</svg>