<?xml version='1.0' encoding='utf-8'?>
<svg xmlns="http://www.w3.org/2000/svg" viewBox="0 0 512 512" width="100" height="100" fill="currentColor">
  <g transform="scale(1, -1) translate(0, -448)">
    <path d="M429 298H237H429H237Q213 298 197 282Q181 266 181 242V18Q181 -5 197 -21Q213 -37 237 -38H429Q452 -37 468 -21Q484 -5 485 18V242Q484 266 468 282Q452 298 429 298ZM453 18Q451 -4 429 -6H237Q215 -4 213 18V242Q215 264 237 266H429Q451 264 453 242V18ZM153 99Q151 85 137 83H85Q63 84 48 99Q33 115 32 138V363Q33 386 48 401Q63 416 85 417H278Q301 416 316 401Q331 386 332 363V341Q330 327 316 325Q301 327 300 341V363Q298 383 278 385H85Q66 383 64 363V138Q66 117 85 115H137Q151 114 153 99Z" />
  </g>
</svg>
