<?xml version='1.0' encoding='utf-8'?>
<svg xmlns="http://www.w3.org/2000/svg" viewBox="0 0 384 512" width="100" height="100" fill="currentColor">
  <g transform="scale(1, -1) translate(0, -448)">
    <path d="M48 416H88L76 259C41 233 16 195 6 150L5 144C0 119 19 96 44 96H341C366 96 385 119 380 144L379 150C369 195 343 233 309 259L297 416H336C345 416 352 423 352 432C352 441 345 448 336 448H48C40 448 32 441 32 432C32 423 40 416 48 416ZM107 250 120 416H265L277 250C278 245 280 241 284 238L289 234C318 212 339 181 347 143L348 138C349 133 346 128 341 128H44C39 128 35 133 36 138L37 143C45 181 66 212 95 234L101 238C105 241 107 245 107 250ZM176 48V-80C176 -89 184 -96 192 -96C201 -96 208 -89 208 -80V48H176Z" />
  </g>
</svg>