<?xml version='1.0' encoding='utf-8'?>
<svg xmlns="http://www.w3.org/2000/svg" viewBox="0 0 512 512" width="100" height="100" fill="currentColor">
  <g transform="scale(1, -1) translate(0, -448)">
    <path d="M235 254Q225 254 219 260Q212 267 212 276Q212 286 219 292Q225 299 235 299H292Q301 299 308 292Q314 286 314 276Q314 267 308 260Q301 254 292 254H235ZM263 195Q273 195 279 201Q285 208 286 217Q285 227 279 233Q273 240 263 240H235Q225 240 219 233Q212 227 212 217Q212 208 219 201Q225 195 235 195H263ZM114 37Q123 37 129 44Q136 50 136 60Q136 69 129 76Q123 82 114 82H45V372H99V359Q99 349 106 343Q112 336 122 336H289Q298 336 304 343Q311 349 311 359V372H367V209Q367 200 374 193Q380 187 390 187Q399 187 405 193Q412 200 412 209V395Q412 404 405 411Q399 417 390 417H311V426Q311 436 304 442Q298 448 289 448H121Q112 448 105 442Q99 436 99 426V417H22Q12 417 6 410Q0 404 0 395V60Q0 50 6 44Q12 37 22 37H114ZM144 381V403H266V381H144ZM505 40Q511 49 511 59Q512 69 506 77V78L505 79Q503 82 494 93Q485 104 469 119Q453 134 432 148Q411 163 386 172Q360 182 332 182Q303 182 278 173Q253 163 232 149Q211 135 195 120Q179 105 170 94Q160 83 158 79Q152 70 152 60Q152 49 158 40Q159 38 168 28Q177 17 193 2Q208 -13 230 -28Q251 -43 277 -53Q302 -63 332 -63Q361 -63 387 -53Q412 -43 434 -28Q455 -13 471 2Q486 17 495 28Q504 38 505 40ZM331 137Q354 137 375 128Q396 119 413 107Q430 94 443 81Q456 68 463 59Q456 51 443 38Q431 25 413 12Q396 -1 375 -9Q354 -18 331 -19Q308 -18 288 -9Q267 -1 249 12Q232 25 219 38Q206 51 200 59Q206 68 219 81Q232 94 249 106Q266 119 287 128Q308 137 331 137ZM400 60Q401 79 392 95Q383 112 367 121Q350 131 331 131Q313 131 296 121Q280 112 271 95Q262 79 263 60Q262 41 271 24Q280 8 296 -2Q313 -12 331 -12Q350 -12 367 -2Q383 8 392 24Q401 41 400 60ZM308 60Q308 70 314 77Q321 83 331 83Q341 83 348 77Q355 70 355 60Q355 50 348 43Q341 36 331 36Q321 36 314 43Q308 50 308 60ZM142 139V155Q148 156 154 158Q165 163 172 172Q178 181 178 193Q178 199 176 206Q174 214 170 219Q162 230 144 234L124 239Q118 241 116 242Q113 243 113 244Q111 245 111 249Q111 251 111 251Q111 252 112 252Q113 254 114 255Q117 257 120 258Q123 259 128 259Q135 259 138 256Q141 252 142 246L143 241L176 242V246Q176 258 170 267Q164 277 153 282Q148 285 143 286V303H112V286Q106 285 101 283Q89 278 83 268Q75 259 75 246Q76 230 85 220Q95 211 110 208L130 204Q134 203 137 202Q140 200 141 199Q142 199 142 197Q143 196 143 193Q143 190 143 190Q143 189 142 188Q140 186 136 184Q133 183 127 182Q119 183 113 186Q108 189 107 196L106 199H71L72 194Q74 173 90 163Q99 157 112 155V139H143H142Z" />
  </g>
</svg>