<?xml version='1.0' encoding='utf-8'?>
<svg xmlns="http://www.w3.org/2000/svg" viewBox="0 0 512 512" width="100" height="100" fill="currentColor">
  <g transform="scale(1, -1) translate(0, -448)">
    <path d="M140 251Q154 241 170 236Q187 231 204 231Q221 231 238 236Q254 242 269 252Q290 268 301 291Q313 314 313 340Q312 370 298 395Q283 419 259 434Q234 448 204 448Q173 448 149 434Q124 419 110 395Q96 370 95 340Q95 313 107 290Q119 267 140 252ZM204 428Q229 428 248 416Q268 404 280 384Q292 364 292 340Q292 319 283 300Q273 282 256 269Q241 258 223 254Q205 250 186 254Q168 257 153 268Q135 281 126 300Q116 318 116 340Q116 364 128 384Q140 404 160 416Q180 428 204 428ZM264 46Q264 35 266 25H10Q6 25 3 28Q0 31 0 36V105Q0 130 9 152Q18 173 34 189Q51 206 72 215Q93 224 118 224H147Q150 224 152 223Q155 221 156 218L202 128L246 218Q247 221 249 222Q252 224 255 224H287Q319 224 344 211Q368 198 384 172Q382 173 381 173Q370 173 360 171Q346 188 328 195Q311 203 287 203H261L212 100Q211 98 208 96Q206 94 203 94Q200 94 197 96Q195 97 193 100L141 203H118Q91 203 69 190Q47 177 34 155Q21 133 21 105V46H264ZM384 159Q354 158 329 144Q304 129 290 105Q275 80 275 50Q275 23 287 0Q299 -23 320 -38Q334 -48 350 -54Q366 -59 384 -59Q401 -59 417 -53Q434 -48 448 -37Q469 -22 481 1Q492 24 492 50Q492 81 478 105Q463 130 438 144Q414 159 384 159ZM436 -21Q421 -32 403 -36Q384 -40 366 -36Q348 -32 332 -21Q315 -9 306 10Q296 29 296 50Q296 75 308 94Q320 114 340 126Q359 138 384 138Q409 138 429 126Q448 114 460 95Q472 75 472 50Q472 29 463 10Q453 -8 436 -21ZM423 75 398 50 423 25Q426 22 426 18Q426 14 423 10Q420 7 416 7Q412 7 409 10L384 36L358 10Q355 7 351 7Q347 7 344 10Q341 14 341 18Q341 21 344 25L369 50L344 75Q341 78 341 82Q341 86 344 90Q347 93 351 93Q355 93 358 90L383 64L409 90Q412 93 416 93Q420 93 423 90Q426 86 426 82Q426 79 423 75Z" />
  </g>
</svg>