<?xml version='1.0' encoding='utf-8'?>
<svg xmlns="http://www.w3.org/2000/svg" viewBox="0 0 512 512" width="100" height="100" fill="currentColor">
  <g transform="scale(1, -1) translate(0, -448)">
    <path d="M384 304H432V341C432 358 425 375 413 387L371 429C359 441 343 448 326 448H144C109 448 80 419 80 384V304H128V384C128 393 135 400 144 400H326C330 400 334 398 337 395L379 353C382 350 384 346 384 341V304ZM368 80V-16H144V80H368ZM128 128C110 128 96 114 96 96V80H48V192C48 201 55 208 64 208H448C457 208 464 201 464 192V80H416V96C416 114 402 128 384 128H128ZM416 32H480C498 32 512 46 512 64V192C512 227 483 256 448 256H64C29 256 0 227 0 192V64C0 46 14 32 32 32H96V-32C96 -50 110 -64 128 -64H384C402 -64 416 -50 416 -32V32Z" />
  </g>
</svg>