<?xml version='1.0' encoding='utf-8'?>
<svg xmlns="http://www.w3.org/2000/svg" viewBox="0 0 512 512" width="100" height="100" fill="currentColor">
  <g transform="scale(1, -1) translate(0, -448)">
    <path d="M165 -23Q164 -29 160 -33Q156 -37 149 -38H15Q8 -37 4 -33Q0 -29 0 -23V433Q0 440 4 444Q8 448 15 448H268Q275 448 279 444L393 325Q398 320 398 314V125Q397 118 393 114Q389 110 383 110Q376 110 372 114Q368 118 367 125V290H286Q272 291 261 297Q251 304 246 315Q240 326 240 339V418H30V-8H150Q156 -8 160 -12Q164 -16 165 -23ZM282 61Q288 51 288 39Q288 20 275 9Q262 -2 240 -2H217V-47H190V81H240Q255 81 265 76Q276 70 282 61ZM262 39Q262 48 256 54Q251 60 241 60H217V20H240Q251 20 256 25Q262 29 262 39ZM397 52Q404 38 404 20V14Q404 -4 397 -18Q390 -32 376 -39Q363 -47 346 -47H306V81H346Q363 81 376 73Q389 66 397 52ZM378 20Q378 40 369 50Q361 60 346 60H333V-26H345Q361 -26 369 -16Q377 -6 377 13V20ZM507 60V81H424V-47H450V6H501V27H450V60H507Z" />
  </g>
</svg>