<?xml version='1.0' encoding='utf-8'?>
<svg xmlns="http://www.w3.org/2000/svg" viewBox="0 0 640 512" width="100" height="100" fill="currentColor">
  <g transform="scale(1, -1) translate(0, -448)">
    <path d="M64 384C64 419 93 448 128 448H278C295 448 311 441 323 429L429 323C441 311 448 294 448 277V180L316 48H274L258 101C253 117 239 128 222 128C211 128 200 123 193 114L133 39C125 29 127 13 137 5C147 -3 163 -1 171 9L218 68L233 17C236 7 245 0 256 0H288C287 -3 286 -6 285 -9L274 -64H128C93 -64 64 -35 64 0V384ZM272 389V296C272 283 283 272 296 272H390L272 389ZM332 -19C335 -7 341 5 350 14L469 133L549 53L430 -66C421 -75 410 -81 397 -84L338 -96C337 -96 336 -96 335 -96C327 -96 320 -89 320 -81C320 -80 320 -79 320 -78L332 -19ZM600 104 571 75 491 155 520 184C542 206 578 206 600 184C622 162 622 126 600 104Z" />
  </g>
</svg>