<?xml version='1.0' encoding='utf-8'?>
<svg xmlns="http://www.w3.org/2000/svg" viewBox="0 0 576 512" width="100" height="100" fill="currentColor">
  <g transform="scale(1, -1) translate(0, -448)">
    <path d="M288 368C223 368 169 338 128 300C90 264 63 222 49 192C63 162 90 119 128 84C169 46 223 16 288 16C353 16 407 46 448 84C486 119 513 162 527 192C513 222 486 264 448 300C407 338 353 368 288 368ZM95 335C143 379 207 416 288 416C369 416 434 379 481 335C527 292 559 240 574 204C577 196 577 188 574 180C559 144 527 92 481 49C434 5 369 -32 288 -32C207 -32 143 5 95 49C49 92 17 144 2 180C-1 188 -1 196 2 204C17 240 49 292 95 335ZM288 112C332 112 368 148 368 192C368 222 352 247 328 261C327 202 278 153 219 152C233 128 258 112 288 112ZM208 200C211 200 213 200 216 200C251 200 280 229 280 264C280 267 280 269 280 272C242 268 212 238 209 200ZM208 200ZM254 315C265 318 276 320 288 320C297 320 305 319 314 317C314 317 314 317 315 317C372 305 416 253 416 192C416 121 359 64 288 64C226 64 175 107 163 165C161 174 160 183 160 192C160 203 161 214 164 224C164 225 164 225 164 226C176 269 211 303 254 315Z" />
  </g>
</svg>