<?xml version='1.0' encoding='utf-8'?>
<svg xmlns="http://www.w3.org/2000/svg" viewBox="0 0 448 512" width="100" height="100" fill="currentColor">
  <g transform="scale(1, -1) translate(0, -448)">
    <path d="M112 448C121 448 128 441 128 432V384H320V432C320 441 327 448 336 448C345 448 352 441 352 432V384H384C419 384 448 355 448 320V32C448 -3 419 -32 384 -32H64C29 -32 0 -3 0 32V320C0 355 29 384 64 384H96V432C96 441 103 448 112 448ZM384 352H64C46 352 32 338 32 320V288H416V320C416 338 402 352 384 352ZM416 256H32V32C32 14 46 0 64 0H384C402 0 416 14 416 32V256Z" />
  </g>
</svg>