<?xml version='1.0' encoding='utf-8'?>
<svg xmlns="http://www.w3.org/2000/svg" viewBox="0 0 512 512" width="100" height="100" fill="currentColor">
  <g transform="scale(1, -1) translate(0, -448)">
    <path d="M192 384C192 402 206 416 224 416H288C306 416 320 402 320 384V320C320 302 306 288 288 288H280V224H400C440 224 472 192 472 152V96H480C498 96 512 82 512 64V0C512 -18 498 -32 480 -32H416C398 -32 384 -18 384 0V64C384 82 398 96 416 96H424V152C424 165 413 176 400 176H280V96H288C306 96 320 82 320 64V0C320 -18 306 -32 288 -32H224C206 -32 192 -18 192 0V64C192 82 206 96 224 96H232V176H112C99 176 88 165 88 152V96H96C114 96 128 82 128 64V0C128 -18 114 -32 96 -32H32C14 -32 0 -18 0 0V64C0 82 14 96 32 96H40V152C40 192 72 224 112 224H232V288H224C206 288 192 302 192 320V384Z" />
  </g>
</svg>