<?xml version='1.0' encoding='utf-8'?>
<svg xmlns="http://www.w3.org/2000/svg" viewBox="0 0 448 512" width="100" height="100" fill="currentColor">
  <g transform="scale(1, -1) translate(0, -448)">
    <path d="M160 384C160 402 174 416 192 416H324C333 416 341 413 347 407L407 347C413 341 416 333 416 324V128C416 110 402 96 384 96H192C174 96 160 110 160 128V384ZM192 448C157 448 128 419 128 384V128C128 93 157 64 192 64H384C419 64 448 93 448 128V324C448 341 441 357 429 369L369 429C357 441 341 448 324 448H192ZM64 320C29 320 0 291 0 256V0C0 -35 29 -64 64 -64H256C291 -64 320 -35 320 0V16H288V0C288 -18 274 -32 256 -32H64C46 -32 32 -18 32 0V256C32 274 46 288 64 288H80V320H64Z" />
  </g>
</svg>