<?xml version='1.0' encoding='utf-8'?>
<svg xmlns="http://www.w3.org/2000/svg" viewBox="0 0 448 512" width="100" height="100" fill="currentColor">
  <g transform="scale(1, -1) translate(0, -448)">
    <path d="M0 192C0 223 25 248 56 248C87 248 112 223 112 192C112 161 87 136 56 136C25 136 0 161 0 192ZM168 192C168 223 193 248 224 248C255 248 280 223 280 192C280 161 255 136 224 136C193 136 168 161 168 192ZM392 248C423 248 448 223 448 192C448 161 423 136 392 136C361 136 336 161 336 192C336 223 361 248 392 248Z" />
  </g>
</svg>