<?xml version='1.0' encoding='utf-8'?>
<svg xmlns="http://www.w3.org/2000/svg" viewBox="0 0 576 512" width="100" height="100" fill="currentColor">
  <g transform="scale(1, -1) translate(0, -448)">
    <path d="M144 320C144 364 180 400 224 400C268 400 304 364 304 320C304 276 268 240 224 240C180 240 144 276 144 320ZM352 320C352 391 295 448 224 448C153 448 96 391 96 320C96 249 153 192 224 192C295 192 352 249 352 320ZM48 -32C48 39 105 96 176 96H240V123C240 130 241 137 243 144H176C79 144 0 65 0 -32V-40C0 -53 11 -64 24 -64C37 -64 48 -53 48 -40V-32ZM445 -41 432 -47V141L528 109V90C528 34 496 -17 445 -41ZM422 188 310 151C297 147 288 135 288 121V90C288 15 331 -52 398 -84L417 -93C422 -95 427 -96 432 -96C437 -96 442 -95 447 -93L466 -84C533 -52 576 15 576 90V121C576 135 567 147 554 151L442 189C436 191 428 191 422 189ZM422 188Z" />
  </g>
</svg>