<?xml version='1.0' encoding='utf-8'?>
<svg xmlns="http://www.w3.org/2000/svg" viewBox="0 0 429 512" width="100" height="100" fill="currentColor">
  <g transform="scale(1, -1) translate(0, -448)">
    <path d="M132 164Q124 173 112 173H28Q16 173 8 165Q0 157 0 145V-35Q0 -46 8 -54Q16 -62 28 -62H167Q178 -62 186 -54Q194 -46 194 -35V90Q194 101 186 109L132 164ZM139 -7H55V117H101L139 78V-7ZM366 164Q358 173 346 173H261Q249 173 242 165Q234 157 234 145V-35Q234 -46 242 -54Q249 -62 261 -62H400Q412 -62 420 -54Q428 -46 428 -35V90Q428 101 420 109L366 164ZM373 -7H289V117H335L373 78V-7ZM400 448H261Q249 448 242 440Q234 433 234 421V296Q234 285 242 277L296 222Q304 214 315 213H400Q412 214 420 222Q428 229 428 241V421Q428 433 420 440Q412 448 400 448ZM373 269H327L289 308V393H373V269ZM167 448H28Q16 448 8 440Q0 432 0 421V296Q0 285 8 277L62 222Q70 214 82 213H166Q178 214 186 222Q194 229 194 241V421Q194 432 186 440Q178 448 167 448ZM139 269H93L55 308V393H139V269Z" />
  </g>
</svg>