<?xml version='1.0' encoding='utf-8'?>
<svg xmlns="http://www.w3.org/2000/svg" viewBox="0 0 640 512" width="100" height="100" fill="currentColor">
  <g transform="scale(1, -1) translate(0, -448)">
    <path d="M24 464C11 464 0 453 0 440C0 427 11 416 24 416H69C73 416 77 413 77 409L129 123C136 89 165 64 200 64H456C469 64 480 75 480 88C480 101 469 112 456 112H200C189 112 179 120 177 132L171 160H475C506 160 532 182 538 212L569 378C573 398 558 416 537 416H125L124 418C120 445 96 464 69 464H24ZM208 -64C235 -64 256 -43 256 -16C256 11 235 32 208 32C181 32 160 11 160 -16C160 -43 181 -64 208 -64ZM432 -64C459 -64 480 -43 480 -16C480 11 459 32 432 32C405 32 384 11 384 -16C384 -43 405 -64 432 -64Z" />
  </g>
</svg>