<?xml version='1.0' encoding='utf-8'?>
<svg xmlns="http://www.w3.org/2000/svg" viewBox="0 0 512 512" width="100" height="100" fill="currentColor">
  <g transform="scale(1, -1) translate(0, -448)">
    <path d="M195 438C198 453 211 464 226 464H286C301 464 315 453 318 438L332 368C346 362 359 355 371 346L439 368C454 373 469 367 477 354L507 302C514 289 512 272 500 262L447 215C448 207 448 200 448 192C448 184 448 177 447 169L500 122C512 112 514 95 507 82L477 30C469 17 454 11 439 16L371 38C359 29 346 21 332 15L318 -55C315 -69 302 -80 286 -80H227C211 -80 198 -69 195 -55L181 15C167 21 154 29 142 38L74 16C59 11 43 17 36 30L6 82C-2 95 1 112 12 122L66 169C65 177 64 184 64 192C64 200 65 207 66 215L12 262C1 272 -2 289 6 302L36 354C43 367 59 373 74 368L141 346C153 355 167 362 181 369L195 438ZM256 112C300 112 336 148 336 192C336 236 300 272 256 272C212 272 176 236 176 192C176 148 212 112 256 112Z" />
  </g>
</svg>