<?xml version='1.0' encoding='utf-8'?>
<svg xmlns="http://www.w3.org/2000/svg" viewBox="0 0 448 512" width="100" height="100" fill="currentColor">
  <g transform="scale(1, -1) translate(0, -448)">
    <path d="M64 368C55 368 48 361 48 352V32C48 23 55 16 64 16H384C393 16 400 23 400 32V352C400 361 393 368 384 368H64ZM0 352C0 387 29 416 64 416H384C419 416 448 387 448 352V32C448 -3 419 -32 384 -32H64C29 -32 0 -3 0 32V352ZM200 104V168H136C123 168 112 179 112 192C112 205 123 216 136 216H200V280C200 293 211 304 224 304C237 304 248 293 248 280V216H312C325 216 336 205 336 192C336 179 325 168 312 168H248V104C248 91 237 80 224 80C211 80 200 91 200 104Z" />
  </g>
</svg>