<?xml version='1.0' encoding='utf-8'?>
<svg xmlns="http://www.w3.org/2000/svg" viewBox="0 0 512 512" width="100" height="100" fill="currentColor">
  <g transform="scale(1, -1) translate(0, -448)">
    <path d="M480 192C480 68 380 -32 256 -32C132 -32 32 68 32 192C32 316 132 416 256 416C380 416 480 316 480 192ZM0 192C0 51 115 -64 256 -64C397 -64 512 51 512 192C512 333 397 448 256 448C115 448 0 333 0 192ZM240 336V192C240 187 243 182 247 179L343 115C351 110 360 112 365 119C370 126 368 136 361 141L272 201V336C272 345 265 352 256 352C247 352 240 345 240 336Z" />
  </g>
</svg>