<?xml version='1.0' encoding='utf-8'?>
<svg xmlns="http://www.w3.org/2000/svg" viewBox="0 0 640 512" width="100" height="100" fill="currentColor">
  <g transform="scale(1, -1) translate(0, -448)">
    <path d="M598 373C609 380 611 395 603 406C596 417 581 419 570 411L495 357L486 364C466 377 443 384 419 384H360H359H216C189 384 163 375 142 359L70 411C59 419 44 417 37 406C29 395 31 380 42 373L130 309C140 302 153 303 161 311L165 315C178 328 197 336 216 336H262L170 244C155 229 155 203 170 188L171 187C218 140 294 140 341 187L368 214L466 116C481 101 481 75 466 60L456 50L425 81C416 90 400 90 391 81C382 71 382 56 391 47L419 19C402 8 382 2 362 0L313 49C304 58 288 58 279 49C270 40 270 24 279 15L294 0H290C254 0 220 14 194 40L65 169C56 178 40 178 31 169C22 160 22 144 31 135L160 6C195 -29 242 -48 290 -48H342L343 -49L344 -48H350C399 -48 445 -29 480 6L500 26C501 27 502 28 503 29C504 30 505 30 505 31L609 135C618 144 618 160 609 169C600 178 584 178 575 169L521 115C517 128 510 140 500 150L385 265C376 274 360 274 351 265L307 221C281 194 239 193 210 216L309 315C322 328 341 336 360 336H368H419C433 336 447 332 459 324L483 308C491 302 502 303 510 309L598 373Z" />
  </g>
</svg>