<?xml version='1.0' encoding='utf-8'?>
<svg xmlns="http://www.w3.org/2000/svg" viewBox="0 0 512 512" width="100" height="100" fill="currentColor">
  <g transform="scale(1, -1) translate(0, -448)">
    <path d="M336 416C354 416 368 402 368 384V272H400V384C400 419 371 448 336 448H176C141 448 112 419 112 384V272H144V384C144 402 158 416 176 416H192V360C192 338 210 320 232 320H280C302 320 320 338 320 360V416H336ZM224 416H288V360C288 356 284 352 280 352H232C228 352 224 356 224 360V416ZM316 -64H448C483 -64 512 -35 512 0V160C512 195 483 224 448 224H316C323 214 328 204 331 192H400V136C400 132 396 128 392 128H336V96H392C414 96 432 114 432 136V192H448C466 192 480 178 480 160V0C480 -18 466 -32 448 -32H331C328 -44 323 -54 316 -64ZM240 0V160V0ZM224 192C242 192 256 178 256 160V0C256 -18 242 -32 224 -32H64C46 -32 32 -18 32 0V160C32 178 46 192 64 192H80V136C80 114 98 96 120 96H168C190 96 208 114 208 136V192H224ZM112 136V192H176V136C176 132 172 128 168 128H120C116 128 112 132 112 136ZM224 224H64C29 224 0 195 0 160V0C0 -35 29 -64 64 -64H224C259 -64 288 -35 288 0V160C288 195 259 224 224 224Z" />
  </g>
</svg>