<?xml version='1.0' encoding='utf-8'?>
<svg xmlns="http://www.w3.org/2000/svg" viewBox="0 0 640 512" width="100" height="100" fill="currentColor">
  <g transform="scale(1, -1) translate(0, -448)">
    <path d="M128 400H240V312C240 272 272 240 312 240H400V132L448 180V261C448 278 441 295 429 307L307 429C295 441 279 448 262 448H128C93 448 64 419 64 384V0C64 -35 93 -64 128 -64H274L284 -16H128C119 -16 112 -9 112 0V384C112 393 119 400 128 400ZM290 80 274 134C269 149 255 160 238 160C227 160 216 155 209 146L149 71C141 61 143 45 153 37C163 29 179 31 187 41L234 100L249 49C252 39 261 32 272 32H303C307 38 311 43 316 48L348 80H290ZM288 380 380 288H312C299 288 288 299 288 312V380ZM332 -19 320 -79C320 -79 320 -80 320 -81C320 -89 327 -96 335 -96C336 -96 337 -96 338 -96L397 -84C410 -81 421 -75 430 -66L549 53L469 133L350 14C341 5 335 -7 332 -19ZM600 104C622 126 622 162 600 184C578 206 542 206 520 184L491 155L571 75L600 104Z" />
  </g>
</svg>