<?xml version='1.0' encoding='utf-8'?>
<svg xmlns="http://www.w3.org/2000/svg" viewBox="0 0 640 512" width="100" height="100" fill="currentColor">
  <g transform="scale(1, -1) translate(0, -448)">
    <path d="M96 368C87 368 80 361 80 352V96C80 87 87 80 96 80H156C172 99 197 112 224 112C251 112 276 99 292 80H480C489 80 496 87 496 96V352C496 361 489 368 480 368H96ZM328 32H312C312 29 312 27 312 24C312 -25 273 -64 224 -64C175 -64 136 -25 136 24C136 27 136 29 136 32H96C61 32 32 61 32 96V352C32 387 61 416 96 416H480C515 416 544 387 544 352V96C544 90 543 85 542 80H616C629 80 640 69 640 56C640 43 629 32 616 32H328ZM384 296C384 309 395 320 408 320C421 320 432 309 432 296V184C432 171 421 160 408 160C395 160 384 171 384 184V296ZM168 320C181 320 192 309 192 296V184C192 171 181 160 168 160C155 160 144 171 144 184V296C144 309 155 320 168 320ZM264 296C264 309 275 320 288 320C301 320 312 309 312 296V184C312 171 301 160 288 160C275 160 264 171 264 184V296ZM224 -16C246 -16 264 2 264 24C264 46 246 64 224 64C202 64 184 46 184 24C184 2 202 -16 224 -16Z" />
  </g>
</svg>