<?xml version='1.0' encoding='utf-8'?>
<svg xmlns="http://www.w3.org/2000/svg" viewBox="0 0 805 512" width="100" height="100" fill="currentColor">
  <g transform="scale(1, -1) translate(0, -448)">
    <path d="M793 213 701 345Q698 348 694 350Q690 352 686 352H596L602 429Q602 436 597 443Q592 448 583 448H155Q148 448 143 444Q138 439 137 432L130 346H55Q47 346 42 341Q36 335 36 327Q36 320 42 314Q47 309 55 309H269Q277 309 282 314Q287 320 288 327Q287 335 282 341Q277 346 269 346H167L172 412H564L539 62H346Q342 80 331 94Q320 107 304 115Q288 123 269 123Q250 123 234 115Q218 107 207 94Q196 80 192 62H145L154 165H260Q268 165 273 170Q278 175 278 183Q278 191 273 196Q268 201 260 201H45Q38 201 32 196Q27 191 27 183Q27 175 32 170Q37 165 45 165H117L107 46Q107 38 112 32Q117 26 125 26H192Q196 8 207 -5Q218 -19 234 -27Q250 -35 269 -35Q288 -35 304 -27Q320 -19 331 -5Q342 8 346 26H588Q592 8 603 -5Q614 -19 630 -27Q646 -35 665 -35Q684 -35 700 -27Q716 -19 727 -5Q738 8 742 26H778Q786 26 791 31Q796 36 796 44V203Q796 209 793 214V213ZM269 87Q281 87 291 81Q300 75 306 66Q312 56 312 44Q312 32 306 22Q300 13 291 7Q281 1 269 1Q257 1 247 7Q238 13 232 22Q226 32 226 44Q226 56 232 66Q238 75 247 81Q257 87 269 87ZM665 87Q677 87 686 81Q696 75 702 66Q707 56 707 44Q707 32 702 22Q696 13 686 7Q677 1 665 1Q653 1 643 7Q633 13 628 22Q622 32 622 44Q622 56 628 66Q633 75 643 81Q653 87 665 87ZM759 62H742Q737 80 726 94Q715 107 699 115Q683 123 665 123Q646 123 630 115Q614 107 603 94Q592 80 587 62H575L593 316H676L759 197V62ZM660 281H622Q618 281 615 279Q613 276 612 272L609 203Q609 199 612 196Q614 193 619 193H709Q714 193 717 198Q720 203 716 208L668 277Q664 281 660 281ZM251 256Q251 264 246 269Q241 275 233 275H18Q10 275 5 270Q0 264 0 256Q0 249 5 243Q10 238 18 238H233Q241 238 246 243Q251 249 251 256Z" />
  </g>
</svg>