<?xml version='1.0' encoding='utf-8'?>
<svg xmlns="http://www.w3.org/2000/svg" viewBox="0 0 512 512" width="100" height="100" fill="currentColor">
  <g transform="scale(1, -1) translate(0, -448)">
    <path d="M494 175Q501 175 506 170Q511 165 512 157V-46Q511 -53 506 -58Q501 -63 494 -64H188Q181 -63 176 -58Q171 -53 171 -46V56Q171 64 176 69Q181 74 188 74Q196 74 201 69Q206 64 206 56V-28H476V139H291Q283 140 278 145Q273 150 273 157Q273 165 278 170Q283 175 291 175H494ZM220 448Q228 448 233 443Q238 438 238 431V126Q238 118 233 113Q228 108 220 108H17Q10 108 5 113Q0 118 0 126V431Q0 438 5 443Q10 448 17 448H220ZM35 144H202V413H35V144ZM336 423Q342 428 349 427Q356 427 361 421Q366 415 365 408Q364 401 359 396L342 382Q392 378 427 347Q441 334 451 318Q462 302 468 283L475 297Q478 303 485 306Q492 308 499 305Q506 302 508 295Q511 288 508 281L478 220Q475 213 468 210Q465 209 462 209H459Q451 210 446 215L388 242Q381 245 379 252Q377 259 380 266Q383 273 390 275Q397 278 404 275L438 259Q433 277 425 293Q416 308 403 320Q388 333 369 340Q350 347 328 347L348 322Q353 317 352 309Q351 302 345 297Q340 294 334 293Q325 294 320 300L277 352Q272 358 273 365Q274 373 280 377L336 423Z" />
  </g>
</svg>