<?xml version='1.0' encoding='utf-8'?>
<svg xmlns="http://www.w3.org/2000/svg" viewBox="0 0 512 512" width="100" height="100" fill="currentColor">
  <g transform="scale(1, -1) translate(0, -448)">
    <path d="M193 -64Q182 -63 175 -55Q170 -50 169 -43Q168 -37 170 -30L205 62Q207 67 210 70L405 267Q412 275 422 275Q432 275 439 267L504 202Q511 195 511 185Q511 175 504 168L312 -26Q308 -30 302 -32L200 -63Q199 -63 200 -63Q199 -63 197 -63Q196 -64 193 -64ZM234 -1 282 14 453 185 423 216 249 40 234 -1ZM248 242Q238 242 231 249Q225 256 224 266Q225 276 231 282Q238 289 248 289H309Q319 289 325 282Q332 276 332 266Q332 256 325 249Q319 242 309 242H248ZM248 179Q238 179 231 186Q225 193 224 203Q225 213 231 219Q238 226 248 226H278Q288 226 295 219Q302 213 302 203Q302 193 295 186Q288 179 278 179H248ZM23 11Q13 12 6 18Q0 25 0 35V391Q0 401 6 408Q13 415 23 415H105V425Q105 435 112 442Q118 448 129 448H305Q315 448 322 442Q328 435 329 425V415H412Q422 415 429 408Q435 401 436 391V320Q435 310 429 304Q422 297 412 297Q402 297 395 304Q389 310 389 320V368H329V353Q328 343 322 337Q315 330 305 330H128Q118 330 111 337Q105 343 105 353V368H46V58H138Q148 58 154 52Q161 45 161 35Q161 25 154 18Q148 11 138 11H23ZM282 377V401H152V377H282ZM117 120V136Q104 139 94 145Q78 156 75 177V183H110L111 180Q113 173 118 169Q124 165 134 165Q138 165 140 166Q141 166 143 167Q147 169 149 171Q150 173 150 174Q151 175 151 176Q151 180 150 181Q149 183 148 183Q144 186 136 188L115 193Q99 196 89 206Q79 216 79 233Q79 241 81 246Q83 252 86 256Q93 266 106 272Q112 274 118 275V294H150V275Q156 274 161 271Q173 266 180 256Q186 246 186 234V229L151 228L150 233Q150 240 146 244Q143 247 135 247Q131 247 130 247Q128 247 126 246Q124 246 121 244Q118 242 118 240Q117 239 117 238Q117 238 117 236Q117 232 119 231Q122 228 131 226L152 220Q171 216 180 204Q184 198 186 190Q189 183 189 177Q188 164 181 155L179 152H178Q172 145 161 140Q156 138 149 137V120H118H117Z" />
  </g>
</svg>