<?xml version='1.0' encoding='utf-8'?>
<svg xmlns="http://www.w3.org/2000/svg" viewBox="0 0 320 512" width="100" height="100" fill="currentColor">
  <g transform="scale(1, -1) translate(0, -448)">
    <path d="M48 288C48 350 98 400 160 400C222 400 272 350 272 288C272 240 242 199 199 183C169 172 136 145 136 104V88C136 75 147 64 160 64C173 64 184 75 184 88V104C184 116 195 130 215 138C276 160 320 219 320 288C320 376 248 448 160 448C72 448 0 376 0 288V280C0 267 11 256 24 256C37 256 48 267 48 280V288ZM160 -64C178 -64 192 -50 192 -32C192 -14 178 0 160 0C142 0 128 -14 128 -32C128 -50 142 -64 160 -64Z" />
  </g>
</svg>