<?xml version='1.0' encoding='utf-8'?>
<svg xmlns="http://www.w3.org/2000/svg" viewBox="0 0 384 512" width="100" height="100" fill="currentColor">
  <g transform="scale(1, -1) translate(0, -448)">
    <path d="M32 416C32 434 46 448 64 448H320C338 448 352 434 352 416C352 398 338 384 320 384H291L301 250C338 229 367 193 379 150L383 137C386 127 384 117 378 109C372 101 362 96 352 96H32C22 96 13 101 7 109C1 117 -2 127 1 137L5 150C17 193 46 229 83 250L94 384H64C46 384 32 398 32 416ZM160 48H224V-64C224 -82 210 -96 192 -96C174 -96 160 -82 160 -64V48Z" />
  </g>
</svg>