<?xml version='1.0' encoding='utf-8'?>
<svg xmlns="http://www.w3.org/2000/svg" viewBox="0 0 543 512" width="100" height="100" fill="currentColor">
  <g transform="scale(1, -1) translate(0, -448)">
    <path d="M165 -23Q165 -29 161 -33Q156 -37 150 -38H15Q9 -37 4 -33Q0 -29 0 -23V433Q0 440 4 444Q9 448 15 448H269Q275 448 279 444L394 325Q398 320 398 314V125Q398 118 394 114Q390 110 383 110Q376 110 372 114Q368 118 368 125V290H286Q272 291 262 297Q252 304 246 315Q241 326 241 339V418H30V-8H150Q156 -8 161 -12Q165 -16 165 -23ZM283 61Q289 51 289 39Q289 20 276 9Q263 -2 240 -2H217V-47H191V81H241Q255 81 266 76Q277 70 283 61ZM262 39Q262 48 257 54Q251 60 241 60H217V20H241Q251 20 257 25Q262 29 262 39ZM385 -3 333 81H307V-47H333V37L385 -47H411V81H385V-3ZM485 1H509V-21Q503 -27 488 -27Q473 -27 466 -17Q458 -7 458 13V21Q458 41 465 51Q472 61 486 62Q496 62 502 56Q508 51 510 40H536Q534 61 521 72Q508 83 485 83Q469 83 457 75Q444 68 438 54Q432 40 432 21V12Q432 -6 439 -20Q445 -34 458 -41Q470 -49 487 -49Q503 -49 516 -44Q529 -39 536 -31V21H486V1H485Z" />
  </g>
</svg>