<?xml version='1.0' encoding='utf-8'?>
<svg xmlns="http://www.w3.org/2000/svg" viewBox="0 0 512 512" width="100" height="100" fill="currentColor">
  <g transform="scale(1, -1) translate(0, -448)">
    <path d="M67 -64Q48 -63 33 -54Q18 -45 9 -30Q0 -15 0 4V381Q0 400 9 415Q18 430 33 439Q48 448 67 448H444Q463 448 478 439Q493 430 502 415Q511 400 512 381V4Q511 -15 502 -30Q493 -45 478 -54Q463 -63 444 -64H67ZM444 -18Q454 -18 460 -12Q466 -6 466 4V206H311V-18H444ZM67 403Q57 403 51 397Q45 391 45 381V4Q45 -6 51 -12Q57 -18 67 -18H266V403H67ZM466 251V381Q466 391 460 397Q454 403 444 403H311V251H466Z" />
  </g>
</svg>