<?xml version='1.0' encoding='utf-8'?>
<svg xmlns="http://www.w3.org/2000/svg" viewBox="0 0 448 512" width="100" height="100" fill="currentColor">
  <g transform="scale(1, -1) translate(0, -448)">
    <path d="M136 443C141 456 153 464 166 464H282C295 464 307 456 312 443L328 400H424C437 400 448 389 448 376C448 363 437 352 424 352H24C11 352 0 363 0 376C0 389 11 400 24 400H120L136 443ZM52 -5 29 304H77L100 -1C100 -10 107 -16 116 -16H333C341 -16 348 -10 349 -1L371 304H419L396 -5C394 -38 366 -64 333 -64H116C82 -64 54 -38 52 -5Z" />
  </g>
</svg>