<?xml version='1.0' encoding='utf-8'?>
<svg xmlns="http://www.w3.org/2000/svg" viewBox="0 0 576 512" width="100" height="100" fill="currentColor">
  <g transform="scale(1, -1) translate(0, -448)">
    <path d="M224 200C290 200 344 254 344 320C344 386 290 440 224 440C158 440 104 386 104 320C104 254 158 200 224 200ZM194 144C96 144 16 64 16 -34C16 -51 29 -64 46 -64H297C261 -21 240 33 240 92V123C240 130 241 137 243 144H194ZM445 -41 432 -47V141L528 109V90C528 34 496 -17 445 -41ZM422 188 310 151C297 147 288 135 288 121V90C288 15 331 -52 398 -84L417 -93C422 -95 427 -96 432 -96C437 -96 442 -95 447 -93L466 -84C533 -52 576 15 576 90V121C576 135 567 147 554 151L442 189C436 191 428 191 422 189ZM422 188Z" />
  </g>
</svg>