<?xml version='1.0' encoding='utf-8'?>
<svg xmlns="http://www.w3.org/2000/svg" viewBox="0 0 720 720" width="100" height="100" fill="currentColor">
  <!-- House shape with cutout for user badge -->
  <path fill-rule="evenodd" d="M 240.0 6.0 C 249.0 -2.0 263.0 -2.0 272.0 6.0 L 504.0 214.0 C 514.0 223.0 515.0 238.0 506.0 248.0 C 497.0 258.0 482.0 259.0 472.0 250.0 L 464.0 243.0 V 448.0 C 464.0 413.0 435.0 384.0 400.0 384.0 H 112.0 C 77.0 384.0 48.0 413.0 48.0 448.0 V 243.0 L 40.0 250.0 C 30.0 259.0 15.0 258.0 6.0 248.0 C 3.0 238.0 2.0 223.0 8.0 214.0 L 240.0 6.0 Z M 256.0 56.0 96.0 200.0 V 448.0 C 96.0 439.0 103.0 432.0 112.0 432.0 H 160.0 V 360.0 C 160.0 320.0 192.0 288.0 232.0 288.0 H 280.0 C 320.0 288.0 352.0 320.0 352.0 360.0 V 432.0 H 400.0 C 409.0 432.0 416.0 439.0 416.0 448.0 V 200.0 L 256.0 56.0 Z M 208.0 432.0 H 304.0 V 360.0 C 304.0 347.0 293.0 336.0 280.0 336.0 H 232.0 C 219.0 336.0 208.0 347.0 208.0 360.0 V 432.0 Z M 504, 264 A 240,240 0 1,1 504,744 A 240,240 0 1,1 504,264 Z" />
  <!-- User badge (circle with user silhouette cutout) -->
  <path fill-rule="evenodd" d="M 504, 288 A 216,216 0 1,0 504,720 A 216,216 0 1,0 504,288 Z M 504.36 519.72 C 546.6 519.72 581.16 485.16 581.16 442.92 C 581.16 400.68 546.6 366.12 504.36 366.12 C 462.12 366.12 427.56 400.68 427.56 442.92 C 427.56 485.16 462.12 519.72 504.36 519.72 Z M 485.16 555.56 C 422.44 555.56 371.24 606.76 371.24 625.96 C 371.24 615.08 379.56 606.76 390.44 606.76 H 618.28 C 629.16 606.76 637.48 615.08 637.48 625.96 C 637.48 606.76 586.28 555.56 523.56 555.56 H 485.16 Z" />
</svg>
