<?xml version='1.0' encoding='utf-8'?>
<svg xmlns="http://www.w3.org/2000/svg" viewBox="0 0 512 512" width="100" height="100" fill="currentColor">
  <g transform="scale(1, -1) translate(0, -448)">
    <path d="M477 312 374 416 477 312 374 416Q369 421 363 421H46Q31 420 30 405V-15Q31 -30 46 -31H466Q480 -30 482 -15V301Q482 308 477 312ZM151 389H299H151H299V302H151V389ZM359 1H151H359H151V118H359V1ZM450 1H391H450H391V134Q389 149 375 150H135Q121 149 119 134V1H62V389H119V286Q120 271 135 270H315Q330 271 331 286V389H355L450 294V1Z" />
  </g>
</svg>
