<?xml version='1.0' encoding='utf-8'?>
<svg xmlns="http://www.w3.org/2000/svg" viewBox="0 0 448 512" width="100" height="100" fill="currentColor">
  <g transform="scale(1, -1) translate(0, -448)">
    <path d="M246 474C233 482 216 482 202 474C178 459 163 455 134 456C118 456 104 447 96 434C83 409 71 397 46 384C33 376 24 362 24 346C25 317 21 302 6 278C-2 264 -2 247 6 234C21 210 25 195 24 166C24 150 33 136 46 128C68 116 80 106 91 87L43 -11C37 -22 42 -37 53 -43L139 -86C151 -91 165 -87 171 -76L224 19L277 -76C283 -87 297 -92 308 -86L394 -43C406 -37 411 -22 405 -11L357 87C368 106 380 116 402 128C415 136 424 150 424 166C423 195 427 210 442 234C450 248 450 264 442 278C427 302 423 317 424 346C424 362 415 376 402 384C377 398 365 409 352 434C344 448 330 456 314 456C285 455 270 459 246 474ZM224 352C277 352 320 309 320 256C320 203 277 160 224 160C171 160 128 203 128 256C128 309 171 352 224 352Z" />
  </g>
</svg>