<?xml version='1.0' encoding='utf-8'?>
<svg xmlns="http://www.w3.org/2000/svg" viewBox="0 0 512 512" width="100" height="100" fill="currentColor">
  <g transform="scale(1, -1) translate(0, -448)">
    <path d="M108 -64Q89 -63 75 -54Q60 -45 51 -30Q42 -15 42 3V217Q22 229 11 249Q0 269 0 294Q0 295 0 295Q0 296 0 296Q0 298 0 299Q0 300 0 301Q0 302 0 302L29 389Q36 407 48 420Q60 433 77 441Q93 448 112 448H399Q418 448 434 441Q451 433 463 420Q475 407 482 389L510 302Q511 299 512 295Q512 280 507 268Q497 240 474 224V3Q474 -16 465 -31Q456 -46 441 -54Q426 -63 408 -64H108ZM408 -19Q417 -18 423 -12Q429 -6 429 3V210Q413 211 398 218Q384 225 372 237Q361 224 346 217Q331 210 314 210Q297 210 282 217Q267 224 255 237Q243 224 228 217Q213 210 197 210Q164 211 141 234Q130 221 116 214Q102 207 86 206V3Q86 -6 92 -12Q98 -18 108 -19H194V82Q194 100 203 114Q211 129 225 137Q239 145 257 146Q274 145 288 137Q302 129 310 114Q319 100 319 82V-19H408ZM44 292Q45 280 50 271Q55 262 63 256Q71 251 82 251Q96 251 106 261Q115 270 118 286Q120 294 126 299Q132 304 140 304Q145 304 146 304Q146 304 145 304Q144 304 144 304Q151 302 156 297Q161 291 162 284Q166 271 176 263Q185 255 197 255Q205 255 212 260Q220 264 226 272Q232 280 234 290Q235 298 241 304Q247 309 255 309Q260 309 261 309Q261 309 260 309Q259 308 260 308Q267 307 272 301Q277 296 277 288Q278 287 279 286Q283 272 292 264Q302 255 314 255Q322 255 330 260Q338 264 343 272Q349 280 351 290Q352 298 358 304Q364 309 373 309Q378 309 378 309Q379 309 377 309Q376 308 377 308Q384 307 389 301Q394 296 395 288Q395 287 396 286Q400 272 410 264Q419 255 431 255Q444 255 453 263Q462 270 466 283Q467 286 468 292L440 374Q435 387 424 395Q413 403 399 403H112Q98 403 87 395Q76 387 71 374L44 292Z" />
  </g>
</svg>