<?xml version='1.0' encoding='utf-8'?>
<svg xmlns="http://www.w3.org/2000/svg" viewBox="0 0 512 512" width="100" height="100" fill="currentColor">
  <g transform="scale(1, -1) translate(0, -448)">
    <path d="M393 324Q398 320 398 314V158Q397 152 393 147Q389 143 383 143Q376 143 372 147Q368 152 367 158V290H286Q272 290 261 296Q251 303 246 314Q240 325 240 339V418H30V-8H150Q156 -8 160 -12Q164 -16 165 -23Q164 -29 160 -33Q156 -38 150 -38H15Q8 -37 4 -33Q0 -29 0 -23V433Q0 440 4 444Q8 448 15 448H268Q275 448 279 444L393 325V324ZM234 68Q242 80 258 80Q270 80 278 74Q285 68 287 55H317Q314 80 299 92Q284 105 257 105Q238 105 224 96Q209 87 202 71Q194 54 194 32V22Q194 0 202 -16Q211 -32 225 -41Q240 -49 259 -49Q279 -49 293 -44Q308 -39 317 -28V32H258V9H286V-17Q278 -24 261 -25Q243 -25 235 -13Q226 0 226 23V32Q226 56 234 68ZM344 -47H375V103H344V-47ZM501 78V103H403V-47H434V14H494V39H434V78H501Z" />
  </g>
</svg>