<?xml version='1.0' encoding='utf-8'?>
<svg xmlns="http://www.w3.org/2000/svg" viewBox="0 0 576 512" width="100" height="100" fill="currentColor">
  <g transform="scale(1, -1) translate(0, -448)">
    <path d="M181 447C177 448 174 446 172 443L157 415C155 411 151 408 146 407C140 406 135 404 129 402C125 400 119 401 115 404L89 421C86 423 81 422 79 419L61 401C58 399 58 395 60 391L76 365C79 361 80 356 78 351C77 348 76 346 75 343C75 340 74 337 74 334C73 329 70 325 65 323L37 308C34 307 32 303 33 299L40 274C41 271 44 268 48 269L79 270C84 270 89 268 92 264C96 260 100 256 104 252C108 249 110 244 110 239L109 208C109 204 111 201 115 200L139 193C143 192 147 194 149 197L163 225C165 229 170 232 175 233C180 234 186 236 191 238C196 239 201 239 205 236L232 219C235 217 239 218 242 220L260 238C262 241 263 245 261 248L244 275C241 279 241 284 243 289C244 292 244 294 245 297C246 300 247 303 247 306C248 311 251 315 255 317L283 332C286 333 288 337 287 341L280 365C279 369 276 371 272 371L241 370C236 370 231 372 228 376C225 380 221 384 216 388C212 391 210 396 210 401L212 432C212 436 209 439 206 440L181 447ZM144 458C152 474 171 483 189 478L214 471C232 466 244 450 244 431L243 407C244 406 246 404 248 402L271 403C290 404 307 392 312 374L318 349C323 331 315 312 298 303L277 292C277 290 276 288 275 286L288 266C298 250 296 229 282 216L264 198C251 185 231 182 215 192L195 205C192 204 190 204 188 203L177 182C168 166 149 157 131 162L107 169C88 174 76 190 77 209L78 233C76 234 75 236 73 238L49 237C31 236 14 248 9 266L2 291C-3 309 6 328 23 337L43 348C44 350 45 352 45 354L33 374C23 390 25 411 38 424L56 442C69 455 90 458 106 448L126 435C128 436 130 436 133 437L144 458ZM146 266C116 274 98 305 106 334C114 364 145 382 175 374C205 366 222 335 214 305C206 276 176 258 146 266ZM183 314C187 327 179 340 166 343C154 347 140 339 137 326C134 313 141 300 154 297C167 293 180 301 183 314ZM371 184C367 183 365 180 365 176L366 145C366 140 364 135 360 132C356 128 352 124 348 120C345 116 340 114 335 114L304 115C300 115 297 113 296 109L289 85C288 81 290 77 293 75L321 61C326 59 329 55 329 50C330 47 331 44 331 41C332 38 333 36 334 33C336 28 335 23 332 19L316 -8C314 -11 314 -15 317 -18L335 -36C337 -38 341 -39 345 -37L371 -20C375 -17 381 -17 385 -18C391 -20 396 -22 402 -23C407 -24 411 -27 413 -31L428 -59C430 -62 433 -64 437 -63L462 -56C465 -55 468 -52 468 -48L466 -17C466 -12 468 -7 472 -4C477 0 481 4 484 8C487 12 492 14 497 14L529 13C532 12 536 15 537 18L543 43C544 47 543 50 539 52L512 67C507 69 504 73 503 78C503 81 502 84 501 87C501 89 500 92 499 95C497 100 498 105 500 109L517 135C519 139 519 143 516 145L498 163C495 166 491 166 488 164L462 148C457 145 452 144 447 146C442 148 437 150 431 151C426 151 422 155 419 159L405 187C403 190 399 192 396 191L371 184ZM333 175C332 193 344 210 363 215L387 222C405 227 424 218 433 202L444 181C446 180 448 180 451 179L471 192C486 202 507 199 520 186L538 168C552 155 554 134 544 118L531 98C532 96 533 94 533 92L554 81C571 72 579 53 574 35L568 10C563 -8 546 -20 527 -19L504 -18C502 -20 500 -22 499 -23L500 -47C500 -65 488 -82 470 -87L445 -94C427 -99 408 -90 400 -74L389 -53C386 -52 384 -51 382 -51L362 -64C346 -74 325 -71 312 -58L294 -40C281 -27 279 -6 289 10L301 30C301 32 300 34 299 36L279 47C262 56 254 75 258 93L265 118C270 136 287 148 305 147L329 146C331 148 332 150 334 151L333 175ZM431 10C401 2 370 20 362 49C354 79 372 110 402 118C432 126 462 108 470 78C478 49 461 18 431 10ZM439 70C436 83 423 91 410 87C397 84 390 71 393 58C396 45 410 37 422 41C435 44 443 57 439 70Z" />
  </g>
</svg>