<?xml version='1.0' encoding='utf-8'?>
<svg xmlns="http://www.w3.org/2000/svg" viewBox="0 0 448 512" width="100" height="100" fill="currentColor">
  <g transform="scale(1, -1) translate(0, -448)">
    <path d="M253 472C235 483 213 483 195 472C185 466 177 462 169 460C162 458 153 457 141 457C120 458 101 447 91 429C85 418 80 411 75 405C69 400 62 395 51 389C33 379 22 360 23 339C23 327 22 318 20 311C18 303 15 295 8 285C-3 267 -3 245 8 227C15 217 18 209 20 201C22 194 23 185 23 173C22 152 33 133 51 123C62 117 69 112 75 107C80 101 85 94 91 83L42 -11C33 -26 39 -46 55 -54L130 -95C146 -103 166 -97 174 -81L224 14L275 -81C283 -97 302 -103 318 -95L394 -54C409 -45 415 -26 407 -11L357 83C357 83 357 83 357 83C363 94 368 101 374 107C379 112 386 117 397 123C415 133 426 152 426 173C425 185 426 194 428 201C430 209 434 217 440 227C451 245 451 267 440 285C434 295 430 303 428 311C426 318 425 327 426 339C426 360 415 379 397 389C386 395 379 400 374 405C368 411 363 418 357 429C347 447 328 458 308 457C295 457 287 458 279 460C271 462 264 466 253 472ZM333 60 378 -25 303 -66 248 37C249 38 251 39 253 40C263 47 271 50 279 52C286 54 295 55 307 55C316 54 325 56 333 60ZM70 -26 115 60C123 56 132 54 141 55C153 55 162 54 169 52C177 50 185 46 195 40C197 39 199 38 200 37L145 -66L70 -26ZM212 445C219 449 229 449 236 445C248 437 259 432 270 429C282 426 294 425 308 425C317 425 325 421 329 413C336 401 342 391 351 382C359 374 369 367 381 361C389 357 394 349 393 340C393 326 394 314 397 302C400 291 405 280 413 268C417 260 417 251 413 244C405 232 400 221 397 209C394 198 393 186 393 172C394 163 389 155 381 151C369 144 359 138 351 129C342 121 335 111 329 98C325 91 317 86 308 86C294 87 282 86 270 83C259 80 248 75 236 67C229 63 219 63 212 67C200 75 189 80 178 83C166 86 154 87 140 87C131 86 123 91 119 99C113 111 106 121 97 129C89 138 79 145 67 151C59 155 54 163 55 172C55 186 54 198 51 210C48 221 43 232 35 244C31 251 31 261 35 268C43 280 48 291 51 302C54 314 55 326 55 340C55 349 59 357 67 361C79 367 89 374 98 383C106 391 113 401 119 413C123 421 131 426 140 425C154 425 166 426 178 429C189 432 200 437 212 445ZM304 256C304 212 268 176 224 176C180 176 144 212 144 256C144 300 180 336 224 336C268 336 304 300 304 256ZM224 368C162 368 112 318 112 256C112 194 162 144 224 144C286 144 336 194 336 256C336 318 286 368 224 368Z" />
  </g>
</svg>