<?xml version='1.0' encoding='utf-8'?>
<svg xmlns="http://www.w3.org/2000/svg" viewBox="0 0 448 512" width="100" height="100" fill="currentColor">
  <g transform="scale(1, -1) translate(0, -448)">
    <path d="M448 192C448 174 434 160 416 160C398 160 384 174 384 192C384 210 398 224 416 224C434 224 448 210 448 192ZM256 192C256 174 242 160 224 160C206 160 192 174 192 192C192 210 206 224 224 224C242 224 256 210 256 192ZM32 160C14 160 0 174 0 192C0 210 14 224 32 224C50 224 64 210 64 192C64 174 50 160 32 160Z" />
  </g>
</svg>