<?xml version='1.0' encoding='utf-8'?>
<svg xmlns="http://www.w3.org/2000/svg" viewBox="0 0 576 512" width="100" height="100" fill="currentColor">
  <g transform="scale(1, -1) translate(0, -448)">
    <path d="M139 411C133 417 123 417 117 411L21 315C15 309 15 299 21 293C27 286 37 286 43 293L112 361V-16C112 -25 119 -32 128 -32C137 -32 144 -25 144 -16V361L213 293C219 286 229 286 235 293C242 299 242 309 235 315L139 411ZM304 416C295 416 288 409 288 400C288 391 295 384 304 384H368C377 384 384 391 384 400C384 409 377 416 368 416H304ZM304 280C295 280 288 273 288 264C288 255 295 248 304 248H432C441 248 448 255 448 264C448 273 441 280 432 280H304ZM304 136C295 136 288 129 288 120C288 111 295 104 304 104H496C505 104 512 111 512 120C512 129 505 136 496 136H304ZM304 0C295 0 288 -7 288 -16C288 -25 295 -32 304 -32H560C569 -32 576 -25 576 -16C576 -7 569 0 560 0H304Z" />
  </g>
</svg>