<?xml version='1.0' encoding='utf-8'?>
<svg xmlns="http://www.w3.org/2000/svg" viewBox="0 0 448 512" width="100" height="100" fill="currentColor">
  <g transform="scale(1, -1) translate(0, -448)">
    <path d="M224 448C211 448 200 437 200 424V414C119 403 56 333 56 248V233C56 196 46 159 27 126L5 89C2 83 0 76 0 70C0 49 17 32 38 32H410C431 32 448 49 448 70C448 76 446 83 443 89L421 126C402 159 392 196 392 234V248C392 333 329 403 248 414V424C248 437 237 448 224 448ZM392 80H56L68 102C92 142 104 187 104 233V248C104 314 158 368 224 368C290 368 344 314 344 248V233C344 187 356 142 380 102L392 80ZM156 -16C166 -44 193 -64 224 -64C255 -64 282 -44 292 -16H156Z" />
  </g>
</svg>