<?xml version='1.0' encoding='utf-8'?>
<svg xmlns="http://www.w3.org/2000/svg" viewBox="0 0 512 512" width="100" height="100" fill="currentColor">
  <g transform="scale(1, -1) translate(0, -448)">
    <path d="M64 384C64 402 50 416 32 416C14 416 0 402 0 384V48C0 4 36 -32 80 -32H480C498 -32 512 -18 512 0C512 18 498 32 480 32H80C71 32 64 39 64 48V384ZM471 297C483 310 483 330 471 343C458 355 438 355 425 343L320 237L263 295C250 307 230 307 217 295L121 199C109 186 109 166 121 153C134 141 154 141 167 153L240 227L297 169C310 157 330 157 343 169L471 297Z" />
  </g>
</svg>