<?xml version='1.0' encoding='utf-8'?>
<svg xmlns="http://www.w3.org/2000/svg" viewBox="0 0 512 512" width="100" height="100" fill="currentColor">
  <g transform="scale(1, -1) translate(0, -448)">
    <path d="M464 192C464 77 371 -16 256 -16C141 -16 48 77 48 192C48 307 141 400 256 400C371 400 464 307 464 192ZM0 192C0 51 115 -64 256 -64C397 -64 512 51 512 192C512 333 397 448 256 448C115 448 0 333 0 192ZM232 328V192C232 184 236 176 243 172L339 108C350 101 365 104 372 115C379 126 376 141 365 148L280 205V328C280 341 269 352 256 352C243 352 232 341 232 328Z" />
  </g>
</svg>