<?xml version='1.0' encoding='utf-8'?>
<svg xmlns="http://www.w3.org/2000/svg" viewBox="0 0 640 512" width="100" height="100" fill="currentColor">
  <g transform="scale(1, -1) translate(0, -448)">
    <path d="M384 384C384 354 364 329 336 322V-32H528C537 -32 544 -39 544 -48C544 -57 537 -64 528 -64H112C103 -64 96 -57 96 -48C96 -39 103 -32 112 -32H304V322C276 329 256 354 256 384H112C103 384 96 391 96 400C96 409 103 416 112 416H265C276 435 296 448 320 448C344 448 364 435 375 416H512C521 416 528 409 528 400C528 391 521 384 512 384H384ZM441 86C458 73 483 64 512 64C541 64 566 73 583 86C600 98 608 114 608 128H416C416 114 424 98 441 86ZM512 301 426 160H598L512 301ZM384 128V130C384 144 388 159 396 171L488 322C493 331 502 336 512 336C522 336 531 331 536 322L628 171C636 159 640 144 640 130V128C640 75 583 32 512 32C441 32 384 75 384 128ZM32 128C32 114 40 98 57 86C74 73 99 64 128 64C157 64 182 73 199 86C216 98 224 114 224 128H32ZM42 160H214L128 301L42 160ZM128 32C57 32 0 75 0 128V130C0 144 4 159 12 171L104 322C109 331 118 336 128 336C138 336 147 331 152 322L244 171C252 159 256 144 256 130V128C256 75 199 32 128 32ZM320 352C338 352 352 366 352 384C352 402 338 416 320 416C302 416 288 402 288 384C288 366 302 352 320 352Z" />
  </g>
</svg>