<?xml version='1.0' encoding='utf-8'?>
<svg xmlns="http://www.w3.org/2000/svg" viewBox="0 0 512 512" width="100" height="100" fill="currentColor">
  <g transform="scale(1, -1) translate(0, -448)">
    <path d="M192 336H64C55 336 48 329 48 320V256H156C180 285 216 304 256 304C296 304 333 285 356 256H464V352C464 361 457 368 448 368H271C269 368 266 367 264 366L213 341C207 338 199 336 192 336ZM48 208V32C48 23 55 16 64 16H448C457 16 464 23 464 32V208H380C383 198 384 187 384 176C384 105 327 48 256 48C185 48 128 105 128 176C128 187 129 198 132 208H48ZM0 32V320C0 355 29 384 64 384C64 402 78 416 96 416H128C146 416 160 402 160 384H192L243 409C251 414 261 416 271 416H448C483 416 512 387 512 352V32C512 -3 483 -32 448 -32H64C29 -32 0 -3 0 32ZM336 176C336 220 300 256 256 256C212 256 176 220 176 176C176 132 212 96 256 96C300 96 336 132 336 176Z" />
  </g>
</svg>