<?xml version='1.0' encoding='utf-8'?>
<svg xmlns="http://www.w3.org/2000/svg" viewBox="0 0 543 512" width="100" height="100" fill="currentColor">
  <g transform="scale(1, -1) translate(0, -448)">
    <path d="M150 -8H30V418H241V339Q241 325 246 314Q252 303 262 297Q272 290 286 290H368V124Q368 118 372 114Q377 109 383 109Q390 109 394 114Q398 118 398 124V314Q398 320 394 324L279 444Q275 448 269 448H15Q9 448 4 444Q0 440 0 433V-23Q0 -29 4 -33Q8 -37 15 -38H150Q157 -37 161 -33Q165 -29 165 -23Q165 -16 161 -12Q157 -8 150 -7ZM266 76Q255 81 241 81H191V-47H217V-2H240Q263 -2 276 9Q289 20 289 39Q289 51 283 61Q277 71 266 76ZM257 25Q251 20 241 20H217V60H241Q251 60 257 54Q262 48 262 39Q262 29 257 24V25ZM377 -4Q377 -27 355 -27Q344 -27 338 -22Q332 -16 332 -3V81H306V-4Q306 -25 319 -36Q333 -48 355 -48Q377 -48 391 -36Q404 -23 404 -3V82H377V-4ZM515 9Q509 17 499 19Q508 22 513 29Q518 37 518 46Q518 63 506 72Q493 81 470 81H426V-47H475Q497 -47 509 -37Q521 -28 521 -9Q521 2 515 9ZM452 60H470Q481 60 486 56Q491 52 491 43Q491 28 471 27H452V60ZM489 -21Q484 -26 475 -26H452V9H476Q494 9 494 -9Q494 -17 489 -21Z" />
  </g>
</svg>