<?xml version='1.0' encoding='utf-8'?>
<svg xmlns="http://www.w3.org/2000/svg" viewBox="0 0 576 512" width="100" height="100" fill="currentColor">
  <g transform="scale(1, -1) translate(0, -448)">
    <path d="M128 320C128 373 171 416 224 416C277 416 320 373 320 320C320 267 277 224 224 224C171 224 128 267 128 320ZM352 320C352 391 295 448 224 448C153 448 96 391 96 320C96 249 153 192 224 192C295 192 352 249 352 320ZM32 -32C32 47 97 112 176 112H272C289 112 306 109 321 103C326 109 331 115 336 120V132C316 140 295 144 272 144H176C79 144 0 65 0 -32V-48C0 -57 7 -64 16 -64C25 -64 32 -57 32 -48V-32ZM512 144H544C544 188 508 224 464 224C420 224 384 188 384 144V93C365 87 352 69 352 48V-48C352 -75 374 -96 400 -96H528C555 -96 576 -75 576 -48V48C576 74 555 96 528 96H416V144C416 170 438 192 464 192C491 192 512 170 512 144ZM384 48C384 57 391 64 400 64H528C537 64 544 57 544 48V-48C544 -57 537 -64 528 -64H400C391 -64 384 -57 384 -48V48Z" />
  </g>
</svg>