<?xml version='1.0' encoding='utf-8'?>
<svg xmlns="http://www.w3.org/2000/svg" viewBox="0 0 512 512" width="100" height="100" fill="currentColor">
  <g transform="scale(1, -1) translate(0, -448)">
    <path d="M48 392C48 405 37 416 24 416C11 416 0 405 0 392V48C0 4 36 -32 80 -32H488C501 -32 512 -21 512 -8C512 5 501 16 488 16H80C62 16 48 30 48 48V392ZM152 320H360C373 320 384 331 384 344C384 357 373 368 360 368H152C139 368 128 357 128 344C128 331 139 320 152 320ZM152 256C139 256 128 245 128 232C128 219 139 208 152 208H296C309 208 320 219 320 232C320 245 309 256 296 256H152ZM152 144C139 144 128 133 128 120C128 107 139 96 152 96H424C437 96 448 107 448 120C448 133 437 144 424 144H152Z" />
  </g>
</svg>