<?xml version='1.0' encoding='utf-8'?>
<svg xmlns="http://www.w3.org/2000/svg" viewBox="0 0 512 512" width="100" height="100" fill="currentColor">
  <g transform="scale(1, -1) translate(0, -448)">
    <path d="M472 421Q468 423 464 424Q460 424 457 422L36 242Q31 240 28 235Q26 230 27 224Q28 219 32 215Q37 212 42 211H463Q470 212 474 216Q479 220 479 227V407Q479 416 472 421ZM447 243H121L447 383V243ZM479 27V-13Q479 -21 472 -26Q468 -29 463 -29Q460 -29 457 -28L420 -12Q414 -9 411 -3Q409 3 411 9Q414 15 420 18Q426 20 433 17L447 11V27Q447 34 452 38Q456 43 463 43Q470 43 474 38Q479 34 479 27ZM479 167V127Q479 120 474 116Q470 111 463 111Q456 111 452 116Q447 120 447 127V151H423Q416 151 412 156Q407 160 407 167Q407 174 412 179Q416 183 423 183H463Q470 183 474 179Q479 174 479 167ZM235 167Q235 160 230 156Q226 151 219 151H151Q144 151 139 156Q135 160 135 167Q135 174 139 179Q144 183 151 183H219Q225 183 230 179Q235 174 235 167ZM271 167Q271 174 275 179Q280 183 287 183H355Q362 183 366 179Q371 174 371 167Q371 160 366 156Q362 151 355 151H287Q280 151 275 156Q271 160 271 167ZM98 167Q98 161 94 157Q96 151 94 145Q92 141 88 138Q84 136 79 136Q76 135 73 137L36 152Q31 155 28 160Q26 165 27 170Q28 176 32 180Q36 183 42 183H82Q89 183 94 179Q98 174 98 167ZM371 26Q369 22 365 19Q361 17 357 17Q353 16 350 18L281 47Q275 50 273 56Q270 62 273 69Q276 75 282 77Q287 79 294 77L363 47Q369 44 372 38Q374 32 371 26ZM233 86Q231 81 227 79Q223 76 218 76Q215 76 212 77L142 107Q136 110 134 116Q131 122 134 128Q137 134 143 137Q149 139 155 136L225 107Q231 104 233 98Q235 92 233 86Z" />
  </g>
</svg>