<?xml version='1.0' encoding='utf-8'?>
<svg xmlns="http://www.w3.org/2000/svg" viewBox="0 0 512 512" width="100" height="100" fill="currentColor">
  <g transform="scale(1, -1) translate(0, -448)">
    <path d="M336 400C345 400 352 393 352 384V272H400V384C400 419 371 448 336 448H176C141 448 112 419 112 384V272H160V384C160 393 167 400 176 400H208V344C208 331 219 320 232 320H280C293 320 304 331 304 344V400H336ZM316 -64H448C483 -64 512 -35 512 0V160C512 195 483 224 448 224H316C329 206 336 184 336 160V97C339 96 341 96 344 96H392C405 96 416 107 416 120V176H448C457 176 464 169 464 160V0C464 -9 457 -16 448 -16H335C332 -34 326 -50 316 -64ZM240 160V0C240 0 240 0 240 0C240 -9 233 -16 224 -16H64C55 -16 48 -9 48 0V160C48 169 55 176 64 176H96V120C96 107 107 96 120 96H168C181 96 192 107 192 120V176H224C233 176 240 169 240 160ZM64 224C29 224 0 195 0 160V0C0 -35 29 -64 64 -64H224C259 -64 288 -35 288 0V160C288 195 259 224 224 224H64Z" />
  </g>
</svg>