<?xml version='1.0' encoding='utf-8'?>
<svg xmlns="http://www.w3.org/2000/svg" viewBox="0 0 512 512" width="100" height="100" fill="currentColor">
  <g transform="scale(1, -1) translate(0, -448)">
    <path d="M240 442C249 450 263 450 272 442L504 234C514 225 515 210 506 200C497 190 482 189 472 198L464 205V0C464 -35 435 -64 400 -64H112C77 -64 48 -35 48 0V205L40 198C30 189 15 190 6 200C-3 210 -2 225 8 234L240 442ZM256 392 96 248V0C96 -9 103 -16 112 -16H160V88C160 128 192 160 232 160H280C320 160 352 128 352 88V-16H400C409 -16 416 -9 416 0V248L256 392ZM208 -16H304V88C304 101 293 112 280 112H232C219 112 208 101 208 88V-16Z" />
  </g>
</svg>