<?xml version='1.0' encoding='utf-8'?>
<svg xmlns="http://www.w3.org/2000/svg" viewBox="0 0 576 512" width="100" height="100" fill="currentColor">
  <g transform="scale(1, -1) translate(0, -448)">
    <path d="M41 473C32 482 16 482 7 473C-2 464 -2 448 7 439L535 -89C544 -99 560 -99 569 -89C578 -80 578 -65 569 -55L473 41C475 44 478 46 481 48C527 92 559 144 574 179C577 187 577 196 574 204C559 240 527 292 481 335C433 379 369 416 288 416C231 416 182 398 142 372L41 473ZM177 337C209 356 246 368 288 368C353 368 407 338 448 300C486 265 513 222 527 192C513 162 486 119 448 84C445 81 442 78 439 75L394 120C408 140 416 165 416 192C416 263 359 320 288 320C261 320 237 312 216 298L177 337ZM359 155 251 263C262 269 275 272 288 272C332 272 368 236 368 192C368 179 365 166 359 155ZM103 275 69 309C37 272 14 233 3 204C-1 196 -1 188 3 180C17 144 49 92 96 49C143 5 207 -32 288 -32C325 -32 359 -24 390 -11L352 26C332 20 311 16 288 16C223 16 169 46 128 84C90 119 63 162 50 192C60 215 78 246 104 275ZM103 275Z" />
  </g>
</svg>