<?xml version='1.0' encoding='utf-8'?>
<svg xmlns="http://www.w3.org/2000/svg" viewBox="0 0 512 512" width="100" height="100" fill="currentColor">
  <g transform="scale(1, -1) translate(0, -448)">
    <path d="M208 272C208 343 265 400 336 400C407 400 464 343 464 272C464 201 407 144 336 144C326 144 316 145 306 148C298 150 289 147 283 141L254 112H200C187 112 176 101 176 88V48H136C123 48 112 37 112 24V-16H48V62L205 219C211 225 214 234 212 242C209 251 208 262 208 272ZM336 448C239 448 160 369 160 272C160 262 161 253 162 244L7 89C3 84 0 78 0 72V-40C0 -53 11 -64 24 -64H136C149 -64 160 -53 160 -40V0H200C213 0 224 11 224 24V64H264C270 64 277 66 281 71L308 98C317 97 327 96 336 96C433 96 512 175 512 272C512 369 433 448 336 448ZM368 272C386 272 400 286 400 304C400 322 386 336 368 336C350 336 336 322 336 304C336 286 350 272 368 272Z" />
  </g>
</svg>