<?xml version='1.0' encoding='utf-8'?>
<svg xmlns="http://www.w3.org/2000/svg" viewBox="0 0 448 512" width="100" height="100" fill="currentColor">
  <g transform="scale(1, -1) translate(0, -448)">
    <path d="M64 0C46 0 32 14 32 32V352C32 370 46 384 64 384H384C402 384 416 370 416 352V32C416 14 402 0 384 0H64ZM0 32C0 -3 29 -32 64 -32H384C419 -32 448 -3 448 32V352C448 387 419 416 384 416H64C29 416 0 387 0 352V32ZM224 96C234 96 243 100 249 107L345 210C349 215 352 222 352 228C352 244 340 256 325 256H124C108 256 96 244 96 228C96 222 99 215 103 210L199 107C205 100 214 96 224 96ZM222 129 134 224H314L226 129C225 128 225 128 224 128C224 128 223 128 222 129Z" />
  </g>
</svg>