<?xml version='1.0' encoding='utf-8'?>
<svg xmlns="http://www.w3.org/2000/svg" viewBox="0 0 448 512" width="100" height="100" fill="currentColor">
  <g transform="scale(1, -1) translate(0, -448)">
    <path d="M100 0H7V300H100ZM53 340Q38 341 26 348Q14 355 7 367Q0 380 0 395Q0 410 7 422Q14 434 26 441Q38 448 53 448Q68 448 80 441Q93 434 100 422Q107 410 107 395Q107 380 100 367Q93 355 80 348Q68 341 53 340ZM447 0H355V146Q355 159 354 173Q353 187 348 199Q344 211 334 218Q324 225 306 225Q283 225 271 214Q258 203 254 186Q250 168 251 149V0H158V300H247V259H248Q255 271 267 282Q279 293 296 300Q314 307 336 307Q371 307 393 296Q415 285 427 266Q439 247 443 221Q448 195 448 165V0Z" />
  </g>
</svg>