<?xml version='1.0' encoding='utf-8'?>
<svg xmlns="http://www.w3.org/2000/svg" viewBox="0 0 436 512" width="100" height="100" fill="currentColor">
  <g transform="scale(1, -1) translate(0, -448)">
    <path d="M224 54Q223 54 222 54Q216 55 213 60L171 121Q168 126 169 131Q170 136 175 139Q179 142 184 141Q189 140 192 135L227 85L329 163Q333 166 339 165Q344 165 347 160Q350 156 349 151Q349 146 344 142L231 56Q228 54 224 54ZM423 -41V261Q423 267 420 270Q416 274 411 274H108Q102 274 99 270Q95 267 95 261V-41Q95 -47 99 -50Q102 -54 108 -54H411Q416 -54 420 -50Q423 -47 423 -41ZM121 249H398V-28H121V249ZM71 54Q71 60 68 63Q64 67 59 67H26V344H319V311Q320 305 323 302Q327 298 332 298Q338 298 341 302Q345 305 345 311V357Q345 362 341 366Q338 369 332 369H13Q7 369 4 366Q0 362 0 357V54Q0 48 4 45Q7 41 13 41H59Q64 41 68 45Q71 48 71 54ZM423 315V436Q423 441 420 445Q416 448 411 448H108Q102 448 99 445Q95 441 95 436V400Q95 394 99 391Q102 387 108 387Q113 387 117 391Q121 394 121 400V423H398V315Q398 310 401 306Q405 303 411 303Q416 303 420 306Q423 310 423 315Z" />
  </g>
</svg>