<?xml version='1.0' encoding='utf-8'?>
<svg xmlns="http://www.w3.org/2000/svg" viewBox="0 0 448 512" width="100" height="100" fill="currentColor">
  <g transform="scale(1, -1) translate(0, -448)">
    <path d="M224 448C215 448 208 441 208 432V415C127 407 64 339 64 256V246C64 201 49 157 21 122L10 109C4 101 0 90 0 79C0 53 21 32 47 32H401C427 32 448 53 448 79C448 90 444 101 438 109L428 122C399 157 384 201 384 246V256C384 339 321 407 240 415V432C240 441 233 448 224 448ZM224 384C295 384 352 327 352 256V246C352 193 370 142 403 102L413 89C415 86 416 83 416 79C416 71 409 64 401 64H47C39 64 32 71 32 79C32 83 33 86 35 89L46 102C78 142 96 193 96 246V256C96 327 153 384 224 384ZM156 -16C166 -44 193 -64 224 -64C255 -64 282 -44 292 -16H256C249 -26 237 -32 224 -32C211 -32 199 -26 192 -16H156Z" />
  </g>
</svg>