<?xml version='1.0' encoding='utf-8'?>
<svg xmlns="http://www.w3.org/2000/svg" viewBox="0 0 640 512" width="100" height="100" fill="currentColor">
  <g transform="scale(1, -1) translate(0, -448)">
    <path d="M16 448C7 448 0 441 0 432C0 423 7 416 16 416H61C69 416 76 410 77 403L128 123C134 89 164 64 199 64H464C473 64 480 71 480 80C480 89 473 96 464 96H199C179 96 163 110 159 129L154 160H467C501 160 530 184 537 217L569 368C575 392 556 416 530 416H107C100 435 82 448 61 448H16ZM113 384H530C535 384 539 379 538 374L506 224C502 205 486 192 467 192H148L113 384ZM188 -12C188 -1 197 8 208 8C219 8 228 -1 228 -12C228 -23 219 -32 208 -32C197 -32 188 -23 188 -12ZM260 -12C260 17 237 40 208 40C179 40 156 17 156 -12C156 -41 179 -64 208 -64C237 -64 260 -41 260 -12ZM432 8C443 8 452 -1 452 -12C452 -23 443 -32 432 -32C421 -32 412 -23 412 -12C412 -1 421 8 432 8ZM432 -64C461 -64 484 -41 484 -12C484 17 461 40 432 40C403 40 380 17 380 -12C380 -41 403 -64 432 -64Z" />
  </g>
</svg>