<?xml version='1.0' encoding='utf-8'?>
<svg xmlns="http://www.w3.org/2000/svg" viewBox="0 0 640 512" width="100" height="100" fill="currentColor">
  <g transform="scale(1, -1) translate(0, -448)">
    <path d="M416 237C428 241 441 235 446 224L465 186C475 185 485 182 495 178L530 201C540 208 554 207 563 198L582 179C591 170 593 156 586 145L562 111C564 106 566 101 567 96C569 91 570 86 570 81L608 62C619 56 625 44 622 32L615 5C612 -7 600 -15 588 -14L546 -11C539 -20 532 -27 524 -33L527 -75C527 -88 519 -99 507 -103L481 -110C469 -113 456 -107 450 -96L432 -58C421 -57 411 -54 402 -50L367 -73C356 -80 342 -79 334 -70L314 -51C305 -42 304 -28 311 -18L334 17C332 22 331 27 329 32C328 37 327 42 326 47L289 66C277 72 272 84 275 96L282 123C285 135 296 143 309 142L351 139C357 148 365 155 373 161L370 203C369 216 378 227 390 230L416 237ZM448 108C424 108 404 88 404 64C404 40 424 20 449 20C473 20 492 40 492 64C492 88 473 108 448 108ZM225 494 251 487C263 483 271 472 271 459L268 417C276 411 284 404 290 395L332 398C344 399 356 391 359 379L366 352C369 340 364 328 352 322L315 303C314 298 313 293 312 288C310 283 308 278 307 273L330 238C337 228 335 214 327 205L307 186C298 177 285 176 274 183L239 206C230 202 219 199 209 198L191 160C185 149 172 143 160 146L134 153C122 157 114 168 114 181L117 223C109 229 101 236 95 245L53 242C41 241 29 249 26 261L19 288C16 300 21 312 33 318L70 337C71 342 72 347 73 352C75 357 76 362 78 367L55 401C48 412 50 426 58 435L78 454C87 463 100 464 111 457L146 434C155 438 166 441 176 442L194 480C200 491 213 497 225 494ZM192 364C168 364 148 344 148 320C148 296 168 276 192 276C217 276 236 296 236 320C236 344 217 364 192 364Z" />
  </g>
</svg>