<?xml version='1.0' encoding='utf-8'?>
<svg xmlns="http://www.w3.org/2000/svg" viewBox="0 0 512 512" width="100" height="100" fill="currentColor">
  <g transform="scale(1, -1) translate(0, -448)">
    <path d="M64 384C64 419 93 448 128 448H342C359 448 375 441 387 429L429 387C441 375 448 358 448 341V304H64V384ZM0 192C0 227 29 256 64 256H448C483 256 512 227 512 192V96C512 78 498 64 480 64H448V0C448 -35 419 -64 384 -64H128C93 -64 64 -35 64 0V64H32C14 64 0 78 0 96V192ZM128 32V0H384V96H128V32ZM456 176C456 189 445 200 432 200C419 200 408 189 408 176C408 163 419 152 432 152C445 152 456 163 456 176Z" />
  </g>
</svg>