<?xml version='1.0' encoding='utf-8'?>
<svg xmlns="http://www.w3.org/2000/svg" viewBox="0 0 512 512" width="100" height="100" fill="currentColor">
  <g transform="scale(1, -1) translate(0, -448)">
    <path d="M256 416C380 416 480 316 480 192C480 68 380 -32 256 -32C132 -32 32 68 32 192C32 316 132 416 256 416ZM256 -64C397 -64 512 51 512 192C512 333 397 448 256 448C115 448 0 333 0 192C0 51 115 -64 256 -64ZM165 283C159 277 159 267 165 261L233 192L165 123C159 117 159 107 165 101C171 94 181 94 187 101L256 169L325 101C331 94 341 94 347 101C354 107 354 117 347 123L279 192L347 261C354 267 354 277 347 283C341 289 331 289 325 283L256 215L187 283C181 289 171 289 165 283Z" />
  </g>
</svg>