<?xml version='1.0' encoding='utf-8'?>
<svg xmlns="http://www.w3.org/2000/svg" viewBox="0 0 512 512" width="100" height="100" fill="currentColor">
  <g transform="scale(1, -1) translate(0, -448)">
    <path d="M467 176Q482 178 483 192Q482 207 467 208H423V327H467Q482 328 483 343Q482 357 467 359H423V402Q422 417 407 418Q392 417 391 402V359H272V402Q270 417 256 418Q241 417 240 402V359H123V402Q121 417 107 418Q92 417 91 402V359H48Q34 357 32 343Q34 328 48 327H91V208H48Q34 207 32 192Q34 178 48 176H91V57H48Q34 56 32 41Q34 27 48 25H91V-17Q92 -32 107 -33Q121 -32 123 -17V25H240V-17Q241 -32 256 -33Q270 -32 272 -17V25H391V-17Q392 -32 407 -33Q422 -32 423 -17V25H467Q482 27 483 41Q482 56 467 57H423V176H467ZM391 327V208V327V208H272V327H391ZM123 327H240H123H240V208H123V327ZM123 57V176V57V176H240V57H123ZM391 57H272H391H272V176H391V57Z" />
  </g>
</svg>
