<?xml version='1.0' encoding='utf-8'?>
<svg xmlns="http://www.w3.org/2000/svg" viewBox="0 0 512 512" width="100" height="100" fill="currentColor">
  <g transform="scale(1, -1) translate(0, -448)">
    <path d="M30 -31Q18 -30 10 -23Q3 -15 3 -3V35Q3 46 9 53Q16 61 26 62V349Q15 350 7 358Q0 366 0 378V420Q0 432 8 440Q16 448 28 448H70Q81 448 89 441Q97 433 98 421H379Q380 433 388 441Q396 448 407 448H449Q461 448 469 440Q477 432 478 420V378Q477 366 470 358Q462 350 451 349V305Q450 295 444 289Q438 283 428 282Q418 283 412 289Q406 295 406 305V349Q394 350 387 358Q379 365 379 376H98Q97 365 90 358Q83 350 71 349V62Q81 61 87 54Q94 48 95 38H154Q163 38 170 32Q176 25 176 16Q176 6 170 0Q163 -7 154 -7H95Q94 -17 86 -24Q79 -31 68 -31H30ZM189 266Q214 267 235 255Q256 243 269 222Q281 201 281 177Q281 153 269 131Q256 110 235 99Q214 87 189 88Q165 87 144 99Q123 110 110 131Q97 153 97 177Q97 201 110 222Q123 243 144 255Q165 267 189 266ZM189 221Q177 221 167 215Q157 209 151 199Q146 189 145 177Q146 165 151 155Q157 145 167 139Q177 133 189 133Q202 133 212 139Q221 145 227 155Q233 165 233 177Q233 189 227 199Q221 209 212 215Q202 221 189 221ZM300 205Q294 205 290 208Q285 211 283 216Q275 239 257 254Q239 270 215 275Q209 276 205 281Q201 286 201 292V330Q202 337 207 342Q212 347 219 347H326Q333 347 338 342Q343 337 343 330V222Q343 215 338 210Q333 205 326 205H300ZM380 58Q372 58 366 63L317 105Q310 111 309 120Q308 128 313 136L392 236Q400 249 412 256Q425 263 439 265Q442 265 446 265Q459 265 471 260Q483 255 492 246Q502 236 507 224Q511 212 512 199Q511 185 506 173Q501 162 492 152L396 64Q389 58 380 58ZM380 110 461 185Q464 188 465 191Q467 195 467 199Q467 208 461 214Q454 220 446 220Q442 220 443 220Q444 220 444 220Q434 219 429 211Q428 210 428 209L362 125L380 111ZM257 -64Q234 -63 214 -58Q193 -52 178 -45Q171 -42 169 -33Q168 -24 175 -19Q182 -14 191 -1Q200 13 209 39Q219 68 233 82Q247 97 262 102Q276 106 287 106Q297 106 298 106Q299 106 297 106Q295 106 296 106Q301 105 305 102L358 52Q361 49 362 45Q364 42 363 38Q356 6 345 -14Q333 -34 318 -45Q304 -55 288 -60Q272 -64 257 -64Z" />
  </g>
</svg>