<?xml version='1.0' encoding='utf-8'?>
<svg xmlns="http://www.w3.org/2000/svg" viewBox="0 0 512 512" width="100" height="100" fill="currentColor">
  <g transform="scale(1, -1) translate(0, -448)">
    <path d="M477 285 373 179 477 285 373 179Q368 174 362 174Q355 174 350 179Q341 190 350 202L434 286H206Q145 285 104 244Q64 203 62 142Q64 81 104 40Q145 0 206 -2H276Q291 -3 292 -18Q291 -33 276 -34H206Q132 -32 82 18Q32 67 30 142Q32 217 82 266Q132 316 206 318H422L350 391Q341 402 350 413Q362 423 373 413L477 308Q487 296 477 285Z" />
  </g>
</svg>
