<?xml version='1.0' encoding='utf-8'?>
<svg xmlns="http://www.w3.org/2000/svg" viewBox="0 0 640 512" width="100" height="100" fill="currentColor">
  <g transform="scale(1, -1) translate(0, -459)">
    <path d="M355 326Q379 302 411 314Q424 320 440 320Q471 319 491 299Q511 279 512 248Q512 242 511 236Q509 220 516 206Q524 192 539 185Q563 174 577 153Q592 131 592 104Q591 68 568 44Q545 19 509 16Q508 16 507 16H504H144Q103 17 76 44Q49 71 48 112Q48 144 66 168Q83 192 112 202Q142 215 144 248Q144 248 144 248Q144 248 144 248Q144 248 144 248Q144 248 144 248Q145 299 179 333Q213 367 264 368Q320 366 355 326ZM512 -32Q567 -27 603 10Q639 48 640 104Q639 146 617 179Q595 212 559 229Q560 238 560 248Q559 299 525 333Q491 367 440 368Q414 368 391 358Q368 385 335 400Q302 416 264 416Q193 414 145 367Q98 319 96 248Q53 232 27 196Q1 160 0 112Q2 51 42 10Q83 -30 144 -32H464ZM223 193Q209 176 223 159Q240 145 257 159L296 198V64Q298 42 320 40Q342 42 344 64V198L383 159Q400 145 417 159Q431 176 417 193L337 273Q320 287 303 273L223 193Z" />
  </g>
</svg>
