<?xml version='1.0' encoding='utf-8'?>
<svg xmlns="http://www.w3.org/2000/svg" viewBox="0 0 512 512" width="100" height="100" fill="currentColor">
  <g transform="scale(1, -1) translate(0, -448)">
    <path d="M128 128H25C0 128 -16 155 -3 176L50 265C59 279 74 288 91 288H186C262 417 376 423 452 412C465 410 475 400 476 388C487 312 481 198 352 122V27C352 10 343 -5 329 -14L241 -67C219 -80 192 -64 192 -40V64C192 99 163 128 128 128ZM400 288C400 315 379 336 352 336C325 336 304 315 304 288C304 261 325 240 352 240C379 240 400 261 400 288Z" />
  </g>
</svg>