<?xml version='1.0' encoding='utf-8'?>
<svg xmlns="http://www.w3.org/2000/svg" viewBox="0 0 448 512" width="100" height="100" fill="currentColor">
  <g transform="scale(1, -1) translate(0, -448)">
    <path d="M256 339V128C256 110 242 96 224 96C206 96 192 110 192 128V339L151 297C138 285 118 285 105 297C93 310 93 330 105 343L201 439C214 451 234 451 247 439L343 343C355 330 355 310 343 297C330 285 310 285 297 297L256 339ZM224 48C268 48 304 84 304 128H384C419 128 448 99 448 64V32C448 -3 419 -32 384 -32H64C29 -32 0 -3 0 32V64C0 99 29 128 64 128H144C144 84 180 48 224 48ZM368 24C381 24 392 35 392 48C392 61 381 72 368 72C355 72 344 61 344 48C344 35 355 24 368 24Z" />
  </g>
</svg>