<?xml version='1.0' encoding='utf-8'?>
<svg xmlns="http://www.w3.org/2000/svg" viewBox="0 0 512 512" width="100" height="100" fill="currentColor">
  <g transform="scale(1, -1) translate(0, -448)">
    <path d="M384 341C384 350 381 358 375 364L332 407C326 413 318 416 310 416H160C142 416 128 402 128 384V304H96V384C96 419 125 448 160 448H310C327 448 343 441 355 429L397 387C409 375 416 358 416 341V304H384V341ZM448 224H64C46 224 32 210 32 192V64H96V96C96 114 110 128 128 128H384C402 128 416 114 416 96V64H480V192C480 210 466 224 448 224ZM416 32V-32C416 -50 402 -64 384 -64H128C110 -64 96 -50 96 -32V32H32C14 32 0 46 0 64V192C0 227 29 256 64 256H448C483 256 512 227 512 192V64C512 46 498 32 480 32H416ZM128 96V-32H384V96H128ZM416 176C416 185 423 192 432 192C441 192 448 185 448 176C448 167 441 160 432 160C423 160 416 167 416 176Z" />
  </g>
</svg>