<?xml version='1.0' encoding='utf-8'?>
<svg xmlns="http://www.w3.org/2000/svg" viewBox="0 0 320 512" width="100" height="100" fill="currentColor">
  <g transform="scale(1, -1) translate(0, -448)">
    <path d="M32 288C32 359 89 416 160 416C231 416 288 359 288 288C288 234 255 189 209 169C177 157 144 128 144 88V64C144 55 151 48 160 48C169 48 176 55 176 64V88C176 109 195 129 221 140C279 164 320 221 320 288C320 376 248 448 160 448C72 448 0 376 0 288C0 279 7 272 16 272C25 272 32 279 32 288ZM160 -64C173 -64 184 -53 184 -40C184 -27 173 -16 160 -16C147 -16 136 -27 136 -40C136 -53 147 -64 160 -64Z" />
  </g>
</svg>