<?xml version='1.0' encoding='utf-8'?>
<svg xmlns="http://www.w3.org/2000/svg" viewBox="0 0 512 512" width="100" height="100" fill="currentColor">
  <g transform="scale(1, -1) translate(0, -448)">
    <path d="M482 142Q480 67 430 18Q380 -32 306 -34H236Q221 -33 220 -18Q221 -3 236 -2H306Q367 0 408 40Q448 81 450 142Q448 203 408 244Q367 285 306 286H78L162 202Q171 190 162 179Q157 174 150 174Q144 174 139 179L35 285Q25 296 35 307L139 413Q150 423 162 413Q171 402 162 391L90 318H306Q380 316 430 266Q480 217 482 142Z" />
  </g>
</svg>
