<?xml version='1.0' encoding='utf-8'?>
<svg xmlns="http://www.w3.org/2000/svg" viewBox="0 0 448 512" width="100" height="100" fill="currentColor">
  <g transform="scale(1, -1) translate(0, -448)">
    <path d="M161 421C163 427 169 432 176 432H272C279 432 286 427 288 421L299 384H150L161 421ZM116 384H16C7 384 0 377 0 368C0 359 7 352 16 352H432C441 352 448 359 448 368C448 377 441 384 432 384H332L318 430C312 450 293 464 272 464H176C155 464 136 450 130 430L116 384ZM32 304V0C32 -35 61 -64 96 -64H352C387 -64 416 -35 416 0V304H384V0C384 -18 370 -32 352 -32H96C78 -32 64 -18 64 0V304H32ZM144 240C144 249 137 256 128 256C119 256 112 249 112 240V48C112 39 119 32 128 32C137 32 144 39 144 48V240ZM240 240C240 249 233 256 224 256C215 256 208 249 208 240V48C208 39 215 32 224 32C233 32 240 39 240 48V240ZM336 240C336 249 329 256 320 256C311 256 304 249 304 240V48C304 39 311 32 320 32C329 32 336 39 336 48V240Z" />
  </g>
</svg>