<?xml version='1.0' encoding='utf-8'?>
<svg xmlns="http://www.w3.org/2000/svg" viewBox="0 0 512 512" width="100" height="100" fill="currentColor">
  <g transform="scale(1, -1) translate(0, -448)">
    <path d="M32 400C32 409 25 416 16 416C7 416 0 409 0 400V48C0 4 36 -32 80 -32H496C505 -32 512 -25 512 -16C512 -7 505 0 496 0H80C54 0 32 21 32 48V400ZM475 293C482 299 482 309 475 315C469 321 459 321 453 315L320 183L235 267C229 273 219 273 213 267L101 155C95 149 95 139 101 133C107 126 117 126 123 133L224 233L309 149C315 142 325 142 331 149L475 293Z" />
  </g>
</svg>