<?xml version='1.0' encoding='utf-8'?>
<svg xmlns="http://www.w3.org/2000/svg" viewBox="0 0 576 512" width="100" height="100" fill="currentColor">
  <g transform="scale(1, -1) translate(0, -448)">
    <path d="M549 324Q544 342 531 355Q519 368 501 373Q490 376 470 378Q451 380 427 381Q403 382 378 383Q354 384 333 384Q313 384 300 384Q288 385 288 384Q287 385 275 384Q262 384 242 384Q221 384 197 383Q172 382 148 381Q124 380 105 378Q85 376 74 373Q56 368 44 355Q31 342 26 324Q22 311 20 294Q18 277 17 259Q16 242 15 226Q15 211 15 202Q14 192 14 192Q14 192 15 182Q15 173 15 158Q16 143 17 125Q18 107 20 90Q22 73 26 60Q31 42 44 29Q56 17 74 12Q85 9 105 7Q124 5 148 4Q172 3 197 2Q221 1 242 1Q262 1 275 1Q287 0 288 0Q288 0 300 1Q313 1 333 1Q354 1 378 2Q403 3 427 4Q451 5 470 7Q490 9 501 12Q519 17 531 29Q544 42 549 60Q553 73 555 90Q557 107 558 125Q559 143 560 158Q560 173 560 182Q561 192 561 192Q561 192 560 202Q560 211 560 226Q559 242 558 259Q557 277 555 294Q553 311 549 324ZM232 111V273L374 192L232 111Z" />
  </g>
</svg>