<?xml version='1.0' encoding='utf-8'?>
<svg xmlns="http://www.w3.org/2000/svg" viewBox="0 0 564 512" width="100" height="100" fill="currentColor">
  <g transform="scale(1, -1) translate(0, -448)">
    <path d="M453 335Q453 340 449 344Q446 347 440 347H116Q110 347 107 344Q103 340 103 335V75Q103 69 107 66Q110 62 116 62H440Q446 62 449 66Q453 69 453 75V335ZM427 322V178L358 235Q354 238 349 238Q345 238 341 235L255 160L194 194Q191 196 187 195Q184 195 181 193L128 159V322H427ZM128 87V128Q129 128 130 129L188 167L251 134Q254 132 258 132Q262 132 265 135L349 208L423 147Q423 147 424 147Q426 146 427 145V87H128ZM244 222Q255 221 265 226Q274 231 280 241Q285 250 285 261Q285 272 280 281Q274 291 265 296Q255 301 244 300Q233 301 224 296Q214 291 209 281Q203 272 203 261Q203 250 209 241Q214 231 224 226Q233 221 244 222ZM244 247Q240 247 237 249Q233 251 231 254Q229 257 229 261Q229 265 231 268Q233 271 237 273Q240 275 244 275Q248 275 251 273Q255 271 257 268Q259 265 259 261Q259 257 257 254Q255 251 251 249Q248 247 244 247ZM543 448H466Q460 448 457 445Q453 441 453 436Q453 430 457 427Q460 423 466 423H511L460 372Q456 368 456 363Q456 358 460 353Q464 350 469 350Q474 350 478 353L530 405V360Q530 355 533 351Q537 348 542 347Q548 348 552 351Q555 355 555 360V436Q555 441 551 445Q548 448 542 448H543ZM13 347Q19 348 22 351Q26 355 26 360V405L76 355Q80 351 85 351Q90 351 94 355Q98 359 98 364Q98 369 94 373L44 423H90Q96 423 99 426Q103 430 103 435Q103 441 99 445Q96 448 90 448H13Q7 448 4 445Q0 441 0 436V360Q0 355 4 351Q7 348 13 347ZM90 -13H40L87 34Q91 38 91 43Q91 48 87 52Q83 56 78 56Q73 56 69 52L26 8V49Q25 55 22 58Q18 62 13 62Q7 62 4 58Q0 55 0 49V-26Q0 -32 4 -35Q7 -39 13 -39H90Q95 -39 99 -35Q102 -32 103 -26Q102 -21 99 -17Q95 -13 90 -13ZM543 62Q537 62 534 58Q530 55 530 49V3L476 57Q472 61 467 61Q462 61 458 57Q454 53 454 48Q454 43 458 39L510 -13H465Q460 -13 456 -17Q453 -21 453 -26Q453 -32 456 -35Q460 -39 465 -39H542Q548 -39 552 -35Q555 -32 555 -26V49Q555 55 552 58Q548 62 542 62H543Z" />
  </g>
</svg>