<?xml version='1.0' encoding='utf-8'?>
<svg xmlns="http://www.w3.org/2000/svg" viewBox="0 0 384 512" width="100" height="100" fill="currentColor">
  <g transform="scale(1, -1) translate(0, -448)">
    <path d="M297 157C321 183 336 218 336 256C336 335 272 400 192 400C113 400 48 335 48 256C48 218 63 183 88 157C109 134 132 103 141 64H243C252 103 275 134 297 157ZM331 124C308 99 288 69 288 34V16C288 -28 252 -64 208 -64H176C132 -64 96 -28 96 16V34C96 69 76 99 53 124C20 158 0 205 0 256C0 362 86 448 192 448C298 448 384 362 384 256C384 205 364 158 331 124ZM144 264C144 251 133 240 120 240C107 240 96 251 96 264C96 313 135 352 184 352C197 352 208 341 208 328C208 315 197 304 184 304C162 304 144 286 144 264Z" />
  </g>
</svg>