<?xml version='1.0' encoding='utf-8'?>
<svg xmlns="http://www.w3.org/2000/svg" viewBox="0 0 448 512" width="100" height="100" fill="currentColor">
  <g transform="scale(1, -1) translate(0, -448)">
    <path d="M32 416C14 416 0 402 0 384V0C0 -18 14 -32 32 -32C50 -32 64 -18 64 0V384C64 402 50 416 32 416ZM120 416C107 416 96 405 96 392V-8C96 -21 107 -32 120 -32C133 -32 144 -21 144 -8V392C144 405 133 416 120 416ZM192 384V0C192 -18 206 -32 224 -32C242 -32 256 -18 256 0V384C256 402 242 416 224 416C206 416 192 402 192 384ZM400 392V-8C400 -21 411 -32 424 -32C437 -32 448 -21 448 -8V392C448 405 437 416 424 416C411 416 400 405 400 392ZM304 392V-8C304 -21 315 -32 328 -32C341 -32 352 -21 352 -8V392C352 405 341 416 328 416C315 416 304 405 304 392Z" />
  </g>
</svg>