<?xml version='1.0' encoding='utf-8'?>
<svg xmlns="http://www.w3.org/2000/svg" viewBox="0 0 512 512" width="100" height="100" fill="currentColor">
  <g transform="scale(1, -1) translate(0, -448)">
    <path d="M439 223H154H439H154V280Q155 325 184 355Q214 384 259 385Q294 385 321 365Q348 345 359 311Q365 297 379 300Q392 306 390 320Q375 364 340 390Q305 417 258 417Q200 416 161 377Q123 338 121 280V223H79Q64 222 63 207V-17Q64 -32 79 -33H439Q453 -32 455 -17V207Q453 222 439 223ZM423 -1H95H423H95V191H423V-1ZM227 113Q227 127 236 136Q245 145 259 145Q272 145 282 136Q291 127 291 113Q290 95 275 86V48Q274 34 259 32Q244 34 243 48V86Q228 95 227 113Z" />
  </g>
</svg>
