<?xml version='1.0' encoding='utf-8'?>
<svg xmlns="http://www.w3.org/2000/svg" viewBox="0 0 448 512" width="100" height="100" fill="currentColor">
  <g transform="scale(1, -1) translate(0, -448)">
    <path d="M137 442C141 455 153 464 167 464H281C295 464 307 455 311 442L320 416H416C434 416 448 402 448 384C448 366 434 352 416 352H32C14 352 0 366 0 384C0 402 14 416 32 416H128L137 442ZM32 304H416V0C416 -35 387 -64 352 -64H96C61 -64 32 -35 32 0V304ZM120 240C107 240 96 229 96 216V24C96 11 107 0 120 0C133 0 144 11 144 24V216C144 229 133 240 120 240ZM224 240C211 240 200 229 200 216V24C200 11 211 0 224 0C237 0 248 11 248 24V216C248 229 237 240 224 240ZM328 240C315 240 304 229 304 216V24C304 11 315 0 328 0C341 0 352 11 352 24V216C352 229 341 240 328 240Z" />
  </g>
</svg>