<?xml version='1.0' encoding='utf-8'?>
<svg xmlns="http://www.w3.org/2000/svg" viewBox="0 0 512 512" width="100" height="100" fill="currentColor">
  <g transform="scale(1, -1) translate(0, -448)">
    <path d="M318 28C295 -17 272 -32 256 -32C241 -32 217 -17 195 28C176 66 162 119 160 176H352C350 119 337 66 318 28ZM352 208H160C162 265 176 317 195 356C217 401 241 416 256 416C272 416 295 401 318 356C337 317 350 265 352 208ZM384 176H479C473 83 410 6 325 -21C358 23 381 97 384 176ZM479 208H384C381 287 358 361 325 405C410 377 473 300 479 208ZM128 208H33C39 300 102 377 187 405C154 361 131 287 128 208ZM33 176H128C131 97 154 23 187 -21C102 6 39 83 33 176ZM256 -64C397 -64 512 51 512 192C512 333 397 448 256 448C115 448 0 333 0 192C0 51 115 -64 256 -64Z" />
  </g>
</svg>