<?xml version='1.0' encoding='utf-8'?>
<svg xmlns="http://www.w3.org/2000/svg" viewBox="0 0 512 512" width="100" height="100" fill="currentColor">
  <g transform="scale(1, -1) translate(0, -448)">
    <path d="M436 358H136H436H136Q122 357 120 342V-17Q122 -31 136 -33H348Q354 -33 359 -28L447 61Q451 65 452 72V342Q450 357 436 358ZM152 326H420H152H420V97H337Q323 96 322 82V-1H152V326ZM353 11V66V11V66H407L353 11ZM346 386H93H346H93V74Q91 59 77 58Q62 59 61 74V402Q62 417 77 418H346Q361 417 362 402Q360 387 346 386ZM300 101Q298 87 284 85H197Q182 87 181 101Q182 116 197 117H284Q298 116 300 101ZM272 43Q271 28 256 27H197Q182 28 181 43Q182 57 197 59H256Q271 57 272 43ZM197 147H375H197H375Q390 148 391 163V283Q390 298 375 299H197Q182 298 181 283V163Q182 148 197 147ZM213 267H359H213H359V179H213V267Z" />
  </g>
</svg>
