<?xml version='1.0' encoding='utf-8'?>
<svg xmlns="http://www.w3.org/2000/svg" viewBox="0 0 576 512" width="100" height="100" fill="currentColor">
  <g transform="scale(1, -1) translate(0, -448)">
    <path d="M224 416H96C78 416 64 402 64 384V0C64 -18 78 -32 96 -32H176V-64H96C61 -64 32 -35 32 0V384C32 419 61 448 96 448H230C247 448 263 441 275 429L397 307C409 295 416 278 416 261V112H384V256H288C253 256 224 285 224 320V416ZM371 288 256 403V320C256 302 270 288 288 288H371ZM240 64H272C303 64 328 39 328 8C328 -23 303 -48 272 -48H256V-80C256 -89 249 -96 240 -96C231 -96 224 -89 224 -80V48C224 57 231 64 240 64ZM272 -16C285 -16 296 -5 296 8C296 21 285 32 272 32H256V-16H272ZM368 64H400C427 64 448 42 448 16V-48C448 -75 427 -96 400 -96H368C359 -96 352 -89 352 -80V48C352 57 359 64 368 64ZM400 -64C409 -64 416 -57 416 -48V16C416 25 409 32 400 32H384V-64H400ZM480 48C480 57 487 64 496 64H544C553 64 560 57 560 48C560 39 553 32 544 32H512V0H544C553 0 560 -7 560 -16C560 -25 553 -32 544 -32H512V-80C512 -89 505 -96 496 -96C487 -96 480 -89 480 -80V48Z" />
  </g>
</svg>