<?xml version='1.0' encoding='utf-8'?>
<svg xmlns="http://www.w3.org/2000/svg" viewBox="0 0 512 512" width="100" height="100" fill="currentColor">
  <g transform="scale(1, -1) translate(0, -448)">
    <path d="M280 456C280 469 269 480 256 480C243 480 232 469 232 456V192C232 179 243 168 256 168C269 168 280 179 280 192V456ZM148 370C160 377 163 392 157 403C150 414 135 418 124 411C50 366 0 285 0 192C0 51 115 -64 256 -64C397 -64 512 51 512 192C512 285 463 366 389 411C377 418 362 414 356 403C349 392 352 377 364 370C424 333 464 267 464 192C464 77 371 -16 256 -16C141 -16 48 77 48 192C48 267 88 333 148 370Z" />
  </g>
</svg>