<?xml version='1.0' encoding='utf-8'?>
<svg xmlns="http://www.w3.org/2000/svg" viewBox="0 0 576 512" width="100" height="100" fill="currentColor">
  <g transform="scale(1, -1) translate(0, -448)">
    <path d="M288 384C147 384 59 256 32 192C59 128 147 0 288 0C429 0 517 128 544 192C517 256 429 384 288 384ZM95 335C143 379 207 416 288 416C369 416 434 379 481 335C527 292 559 240 574 204C577 196 577 188 574 180C559 144 527 92 481 49C434 5 369 -32 288 -32C207 -32 143 5 95 49C49 92 17 144 2 180C-1 188 -1 196 2 204C17 240 49 292 95 335ZM288 96C341 96 384 139 384 192C384 235 355 272 316 284C319 275 320 266 320 256C320 203 277 160 224 160C214 160 205 161 196 164C208 125 245 96 288 96ZM160 184C160 187 160 189 160 192C160 204 162 216 165 227C165 228 165 229 166 230C178 270 210 302 250 314C262 318 275 320 288 320C291 320 293 320 296 320C363 316 416 260 416 192C416 121 359 64 288 64C220 64 164 117 160 184ZM192 200C202 195 212 192 224 192C259 192 288 221 288 256C288 267 285 278 280 287C233 283 196 247 192 200Z" />
  </g>
</svg>