<?xml version='1.0' encoding='utf-8'?>
<svg xmlns="http://www.w3.org/2000/svg" viewBox="0 0 448 512" width="100" height="100" fill="currentColor">
  <g transform="scale(1, -1) translate(0, -448)">
    <path d="M136 416C149 416 160 405 160 392C160 379 149 368 136 368H48V280C48 267 37 256 24 256C11 256 0 267 0 280V392C0 405 11 416 24 416H136ZM0 104C0 117 11 128 24 128C37 128 48 117 48 104V16H136C149 16 160 5 160 -8C160 -21 149 -32 136 -32H24C11 -32 0 -21 0 -8V104ZM424 416C437 416 448 405 448 392V280C448 267 437 256 424 256C411 256 400 267 400 280V368H312C299 368 288 379 288 392C288 405 299 416 312 416H424ZM400 104C400 117 411 128 424 128C437 128 448 117 448 104V-8C448 -21 437 -32 424 -32H312C299 -32 288 -21 288 -8C288 5 299 16 312 16H400V104Z" />
  </g>
</svg>