<?xml version='1.0' encoding='utf-8'?>
<svg xmlns="http://www.w3.org/2000/svg" viewBox="0 0 512 512" width="100" height="100" fill="currentColor">
  <g transform="scale(1, -1) translate(0, -448)">
    <path d="M105 203Q94 204 87 209L8 272Q0 279 0 289V426Q0 436 7 442Q15 448 26 448H215Q226 448 234 442Q241 436 241 426V226Q241 216 234 210Q226 204 215 203H105ZM189 248V404H52V299L115 248H190H189ZM375 203Q365 204 357 209L279 272Q277 274 276 275L275 276Q269 280 269 287V433Q269 439 274 443Q279 448 286 448H290Q293 448 296 448H486Q489 448 492 448H493Q500 448 505 443Q510 439 510 433V432Q511 429 511 426V226Q511 223 510 220V219Q510 213 505 209Q500 204 493 204H492Q489 203 486 203H375ZM296 -64Q285 -63 278 -57Q270 -51 270 -41V157Q270 166 278 173Q285 179 296 179H407Q417 179 424 173L503 111Q511 104 511 94V-41Q511 -50 504 -57Q496 -63 485 -63H296V-64ZM460 -19V84L397 134H322V-19H460ZM17 -63Q10 -63 5 -58Q0 -54 0 -48V166Q0 172 5 176Q10 181 17 181H135Q142 181 147 177L236 109Q241 105 241 98V-48Q241 -54 236 -58Q231 -63 224 -63H17Z" />
  </g>
</svg>