<?xml version='1.0' encoding='utf-8'?>
<svg xmlns="http://www.w3.org/2000/svg" viewBox="0 0 576 512" width="100" height="100" fill="currentColor">
  <g transform="scale(1, -1) translate(0, -448)">
    <path d="M288 480C297 480 305 475 310 467L383 323L543 297C552 296 559 290 562 281C565 272 563 263 556 257L442 142L467 -18C468 -27 465 -36 457 -41C450 -46 440 -47 432 -43L288 30L144 -43C136 -47 126 -46 119 -41C112 -36 108 -27 109 -18L134 142L20 257C14 263 11 272 14 281C17 290 24 296 33 297L193 323L267 467C271 475 279 480 288 480ZM288 403 230 290C227 283 220 278 213 277L87 257L177 167C182 162 185 154 184 147L164 21L277 79C284 82 292 82 299 79L412 21L393 147C391 154 394 162 399 167L489 257L364 277C356 278 349 283 346 290L288 403Z" />
  </g>
</svg>