<?xml version='1.0' encoding='utf-8'?>
<svg xmlns="http://www.w3.org/2000/svg" viewBox="0 0 448 512" width="100" height="100" fill="currentColor">
  <g transform="scale(1, -1) translate(0, -448)">
    <path d="M224 307Q191 307 166 292Q140 277 124 251Q109 225 109 193Q109 160 124 135Q140 109 166 93Q191 78 224 78Q256 78 282 93Q308 109 323 135Q338 160 339 193Q338 225 323 251Q308 277 282 292Q256 307 224 307ZM224 118Q203 118 186 128Q169 138 159 155Q149 172 149 193Q149 213 159 230Q169 247 186 257Q203 267 224 267Q244 267 261 257Q278 247 288 230Q298 213 298 193Q298 172 288 155Q278 138 261 128Q244 118 224 118ZM370 312Q370 301 362 293Q355 286 343 285Q332 286 324 293Q317 301 316 312Q317 324 324 331Q332 339 343 339Q355 339 362 331Q370 324 370 312ZM446 285Q445 312 437 336Q429 359 410 379Q390 398 367 406Q343 414 316 415Q305 416 286 416Q268 416 246 417Q224 417 202 417Q179 416 161 416Q142 416 131 415Q104 414 81 406Q57 398 37 379Q18 359 10 336Q2 312 1 285Q0 274 0 255Q0 237 0 215Q0 193 0 171Q0 149 0 130Q0 112 1 100Q2 73 10 50Q18 26 37 6Q57 -13 81 -21Q104 -29 131 -30Q142 -31 161 -31Q179 -31 202 -31Q224 -32 246 -31Q268 -31 286 -31Q305 -31 316 -30Q343 -29 367 -21Q390 -13 410 6Q429 26 437 50Q445 73 446 100Q447 112 447 130Q447 149 448 171Q448 193 448 215Q447 237 447 255Q447 274 446 285ZM398 60Q392 46 381 35Q371 24 356 18Q344 14 327 12Q310 10 291 9Q272 8 254 9Q236 9 224 9Q211 9 193 9Q176 9 156 9Q137 10 120 12Q103 14 92 18Q77 24 66 35Q55 46 49 60Q45 72 43 89Q41 106 40 125Q39 145 40 162Q40 180 40 193Q40 205 40 223Q40 241 40 260Q41 279 43 296Q45 313 49 325Q55 339 66 350Q77 361 92 367Q103 372 120 374Q137 376 156 376Q176 377 193 377Q211 376 224 376Q236 376 254 377Q272 377 291 376Q310 376 327 374Q344 372 356 367Q370 361 381 350Q392 340 398 325Q403 313 405 296Q407 279 407 260Q408 241 408 223Q407 205 407 193Q407 180 408 162Q408 145 407 125Q407 106 405 89Q403 72 398 60Z" />
  </g>
</svg>