<?xml version='1.0' encoding='utf-8'?>
<svg xmlns="http://www.w3.org/2000/svg" viewBox="0 0 512 512" width="100" height="100" fill="currentColor">
  <g transform="scale(1, -1) translate(0, -448)">
    <path d="M480 192Q480 202 473 207L396 256L470 284Q479 287 480 297Q480 307 473 312L314 416Q311 418 307 419Q303 419 300 418L40 320Q36 319 33 315Q31 312 30 308Q29 299 36 292L103 244Q105 241 108 240L40 216Q36 214 33 210Q31 207 30 203Q29 194 36 188L112 132L40 105Q36 103 33 100Q31 97 30 92Q29 84 36 77L182 -31Q184 -32 186 -33Q189 -34 192 -34Q194 -34 195 -34Q196 -34 197 -33L312 9Q318 12 321 18Q323 23 321 30Q319 36 313 39Q307 42 300 40L194 0L80 85L143 109L182 80Q184 79 186 78Q189 77 192 77Q194 77 195 77Q196 78 197 78L355 136L430 88L388 72Q381 69 379 63Q376 58 378 51Q380 46 384 43Q388 41 393 40Q398 40 398 41Q398 41 399 41L471 68Q479 71 481 81Q481 91 474 96L392 150L471 179Q479 183 481 192ZM304 385 429 304 304 257Q304 257 304 257Q280 258 265 264Q249 271 241 279Q232 288 229 295Q225 302 225 303Q224 308 220 311Q216 314 211 315Q206 315 202 312Q197 310 195 305Q195 305 191 299Q187 294 179 286Q170 279 155 275Q140 270 118 272L79 301L303 385ZM244 239Q225 236 206 238Q187 239 169 245Q182 250 192 256Q201 262 208 268Q220 251 244 238ZM194 111 80 196 145 220Q181 204 221 204Q241 204 257 207Q273 210 290 216L360 242L430 196L195 109ZM364 46Q363 47 362 48Q362 49 361 50Q360 50 360 51Q360 51 359 52Q359 52 358 52Q357 53 356 54Q355 55 354 54Q353 54 352 55Q349 55 346 55Q345 55 343 54Q342 54 341 53Q341 53 340 52Q340 52 339 52Q339 51 338 51Q333 46 333 40Q333 33 338 28Q343 24 349 24Q355 24 360 28Q365 33 365 40Q365 42 365 42Q365 43 365 43Q365 44 364 46ZM135 205H133Q126 205 122 201Q117 196 117 189Q117 183 122 178Q126 173 133 173H135Q141 173 146 178Q151 183 151 189Q151 196 146 201Q141 205 135 205ZM194 178Q194 185 189 189Q185 194 178 194H176Q170 194 165 189Q160 185 160 178Q160 171 165 167Q170 162 176 162H178Q185 162 189 167Q194 171 194 178ZM280 184H278Q271 184 267 180Q262 175 262 168Q262 162 267 157Q271 153 278 152H280Q286 153 291 157Q295 162 296 168Q295 175 291 180Q286 184 280 184ZM312 215H310Q303 215 299 210Q294 206 294 199Q294 192 299 188Q303 183 310 183H312Q318 183 323 188Q327 192 328 199Q327 206 323 210Q318 215 312 215ZM360 223Q353 223 348 218Q344 214 344 207Q344 200 348 196Q353 191 360 191H361Q368 191 372 196Q377 200 377 207Q377 214 372 218Q368 223 361 223H360ZM205 161H204Q197 161 192 157Q188 152 188 145Q188 139 192 134Q197 129 204 129H205Q212 129 216 134Q221 139 221 145Q221 152 216 157Q212 161 205 161ZM235 197H233Q226 197 222 193Q217 188 217 181Q217 175 222 170Q226 165 233 165H235Q241 165 246 170Q251 175 251 181Q251 188 246 193Q241 197 235 197Z" />
  </g>
</svg>