<?xml version='1.0' encoding='utf-8'?>
<svg xmlns="http://www.w3.org/2000/svg" viewBox="0 0 448 512" width="100" height="100" fill="currentColor">
  <g transform="scale(1, -1) translate(0, -448)">
    <path d="M384 112H192C183 112 176 119 176 128V384C176 393 183 400 192 400H326C330 400 334 398 337 395L395 337C398 334 400 330 400 325V128C400 119 393 112 384 112ZM192 64H384C419 64 448 93 448 128V325C448 342 441 359 429 371L371 429C359 441 343 448 326 448H192C157 448 128 419 128 384V128C128 93 157 64 192 64ZM64 320C29 320 0 291 0 256V0C0 -35 29 -64 64 -64H256C291 -64 320 -35 320 0V16H272V0C272 -9 265 -16 256 -16H64C55 -16 48 -9 48 0V256C48 265 55 272 64 272H80V320H64Z" />
  </g>
</svg>