<?xml version='1.0' encoding='utf-8'?>
<svg xmlns="http://www.w3.org/2000/svg" viewBox="0 0 512 512" width="100" height="100" fill="currentColor">
  <g transform="scale(1, -1) translate(0, -448)">
    <path d="M303 35C282 -9 262 -16 256 -16C250 -16 230 -9 209 35C192 69 180 117 177 168H335C332 116 320 69 303 35ZM335 216H177C180 267 192 315 209 349C230 393 250 400 256 400C262 400 282 393 303 349C320 314 332 267 335 216ZM383 168H463C454 93 406 31 340 2C364 44 380 104 383 168ZM463 216H383C380 280 364 340 340 382C406 353 454 291 463 216ZM129 216H49C58 291 106 353 172 382C148 340 132 280 129 216ZM49 168H129C132 104 148 44 172 2C106 31 58 93 49 168ZM256 -64C397 -64 512 51 512 192C512 333 397 448 256 448C115 448 0 333 0 192C0 51 115 -64 256 -64Z" />
  </g>
</svg>