<?xml version='1.0' encoding='utf-8'?>
<svg xmlns="http://www.w3.org/2000/svg" viewBox="0 0 512 512" width="100" height="100" fill="currentColor">
  <g transform="scale(1, -1) translate(0, -448)">
    <path d="M109 339C190 420 322 420 403 339L430 312H352C339 312 328 301 328 288C328 275 339 264 352 264H488C502 264 512 275 512 288V424C512 437 502 448 488 448C475 448 464 437 464 424V346L437 373C337 473 175 473 75 373C32 330 7 275 2 218C0 205 10 193 23 192C36 191 48 200 49 214C54 259 74 304 109 339ZM511 165C512 179 503 190 489 192C476 193 464 184 463 170C458 125 438 80 403 45C322 -36 190 -36 109 45L82 72H160C173 72 184 83 184 96C184 109 173 120 160 120H24C11 120 0 109 0 96V-40C0 -53 11 -64 24 -64C37 -64 48 -53 48 -40V38L75 11C175 -89 337 -89 437 11C480 54 505 109 511 165Z" />
  </g>
</svg>